ply
format ascii 1.0
comment made by meshes/oim_asset_to_ply.py from coca_cola_centered.obj; mm; origin 40.0 mm above the underside, plan bbox centred
comment TextureFile coca_cola.png
element vertex 1020
property float x
property float y
property float z
property float nx
property float ny
property float nz
property float texture_u
property float texture_v
element face 1184
property list uchar int vertex_indices
end_header
0.0000 0.0000 -34.1990 0.00000 0.00000 -1.00000 0.148227 0.136308
0.0000 0.0000 -34.1990 -0.54676 0.54676 -0.63411 0.148227 0.136308
0.0000 0.0000 -34.1990 0.29504 -0.71506 -0.63375 0.148227 0.136308
0.0000 0.0000 -34.1990 -0.71506 -0.29504 -0.63375 0.148227 0.136308
0.0000 0.0000 -34.1990 0.00000 -0.77336 -0.63397 0.148227 0.136308
0.0000 0.0000 -34.1990 0.29695 0.71410 -0.63394 0.148227 0.136308
0.0000 0.0000 -34.1990 -0.54676 -0.54676 -0.63411 0.148227 0.136308
0.0000 0.0000 -34.1990 -0.29504 0.71506 -0.63375 0.148227 0.136308
0.0000 0.0000 -34.1990 -0.71410 0.29695 -0.63394 0.148227 0.136308
0.0000 0.0000 -34.1990 0.54676 -0.54676 -0.63411 0.148227 0.136308
0.0000 0.0000 -34.1990 0.77336 0.00000 -0.63397 0.148227 0.136308
0.0000 0.0000 -34.1990 -0.29695 -0.71410 -0.63394 0.148227 0.136308
0.0000 0.0000 -34.1990 0.00000 0.77336 -0.63397 0.148227 0.136308
0.0000 0.0000 -34.1990 0.54676 0.54676 -0.63411 0.148227 0.136308
0.0000 0.0000 -34.1990 0.00000 0.00000 -1.00000 0.148227 0.136308
0.0000 0.0000 -34.1990 0.00000 0.00000 -1.00000 0.148227 0.136308
0.0000 0.0000 -34.1990 -0.77336 0.00000 -0.63397 0.148227 0.136308
0.0000 0.0000 -34.1990 0.71506 0.29504 -0.63375 0.148227 0.136308
0.0000 0.0000 -34.1990 0.71410 -0.29695 -0.63394 0.148227 0.136308
0.0000 0.0000 174.5170 0.00000 0.00000 1.00000 0.862957 0.220195
29.8440 0.0000 -37.8030 0.00000 0.00000 -1.00000 0.287154 0.136308
29.8440 0.0000 -37.8030 0.96786 -0.00001 -0.25149 0.622534 0.281168
29.8440 0.0000 -37.8030 0.60153 -0.03871 -0.79791 0.287154 0.136308
29.8440 0.0000 -37.8030 0.00000 0.77595 -0.63080 0.287154 0.136308
33.2210 0.0000 55.7030 0.98707 0.00001 -0.16027 0.622534 0.609298
13.8840 0.0000 149.2090 0.92663 -0.00000 0.37598 0.622534 0.937429
27.5730 11.4210 -37.8030 0.29695 -0.71685 -0.63083 0.276579 0.087418
27.5730 11.4210 -37.8030 0.54080 0.26596 -0.79800 0.276579 0.087418
27.5730 11.4210 -37.8030 0.00000 0.00000 -1.00000 0.276579 0.087418
27.5730 11.4210 -37.8030 0.89419 0.37038 -0.25148 0.675699 0.281168
30.6920 12.7130 55.7030 0.91194 0.37772 -0.16028 0.681714 0.609298
12.8270 5.3130 149.2090 0.85612 0.35456 0.37597 0.647267 0.937429
21.1030 21.1030 -37.8030 0.53840 0.80569 -0.24695 0.026271 0.281168
21.1030 21.1030 -37.8030 0.80569 0.53840 -0.24695 0.720770 0.281168
21.1030 21.1030 -37.8030 -0.54865 0.54865 -0.63085 0.246464 0.045971
21.1030 21.1030 -37.8030 0.00000 0.00000 -1.00000 0.246464 0.045971
21.1030 21.1030 -37.8030 0.45273 0.39795 -0.79792 0.246464 0.045971
23.4910 23.4910 55.7030 0.82114 0.54863 -0.15726 0.731884 0.609298
23.4910 23.4910 55.7030 0.54863 0.82114 -0.15725 0.015156 0.609298
9.8180 9.8180 149.2090 0.77262 0.51608 0.36976 0.668235 0.937429
9.8180 9.8180 149.2090 0.51607 0.77260 0.36981 0.078806 0.937429
11.4210 27.5730 -37.8030 0.37037 0.89420 -0.25147 0.071342 0.281168
11.4210 27.5730 -37.8030 0.00000 0.00000 -1.00000 0.201392 0.018277
11.4210 27.5730 -37.8030 0.71691 -0.29697 -0.63075 0.201392 0.018277
11.4210 27.5730 -37.8030 0.19442 0.57049 -0.79796 0.201392 0.018277
12.7130 30.6920 55.7030 0.37773 0.91194 -0.16028 0.065327 0.609298
5.3130 12.8270 149.2090 0.35455 0.85611 0.37599 0.099774 0.937429
0.0000 29.8440 -37.8030 0.00001 0.96786 -0.25149 0.124507 0.281168
0.0000 29.8440 -37.8030 -0.77595 0.00000 -0.63080 0.148227 0.008553
0.0000 29.8440 -37.8030 0.00000 0.00000 -1.00000 0.148227 0.008553
0.0000 29.8440 -37.8030 0.03871 0.60153 -0.79791 0.148227 0.008553
0.0000 33.2210 55.7030 -0.00001 0.98707 -0.16027 0.124507 0.609298
0.0000 13.8840 149.2090 0.00000 0.92663 0.37598 0.124507 0.937429
-11.4210 27.5730 -37.8030 -0.37038 0.89419 -0.25148 0.177672 0.281168
-11.4210 27.5730 -37.8030 0.00000 0.00000 -1.00000 0.095062 0.018277
-11.4210 27.5730 -37.8030 -0.26596 0.54080 -0.79800 0.095062 0.018277
-11.4210 27.5730 -37.8030 0.71685 0.29695 -0.63083 0.095062 0.018277
-12.7130 30.6920 55.7030 -0.37772 0.91194 -0.16028 0.183687 0.609298
-5.3130 12.8270 149.2090 -0.35456 0.85612 0.37597 0.149240 0.937429
-21.1030 21.1030 -37.8030 -0.39795 0.45273 -0.79792 0.049991 0.045971
-21.1030 21.1030 -37.8030 -0.54865 -0.54865 -0.63085 0.049991 0.045971
-21.1030 21.1030 -37.8030 0.00000 0.00000 -1.00000 0.049991 0.045971
-21.1030 21.1030 -37.8030 -0.80569 0.53840 -0.24695 0.773311 0.281168
-21.1030 21.1030 -37.8030 -0.53840 0.80569 -0.24695 0.222743 0.281168
-23.4910 23.4910 55.7030 -0.54863 0.82114 -0.15726 0.233857 0.609298
-23.4910 23.4910 55.7030 -0.82114 0.54863 -0.15725 0.762197 0.609298
-9.8180 9.8180 149.2090 -0.51608 0.77262 0.36976 0.170208 0.937429
-9.8180 9.8180 149.2090 -0.77260 0.51607 0.36981 0.825846 0.937429
-27.5730 11.4210 -37.8030 -0.89420 0.37037 -0.25147 0.818382 0.281168
-27.5730 11.4210 -37.8030 -0.57049 0.19442 -0.79796 0.019876 0.087418
-27.5730 11.4210 -37.8030 0.00000 0.00000 -1.00000 0.019876 0.087418
-27.5730 11.4210 -37.8030 0.29697 0.71691 -0.63075 0.019876 0.087418
-30.6920 12.7130 55.7030 -0.91194 0.37773 -0.16028 0.812367 0.609298
-12.8270 5.3130 149.2090 -0.85611 0.35455 0.37599 0.846814 0.937429
-29.8440 0.0000 -37.8030 0.00000 0.00000 -1.00000 0.009300 0.136308
-29.8440 0.0000 -37.8030 0.00000 -0.77595 -0.63080 0.009300 0.136308
-29.8440 0.0000 -37.8030 -0.60153 0.03871 -0.79791 0.009300 0.136308
-29.8440 0.0000 -37.8030 -0.96786 0.00001 -0.25149 0.871547 0.281168
-33.2210 0.0000 55.7030 -0.98707 -0.00001 -0.16027 0.871547 0.609298
-13.8840 0.0000 149.2090 -0.92663 0.00000 0.37598 0.871547 0.937429
-27.5730 -11.4210 -37.8030 -0.54080 -0.26596 -0.79800 0.019876 0.185197
-27.5730 -11.4210 -37.8030 -0.89419 -0.37038 -0.25148 0.924712 0.281168
-27.5730 -11.4210 -37.8030 -0.29695 0.71685 -0.63083 0.019876 0.185197
-27.5730 -11.4210 -37.8030 0.00000 0.00000 -1.00000 0.019876 0.185197
-30.6920 -12.7130 55.7030 -0.91194 -0.37772 -0.16028 0.930727 0.609298
-12.8270 -5.3130 149.2090 -0.85612 -0.35456 0.37597 0.896281 0.937429
-21.1030 -21.1030 -37.8030 -0.45273 -0.39795 -0.79792 0.049991 0.226644
-21.1030 -21.1030 -37.8030 -0.53840 -0.80569 -0.24695 0.275284 0.281168
-21.1030 -21.1030 -37.8030 0.00000 0.00000 -1.00000 0.049991 0.226644
-21.1030 -21.1030 -37.8030 -0.80569 -0.53840 -0.24695 0.969784 0.281168
-21.1030 -21.1030 -37.8030 0.54865 -0.54865 -0.63085 0.049991 0.226644
-23.4910 -23.4910 55.7030 -0.82114 -0.54863 -0.15726 0.980898 0.609298
-23.4910 -23.4910 55.7030 -0.54863 -0.82114 -0.15725 0.264170 0.609298
-9.8180 -9.8180 149.2090 -0.77262 -0.51608 0.36976 0.917248 0.937429
-9.8180 -9.8180 149.2090 -0.51607 -0.77260 0.36981 0.327819 0.937429
-11.4210 -27.5730 -37.8030 -0.37037 -0.89420 -0.25147 0.320355 0.281168
-11.4210 -27.5730 -37.8030 0.00000 0.00000 -1.00000 0.095062 0.254338
-11.4210 -27.5730 -37.8030 -0.71691 0.29697 -0.63075 0.095062 0.254338
-11.4210 -27.5730 -37.8030 -0.19442 -0.57049 -0.79796 0.095062 0.254338
-12.7130 -30.6920 55.7030 -0.37773 -0.91194 -0.16028 0.314340 0.609298
-5.3130 -12.8270 149.2090 -0.35455 -0.85611 0.37599 0.348787 0.937429
-0.0000 -29.8440 -37.8030 0.77595 0.00000 -0.63080 0.148227 0.264063
-0.0000 -29.8440 -37.8030 -0.03871 -0.60153 -0.79791 0.148227 0.264063
-0.0000 -29.8440 -37.8030 -0.00001 -0.96786 -0.25149 0.373520 0.281168
-0.0000 -29.8440 -37.8030 0.00000 0.00000 -1.00000 0.148227 0.264063
-0.0000 -33.2210 55.7030 0.00001 -0.98707 -0.16027 0.373520 0.609298
-0.0000 -13.8840 149.2090 -0.00000 -0.92663 0.37598 0.373520 0.937429
11.4210 -27.5730 -37.8030 -0.71685 -0.29695 -0.63083 0.201392 0.254338
11.4210 -27.5730 -37.8030 0.26596 -0.54080 -0.79800 0.201392 0.254338
11.4210 -27.5730 -37.8030 0.37038 -0.89419 -0.25148 0.426685 0.281168
11.4210 -27.5730 -37.8030 0.00000 0.00000 -1.00000 0.201392 0.254338
12.7130 -30.6920 55.7030 0.37772 -0.91194 -0.16028 0.432700 0.609298
5.3130 -12.8270 149.2090 0.35456 -0.85612 0.37597 0.398254 0.937429
21.1030 -21.1030 -37.8030 0.54865 0.54865 -0.63085 0.246464 0.226644
21.1030 -21.1030 -37.8030 0.39795 -0.45273 -0.79792 0.246464 0.226644
21.1030 -21.1030 -37.8030 0.80569 -0.53840 -0.24695 0.524298 0.281168
21.1030 -21.1030 -37.8030 0.53840 -0.80569 -0.24695 0.471757 0.281168
21.1030 -21.1030 -37.8030 0.00000 0.00000 -1.00000 0.246464 0.226644
23.4910 -23.4910 55.7030 0.82114 -0.54863 -0.15725 0.513183 0.609298
23.4910 -23.4910 55.7030 0.54863 -0.82114 -0.15726 0.482871 0.609298
9.8180 -9.8180 149.2090 0.51608 -0.77262 0.36976 0.419221 0.937429
9.8180 -9.8180 149.2090 0.77260 -0.51607 0.36981 0.576833 0.937429
27.5730 -11.4210 -37.8030 0.57049 -0.19442 -0.79796 0.276579 0.185197
27.5730 -11.4210 -37.8030 0.89420 -0.37037 -0.25147 0.569369 0.281168
27.5730 -11.4210 -37.8030 0.00000 0.00000 -1.00000 0.276579 0.185197
27.5730 -11.4210 -37.8030 -0.29697 -0.71691 -0.63075 0.276579 0.185197
30.6920 -12.7130 55.7030 0.91194 -0.37773 -0.16028 0.563354 0.609298
12.8270 -5.3130 149.2090 0.85611 -0.35455 0.37599 0.597801 0.937429
-22.8660 -22.8660 -24.8090 -0.55475 -0.83025 -0.05422 0.267080 0.326767
-22.8660 -22.8660 -24.8090 -0.83027 -0.55471 -0.05425 0.977987 0.326767
-29.8750 -12.3750 -24.8090 -0.92247 -0.38211 -0.05521 0.929152 0.326767
-32.3370 0.0000 -24.8090 -0.99847 0.00001 -0.05527 0.871547 0.326767
-29.8750 12.3750 -24.8090 -0.92248 0.38208 -0.05521 0.813942 0.326767
-22.8660 22.8660 -24.8090 -0.55471 0.83027 -0.05425 0.230947 0.326767
-22.8660 22.8660 -24.8090 -0.83025 0.55475 -0.05422 0.765107 0.326767
-12.3750 29.8750 -24.8090 -0.38211 0.92247 -0.05521 0.182112 0.326767
0.0000 32.3370 -24.8090 0.00001 0.99847 -0.05527 0.124507 0.326767
12.3750 29.8750 -24.8090 0.38208 0.92248 -0.05521 0.066902 0.326767
22.8660 22.8660 -24.8090 0.83027 0.55471 -0.05425 0.728974 0.326767
22.8660 22.8660 -24.8090 0.55475 0.83025 -0.05422 0.018067 0.326767
29.8750 12.3750 -24.8090 0.92247 0.38211 -0.05521 0.680139 0.326767
32.3370 0.0000 -24.8090 0.99847 -0.00001 -0.05527 0.622534 0.326767
29.8750 -12.3750 -24.8090 0.92248 -0.38208 -0.05521 0.564929 0.326767
22.8660 -22.8660 -24.8090 0.83025 -0.55475 -0.05422 0.516094 0.326767
22.8660 -22.8660 -24.8090 0.55471 -0.83027 -0.05425 0.479960 0.326767
12.3750 -29.8750 -24.8090 0.38211 -0.92247 -0.05521 0.431125 0.326767
-0.0000 -32.3370 -24.8090 -0.00001 -0.99847 -0.05527 0.373520 0.326767
-12.3750 -29.8750 -24.8090 -0.38208 -0.92248 -0.05521 0.315915 0.326767
25.9830 0.0000 -37.8030 -0.38590 0.77454 -0.50118 0.929261 0.216701
25.9830 0.0000 -37.8030 -0.29398 -0.05848 -0.95402 0.269177 0.136308
25.9830 0.0000 -37.8030 -0.07654 0.76670 -0.63742 0.269177 0.136308
24.0050 9.9430 -37.8030 -0.07757 -0.86299 -0.49923 0.792297 0.127652
24.0050 9.9430 -37.8030 -0.29400 -0.05849 -0.95401 0.259970 0.093744
24.0050 9.9430 -37.8030 0.22266 -0.73762 -0.63745 0.259970 0.093744
18.3720 18.3720 -37.8030 -0.82060 0.27470 -0.50115 0.533788 0.092937
18.3720 18.3720 -37.8030 -0.59619 0.48801 -0.63750 0.233752 0.057661
18.3720 18.3720 -37.8030 -0.16657 -0.24930 -0.95400 0.233752 0.057661
9.9430 24.0050 -37.8030 0.67905 -0.36419 -0.63738 0.194513 0.033551
9.9430 24.0050 -37.8030 -0.16654 -0.24921 -0.95402 0.194513 0.033551
9.9430 24.0050 -37.8030 0.55538 -0.66498 -0.49935 0.990700 0.251416
0.0000 25.9830 -37.8030 -0.76670 -0.07654 -0.63742 0.148227 0.025084
0.0000 25.9830 -37.8030 0.05848 -0.29398 -0.95402 0.148227 0.025084
0.0000 25.9830 -37.8030 -0.77454 -0.38590 -0.50118 0.910303 0.111860
-9.9430 24.0050 -37.8030 0.05849 -0.29400 -0.95401 0.101942 0.033551
-9.9430 24.0050 -37.8030 0.73762 0.22266 -0.63745 0.101942 0.033551
-9.9430 24.0050 -37.8030 0.86299 -0.07757 -0.49923 0.955286 0.251416
-18.3720 18.3720 -37.8030 -0.48801 -0.59619 -0.63750 0.062703 0.057661
-18.3720 18.3720 -37.8030 0.24930 -0.16657 -0.95400 0.062703 0.057661
-18.3720 18.3720 -37.8030 -0.27470 -0.82060 -0.50115 0.617356 0.092937
-24.0050 9.9430 -37.8030 0.24921 -0.16654 -0.95402 0.036484 0.093744
-24.0050 9.9430 -37.8030 0.66498 0.55538 -0.49935 0.989579 0.181986
-24.0050 9.9430 -37.8030 0.36419 0.67905 -0.63738 0.036484 0.093744
-25.9830 0.0000 -37.8030 0.07654 -0.76670 -0.63742 0.027278 0.136308
-25.9830 0.0000 -37.8030 0.38590 -0.77454 -0.50118 0.953808 0.146575
-25.9830 0.0000 -37.8030 0.29398 0.05848 -0.95402 0.027278 0.136308
-24.0050 -9.9430 -37.8030 0.29400 0.05849 -0.95401 0.036484 0.178871
-24.0050 -9.9430 -37.8030 -0.22266 0.73762 -0.63745 0.036484 0.178871
-24.0050 -9.9430 -37.8030 0.07757 0.86299 -0.49923 0.747671 0.127652
-18.3720 -18.3720 -37.8030 0.59619 -0.48801 -0.63750 0.062703 0.214955
-18.3720 -18.3720 -37.8030 0.16657 0.24930 -0.95400 0.062703 0.214955
-18.3720 -18.3720 -37.8030 0.82060 -0.27470 -0.50115 0.575572 0.092937
-9.9430 -24.0050 -37.8030 0.16654 0.24921 -0.95402 0.101942 0.239065
-9.9430 -24.0050 -37.8030 -0.55538 0.66498 -0.49935 0.989579 0.216701
-9.9430 -24.0050 -37.8030 -0.67905 0.36419 -0.63738 0.101942 0.239065
-0.0000 -25.9830 -37.8030 0.76670 0.07654 -0.63742 0.148227 0.247531
-0.0000 -25.9830 -37.8030 0.77454 0.38590 -0.50118 0.929261 0.181986
-0.0000 -25.9830 -37.8030 -0.05848 0.29398 -0.95402 0.148227 0.247531
9.9430 -24.0050 -37.8030 -0.86299 0.07757 -0.49923 0.935207 0.146575
9.9430 -24.0050 -37.8030 -0.05849 0.29400 -0.95401 0.194513 0.239065
9.9430 -24.0050 -37.8030 -0.73762 -0.22266 -0.63745 0.194513 0.239065
18.3720 -18.3720 -37.8030 -0.24930 0.16657 -0.95400 0.233752 0.214955
18.3720 -18.3720 -37.8030 0.27470 0.82060 -0.50115 0.953808 0.111860
18.3720 -18.3720 -37.8030 0.48801 0.59619 -0.63750 0.233752 0.214955
24.0050 -9.9430 -37.8030 -0.24921 0.16654 -0.95402 0.259970 0.178871
24.0050 -9.9430 -37.8030 -0.36419 -0.67905 -0.63738 0.259970 0.178871
24.0050 -9.9430 -37.8030 -0.66498 -0.55538 -0.49935 0.416497 0.128097
21.5050 0.0000 -34.1990 -0.38419 0.79027 -0.47736 0.950103 0.229348
21.5050 0.0000 -34.1990 -0.36731 -0.07306 -0.92723 0.248336 0.136308
21.5050 0.0000 -34.1990 -0.00170 0.77806 -0.62819 0.248336 0.136308
19.8680 8.2300 -34.1990 0.29801 -0.71941 -0.62741 0.240715 0.101079
19.8680 8.2300 -34.1990 -0.04939 -0.86997 -0.49063 0.773042 0.140299
19.8680 8.2300 -34.1990 -0.36731 -0.07307 -0.92722 0.240715 0.101079
15.2070 15.2070 -34.1990 -0.55131 0.54890 -0.62831 0.219015 0.071213
15.2070 15.2070 -34.1990 -0.20811 -0.31152 -0.92717 0.219015 0.071213
15.2070 15.2070 -34.1990 -0.83054 0.28707 -0.47727 0.548525 0.105584
8.2300 19.8680 -34.1990 0.71922 -0.29793 -0.62767 0.186537 0.051257
8.2300 19.8680 -34.1990 -0.20810 -0.31142 -0.92721 0.186537 0.051257
8.2300 19.8680 -34.1990 0.58007 -0.65009 -0.49081 0.982724 0.264063
0.0000 21.5050 -34.1990 0.07306 -0.36731 -0.92723 0.148227 0.044250
0.0000 21.5050 -34.1990 -0.77806 -0.00170 -0.62819 0.148227 0.044250
0.0000 21.5050 -34.1990 -0.79027 -0.38419 -0.47736 0.931144 0.124507
-8.2300 19.8680 -34.1990 0.71941 0.29801 -0.62741 0.109918 0.051257
-8.2300 19.8680 -34.1990 0.07307 -0.36731 -0.92722 0.109918 0.051257
-8.2300 19.8680 -34.1990 0.86997 -0.04939 -0.49063 0.936031 0.264063
-15.2070 15.2070 -34.1990 -0.28707 -0.83054 -0.47727 0.632093 0.105584
-15.2070 15.2070 -34.1990 -0.54890 -0.55131 -0.62831 0.077440 0.071213
-15.2070 15.2070 -34.1990 0.31152 -0.20811 -0.92717 0.077440 0.071213
-19.8680 8.2300 -34.1990 0.31142 -0.20810 -0.92721 0.055739 0.101079
-19.8680 8.2300 -34.1990 0.65009 0.58007 -0.49081 0.981603 0.194632
-19.8680 8.2300 -34.1990 0.29793 0.71922 -0.62767 0.055739 0.101079
-21.5050 0.0000 -34.1990 0.36731 0.07306 -0.92723 0.048119 0.136308
-21.5050 0.0000 -34.1990 0.00170 -0.77806 -0.62819 0.048119 0.136308
-21.5050 0.0000 -34.1990 0.38419 -0.79027 -0.47736 0.974649 0.159222
-19.8680 -8.2300 -34.1990 0.36731 0.07307 -0.92722 0.055739 0.171537
-19.8680 -8.2300 -34.1990 0.04939 0.86997 -0.49063 0.728416 0.140299
-19.8680 -8.2300 -34.1990 -0.29801 0.71941 -0.62741 0.055739 0.171537
-15.2070 -15.2070 -34.1990 0.83054 -0.28707 -0.47727 0.590309 0.105584
-15.2070 -15.2070 -34.1990 0.55131 -0.54890 -0.62831 0.077440 0.201403
-15.2070 -15.2070 -34.1990 0.20811 0.31152 -0.92717 0.077440 0.201403
-8.2300 -19.8680 -34.1990 0.20810 0.31142 -0.92721 0.109918 0.221358
-8.2300 -19.8680 -34.1990 -0.71922 0.29793 -0.62767 0.109918 0.221358
-8.2300 -19.8680 -34.1990 -0.58007 0.65009 -0.49081 0.981603 0.229348
-0.0000 -21.5050 -34.1990 -0.07306 0.36731 -0.92723 0.148227 0.228366
-0.0000 -21.5050 -34.1990 0.79027 0.38419 -0.47736 0.950103 0.194632
-0.0000 -21.5050 -34.1990 0.77806 0.00170 -0.62819 0.148227 0.228366
8.2300 -19.8680 -34.1990 -0.07307 0.36731 -0.92722 0.186537 0.221358
8.2300 -19.8680 -34.1990 -0.71941 -0.29801 -0.62741 0.186537 0.221358
8.2300 -19.8680 -34.1990 -0.86997 0.04939 -0.49063 0.915952 0.159222
15.2070 -15.2070 -34.1990 -0.31152 0.20811 -0.92717 0.219015 0.201403
15.2070 -15.2070 -34.1990 0.28707 0.83054 -0.47727 0.968545 0.124507
15.2070 -15.2070 -34.1990 0.54890 0.55131 -0.62831 0.219015 0.201403
19.8680 -8.2300 -34.1990 -0.31142 0.20810 -0.92721 0.240715 0.171537
19.8680 -8.2300 -34.1990 -0.65009 -0.58007 -0.49081 0.408522 0.140743
19.8680 -8.2300 -34.1990 -0.29793 -0.71922 -0.62767 0.240715 0.171537
7.6770 5.1290 -36.3960 0.29282 -0.71177 -0.63847 0.183963 0.114350
7.6770 5.1290 -36.3960 0.00704 0.00471 -0.99996 0.183963 0.114350
7.6770 5.1290 -36.3960 -0.54718 0.54696 -0.63359 0.183963 0.114350
15.7870 13.3920 -36.3000 -0.82674 0.28226 -0.48665 0.556971 0.098209
15.7870 13.3920 -36.3000 -0.44664 0.10803 -0.88817 0.221716 0.078980
1.8010 9.0550 -36.3960 -0.77379 -0.00016 -0.63344 0.156612 0.097544
1.8010 9.0550 -36.3960 0.00165 0.00831 -0.99996 0.156612 0.097544
1.8010 9.0550 -36.3960 0.71024 -0.29621 -0.63860 0.156612 0.097544
1.6930 20.6330 -36.3000 -0.39226 -0.23946 -0.88814 0.156110 0.047985
1.6930 20.6330 -36.3000 -0.78420 -0.38489 -0.48671 0.935207 0.117132
-10.9350 22.0690 -39.2170 0.86598 -0.06588 -0.49571 0.946277 0.246453
-10.9350 22.0690 -39.2170 0.50589 -0.25087 -0.82531 0.097324 0.041835
-11.9840 24.3250 -39.3110 -0.33274 0.45521 -0.82587 0.092441 0.032177
-17.8880 20.3810 -39.3110 -0.34892 0.47619 -0.80715 0.064959 0.049064
-23.3380 7.8730 -39.2170 0.65887 0.56569 -0.49586 0.979943 0.177022
-23.3380 7.8730 -39.2170 0.53517 0.18048 -0.82524 0.039589 0.102605
-25.6750 8.7270 -39.3110 -0.55687 0.08684 -0.82604 0.028711 0.098951
-27.0600 1.7630 -39.3110 -0.58347 0.08986 -0.80715 0.022263 0.128762
22.0690 10.9350 -39.2170 -0.25087 -0.50589 -0.82531 0.250961 0.089497
22.0690 10.9350 -39.2170 -0.06588 -0.86598 -0.49571 0.783288 0.122689
24.3250 11.9840 -39.3110 0.45521 0.33274 -0.82587 0.261463 0.085008
20.3810 17.8880 -39.3110 0.47619 0.34892 -0.80715 0.243100 0.059736
-5.1290 7.6770 -36.3960 -0.00471 0.00704 -0.99996 0.124350 0.103446
-5.1290 7.6770 -36.3960 0.71177 0.29282 -0.63847 0.124350 0.103446
-5.1290 7.6770 -36.3960 -0.54696 -0.54718 -0.63359 0.124350 0.103446
-13.3920 15.7870 -36.3000 -0.10803 -0.44664 -0.88817 0.085886 0.068729
-13.3920 15.7870 -36.3000 -0.28226 -0.82674 -0.48665 0.640540 0.098209
7.8730 23.3380 -39.2170 0.18048 -0.53517 -0.82524 0.184877 0.036405
7.8730 23.3380 -39.2170 0.56569 -0.65887 -0.49586 0.981064 0.246453
8.7270 25.6750 -39.3110 0.08684 0.55687 -0.82604 0.188851 0.026402
1.7630 27.0600 -39.3110 0.08986 0.58347 -0.80715 0.156433 0.020472
23.3380 -7.8730 -39.2170 -0.53517 -0.18048 -0.82524 0.256866 0.170010
23.3380 -7.8730 -39.2170 -0.65887 -0.56569 -0.49586 0.406861 0.123133
25.6750 -8.7270 -39.3110 0.55687 -0.08684 -0.82604 0.267744 0.173664
27.0600 -1.7630 -39.3110 0.58347 -0.08986 -0.80715 0.274192 0.143854
-22.0690 -10.9350 -39.2170 0.06588 0.86598 -0.49571 0.738662 0.122689
-22.0690 -10.9350 -39.2170 0.25087 0.50589 -0.82531 0.045493 0.183118
-24.3250 -11.9840 -39.3110 -0.45521 -0.33274 -0.82587 0.034991 0.187608
-20.3810 -17.8880 -39.3110 -0.47619 -0.34892 -0.80715 0.053354 0.212880
-9.0550 1.8010 -36.3960 0.00016 -0.77379 -0.63344 0.106074 0.128597
-9.0550 1.8010 -36.3960 0.29621 0.71024 -0.63860 0.106074 0.128597
-9.0550 1.8010 -36.3960 -0.00831 0.00165 -0.99996 0.106074 0.128597
-20.6330 1.6930 -36.3000 0.23946 -0.39226 -0.88814 0.052182 0.129059
-20.6330 1.6930 -36.3000 0.38489 -0.78420 -0.48671 0.978712 0.151847
-7.8730 -23.3380 -39.2170 -0.18048 0.53517 -0.82524 0.111578 0.236210
-7.8730 -23.3380 -39.2170 -0.56569 0.65887 -0.49586 0.979943 0.211737
-8.7270 -25.6750 -39.3110 -0.08684 -0.55687 -0.82604 0.107604 0.246213
-1.7630 -27.0600 -39.3110 -0.08986 -0.58347 -0.80715 0.140021 0.252143
-7.6770 -5.1290 -36.3960 -0.00704 -0.00471 -0.99996 0.112492 0.158265
-7.6770 -5.1290 -36.3960 0.54718 -0.54696 -0.63359 0.112492 0.158265
-7.6770 -5.1290 -36.3960 -0.29282 0.71177 -0.63847 0.112492 0.158265
-15.7870 -13.3920 -36.3000 0.82674 -0.28226 -0.48665 0.598755 0.098209
-15.7870 -13.3920 -36.3000 0.44664 -0.10803 -0.88817 0.074739 0.193635
-1.8010 -9.0550 -36.3960 0.77379 0.00016 -0.63344 0.139843 0.175071
-1.8010 -9.0550 -36.3960 -0.00165 -0.00831 -0.99996 0.139843 0.175071
-1.8010 -9.0550 -36.3960 -0.71024 0.29621 -0.63860 0.139843 0.175071
-1.6930 -20.6330 -36.3000 0.78420 0.38489 -0.48671 0.954165 0.187258
-1.6930 -20.6330 -36.3000 0.39226 0.23946 -0.88814 0.140345 0.224630
5.1290 -7.6770 -36.3960 0.54696 0.54718 -0.63359 0.172105 0.169169
5.1290 -7.6770 -36.3960 -0.71177 -0.29282 -0.63847 0.172105 0.169169
5.1290 -7.6770 -36.3960 0.00471 -0.00704 -0.99996 0.172105 0.169169
13.3920 -15.7870 -36.3000 0.28226 0.82674 -0.48665 0.976991 0.117132
13.3920 -15.7870 -36.3000 0.10803 0.44664 -0.88817 0.210568 0.203886
9.0550 -1.8010 -36.3960 0.00831 -0.00165 -0.99996 0.190380 0.144018
9.0550 -1.8010 -36.3960 -0.00016 0.77379 -0.63344 0.190380 0.144018
9.0550 -1.8010 -36.3960 -0.29621 -0.71024 -0.63860 0.190380 0.144018
20.6330 -1.6930 -36.3000 -0.23946 0.39226 -0.88814 0.244273 0.143556
20.6330 -1.6930 -36.3000 -0.38489 0.78420 -0.48671 0.954165 0.221973
10.9350 -22.0690 -39.2170 -0.86598 0.06588 -0.49571 0.926198 0.141612
10.9350 -22.0690 -39.2170 -0.50589 0.25087 -0.82531 0.199131 0.230780
11.9840 -24.3250 -39.3110 0.33274 -0.45521 -0.82587 0.204013 0.240438
17.8880 -20.3810 -39.3110 0.34892 -0.47619 -0.80715 0.231495 0.223551
19.7100 -6.3310 -36.3000 -0.37027 -0.27052 -0.88866 0.239979 0.163410
19.7100 -6.3310 -36.3000 -0.64271 -0.59177 -0.48654 0.399684 0.133369
24.5740 -1.6570 -39.2170 -0.40550 0.34027 -0.84840 0.262621 0.143402
24.5740 -1.6570 -39.2170 -0.38663 0.76645 -0.51290 0.935817 0.211737
18.4140 9.4600 -36.3000 -0.03581 -0.87304 -0.48633 0.766272 0.132924
18.4140 9.4600 -36.3000 -0.07049 -0.45319 -0.88862 0.233946 0.095811
18.5480 16.2050 -39.2170 -0.81539 0.26845 -0.51290 0.543878 0.087973
18.5480 16.2050 -39.2170 -0.52730 -0.04609 -0.84843 0.234571 0.066940
6.3310 19.7100 -36.3000 0.27052 -0.37027 -0.88866 0.177700 0.051935
6.3310 19.7100 -36.3000 0.59177 -0.64271 -0.48654 0.973887 0.256688
1.6570 24.5740 -39.2170 -0.76645 -0.38663 -0.51290 0.916859 0.106897
1.6570 24.5740 -39.2170 -0.34027 -0.40550 -0.84840 0.155942 0.031113
-9.4600 18.4140 -36.3000 0.45319 -0.07049 -0.88862 0.104190 0.057482
-9.4600 18.4140 -36.3000 0.87304 -0.03581 -0.48633 0.929261 0.256688
-16.2050 18.5480 -39.2170 0.04609 -0.52730 -0.84843 0.072793 0.056907
-16.2050 18.5480 -39.2170 -0.26845 -0.81539 -0.51290 0.627447 0.087973
-19.7100 6.3310 -36.3000 0.37027 0.27052 -0.88866 0.056476 0.109205
-19.7100 6.3310 -36.3000 0.64271 0.59177 -0.48654 0.972766 0.187258
-24.5740 1.6570 -39.2170 0.40550 -0.34027 -0.84840 0.033833 0.129214
-24.5740 1.6570 -39.2170 0.38663 -0.76645 -0.51290 0.960363 0.141612
-18.4140 -9.4600 -36.3000 0.03581 0.87304 -0.48633 0.721646 0.132924
-18.4140 -9.4600 -36.3000 0.07049 0.45319 -0.88862 0.062509 0.176804
-18.5480 -16.2050 -39.2170 0.52730 0.04609 -0.84843 0.061884 0.205675
-18.5480 -16.2050 -39.2170 0.81539 -0.26845 -0.51290 0.585662 0.087973
-6.3310 -19.7100 -36.3000 -0.59177 0.64271 -0.48654 0.972766 0.221973
-6.3310 -19.7100 -36.3000 -0.27052 0.37027 -0.88866 0.118755 0.220681
-1.6570 -24.5740 -39.2170 0.76645 0.38663 -0.51290 0.935817 0.177022
-1.6570 -24.5740 -39.2170 0.34027 0.40550 -0.84840 0.140513 0.241503
9.4600 -18.4140 -36.3000 -0.45319 0.07049 -0.88862 0.192265 0.215133
9.4600 -18.4140 -36.3000 -0.87304 0.03581 -0.48633 0.909182 0.151847
16.2050 -18.5480 -39.2170 -0.04609 0.52730 -0.84843 0.223661 0.215708
16.2050 -18.5480 -39.2170 0.26845 0.81539 -0.51290 0.963898 0.106897
-29.5230 0.0000 31.4160 -0.99846 0.00001 -0.05551 0.871547 0.524072
-27.2750 -11.2980 31.4160 -0.92247 -0.38207 -0.05550 0.924139 0.524072
-20.8760 -20.8760 31.4160 -0.83023 -0.55476 -0.05445 0.968725 0.524072
-20.8760 -20.8760 31.4160 -0.55475 -0.83023 -0.05445 0.276343 0.524072
-11.2980 -27.2750 31.4160 -0.38206 -0.92247 -0.05549 0.320928 0.524072
-0.0000 -29.5230 31.4160 -0.00001 -0.99846 -0.05551 0.373520 0.524072
11.2980 -27.2750 31.4160 0.38207 -0.92247 -0.05550 0.426112 0.524072
20.8760 -20.8760 31.4160 0.83023 -0.55475 -0.05445 0.525357 0.524072
20.8760 -20.8760 31.4160 0.55476 -0.83023 -0.05445 0.470698 0.524072
27.2750 -11.2980 31.4160 0.92247 -0.38206 -0.05549 0.569942 0.524072
29.5230 0.0000 31.4160 0.99846 -0.00001 -0.05551 0.622534 0.524072
27.2750 11.2980 31.4160 0.92247 0.38207 -0.05550 0.675126 0.524072
20.8760 20.8760 31.4160 0.55475 0.83023 -0.05445 0.027330 0.524072
20.8760 20.8760 31.4160 0.83023 0.55476 -0.05445 0.719711 0.524072
11.2980 27.2750 31.4160 0.38206 0.92247 -0.05549 0.071915 0.524072
0.0000 29.5230 31.4160 0.00001 0.99846 -0.05551 0.124507 0.524072
-11.2980 27.2750 31.4160 -0.38207 0.92247 -0.05550 0.177099 0.524072
-20.8760 20.8760 31.4160 -0.55476 0.83023 -0.05445 0.221684 0.524072
-20.8760 20.8760 31.4160 -0.83023 0.55475 -0.05445 0.774370 0.524072
-27.2750 11.2980 31.4160 -0.92247 0.38206 -0.05549 0.818955 0.524072
23.1690 23.1690 2.0310 0.82921 0.55415 0.07300 0.730388 0.420954
23.1690 23.1690 2.0310 0.55416 0.82921 0.07299 0.016652 0.420954
12.5390 30.2720 2.0310 0.38160 0.92133 0.07441 0.066136 0.420954
0.0000 32.7670 2.0310 -0.00001 0.99723 0.07441 0.124507 0.420954
-12.5390 30.2720 2.0310 -0.38160 0.92133 0.07440 0.182877 0.420954
-23.1690 23.1690 2.0310 -0.82921 0.55416 0.07299 0.763693 0.420954
-23.1690 23.1690 2.0310 -0.55415 0.82921 0.07300 0.232361 0.420954
-30.2720 12.5390 2.0310 -0.92133 0.38160 0.07441 0.813177 0.420954
-32.7670 0.0000 2.0310 -0.99723 -0.00001 0.07441 0.871547 0.420954
-30.2720 -12.5390 2.0310 -0.92133 -0.38160 0.07440 0.929918 0.420954
-23.1690 -23.1690 2.0310 -0.82921 -0.55415 0.07300 0.979402 0.420954
-23.1690 -23.1690 2.0310 -0.55416 -0.82921 0.07299 0.265666 0.420954
-12.5390 -30.2720 2.0310 -0.38160 -0.92133 0.07441 0.315150 0.420954
-0.0000 -32.7670 2.0310 0.00001 -0.99723 0.07441 0.373520 0.420954
12.5390 -30.2720 2.0310 0.38160 -0.92133 0.07440 0.431891 0.420954
23.1690 -23.1690 2.0310 0.55415 -0.82921 0.07300 0.481375 0.420954
23.1690 -23.1690 2.0310 0.82921 -0.55416 0.07299 0.514679 0.420954
30.2720 -12.5390 2.0310 0.92133 -0.38160 0.07441 0.564163 0.420954
32.7670 0.0000 2.0310 0.99723 0.00001 0.07441 0.622534 0.420954
30.2720 12.5390 2.0310 0.92133 0.38160 0.07440 0.680904 0.420954
13.3940 -32.3360 66.0410 0.38190 -0.92203 -0.06337 0.435870 0.645575
24.7490 -24.7490 66.0410 0.82987 -0.55448 -0.06215 0.507327 0.645575
24.7490 -24.7490 66.0410 0.55449 -0.82987 -0.06214 0.488727 0.645575
32.3360 -13.3940 66.0410 0.92203 -0.38191 -0.06337 0.560185 0.645575
35.0000 0.0000 66.0410 0.99799 0.00000 -0.06336 0.622534 0.645575
32.3360 13.3940 66.0410 0.92203 0.38190 -0.06337 0.684883 0.645575
24.7490 24.7490 66.0410 0.55448 0.82987 -0.06215 0.009300 0.645575
24.7490 24.7490 66.0410 0.82987 0.55449 -0.06214 0.737740 0.645575
13.3940 32.3360 66.0410 0.38191 0.92203 -0.06337 0.062158 0.645575
0.0000 35.0000 66.0410 -0.00000 0.99799 -0.06336 0.124507 0.645575
-13.3940 32.3360 66.0410 -0.38190 0.92203 -0.06337 0.186856 0.645575
-24.7490 24.7490 66.0410 -0.55449 0.82987 -0.06214 0.239713 0.645575
-24.7490 24.7490 66.0410 -0.82987 0.55448 -0.06215 0.756341 0.645575
-32.3360 13.3940 66.0410 -0.92203 0.38191 -0.06337 0.809198 0.645575
-35.0000 0.0000 66.0410 -0.99799 -0.00000 -0.06336 0.871547 0.645575
-32.3360 -13.3940 66.0410 -0.92203 -0.38190 -0.06337 0.933897 0.645575
-24.7490 -24.7490 66.0410 -0.82987 -0.55449 -0.06214 0.986754 0.645575
-24.7490 -24.7490 66.0410 -0.55448 -0.82987 -0.06215 0.258314 0.645575
-13.3940 -32.3360 66.0410 -0.38191 -0.92203 -0.06337 0.311171 0.645575
-0.0000 -35.0000 66.0410 0.00000 -0.99799 -0.06336 0.373520 0.645575
-12.2160 -29.4930 116.5400 -0.37055 -0.89460 0.24978 0.316653 0.822786
-0.0000 -31.9230 116.5400 0.00000 -0.96830 0.24979 0.373520 0.822786
12.2160 -29.4930 116.5400 0.37054 -0.89460 0.24978 0.430388 0.822786
22.5730 -22.5730 116.5400 0.53859 -0.80607 0.24530 0.478598 0.822786
22.5730 -22.5730 116.5400 0.80608 -0.53858 0.24531 0.517456 0.822786
29.4930 -12.2160 116.5400 0.89460 -0.37055 0.24978 0.565666 0.822786
31.9230 0.0000 116.5400 0.96830 0.00000 0.24979 0.622534 0.822786
29.4930 12.2160 116.5400 0.89460 0.37054 0.24978 0.679402 0.822786
22.5730 22.5730 116.5400 0.53858 0.80608 0.24531 0.019429 0.822786
22.5730 22.5730 116.5400 0.80607 0.53859 0.24530 0.727612 0.822786
12.2160 29.4930 116.5400 0.37055 0.89460 0.24978 0.067639 0.822786
0.0000 31.9230 116.5400 -0.00000 0.96830 0.24979 0.124507 0.822786
-12.2160 29.4930 116.5400 -0.37054 0.89460 0.24978 0.181374 0.822786
-22.5730 22.5730 116.5400 -0.53859 0.80607 0.24530 0.229584 0.822786
-22.5730 22.5730 116.5400 -0.80608 0.53858 0.24531 0.766470 0.822786
-29.4930 12.2160 116.5400 -0.89460 0.37055 0.24978 0.814680 0.822786
-31.9230 0.0000 116.5400 -0.96830 -0.00000 0.24979 0.871547 0.822786
-29.4930 -12.2160 116.5400 -0.89460 -0.37054 0.24978 0.928415 0.822786
-22.5730 -22.5730 116.5400 -0.80607 -0.53859 0.24530 0.976625 0.822786
-22.5730 -22.5730 116.5400 -0.53858 -0.80608 0.24531 0.268443 0.822786
11.9800 0.0000 157.4990 0.99345 -0.00000 0.11424 0.622534 0.966522
11.0680 4.5840 157.4990 0.91783 0.38016 0.11426 0.643874 0.966522
8.4710 8.4710 157.4990 0.82625 0.55204 0.11212 0.661966 0.966522
8.4710 8.4710 157.4990 0.55202 0.82626 0.11210 0.085075 0.966522
4.5840 11.0680 157.4990 0.38018 0.91783 0.11424 0.103166 0.966522
0.0000 11.9800 157.4990 0.00000 0.99345 0.11424 0.124507 0.966522
-4.5840 11.0680 157.4990 -0.38016 0.91783 0.11426 0.145847 0.966522
-8.4710 8.4710 157.4990 -0.82626 0.55202 0.11210 0.832115 0.966522
-8.4710 8.4710 157.4990 -0.55204 0.82625 0.11212 0.163939 0.966522
-11.0680 4.5840 157.4990 -0.91783 0.38018 0.11424 0.850207 0.966522
-11.9800 0.0000 157.4990 -0.99345 0.00000 0.11424 0.871547 0.966522
-11.0680 -4.5840 157.4990 -0.91783 -0.38016 0.11426 0.892888 0.966522
-8.4710 -8.4710 157.4990 -0.82625 -0.55204 0.11212 0.910979 0.966522
-8.4710 -8.4710 157.4990 -0.55202 -0.82626 0.11210 0.334088 0.966522
-4.5840 -11.0680 157.4990 -0.38018 -0.91783 0.11424 0.352180 0.966522
0.0000 -11.9800 157.4990 -0.00000 -0.99345 0.11424 0.373520 0.966522
4.5840 -11.0680 157.4990 0.38016 -0.91783 0.11426 0.394861 0.966522
8.4710 -8.4710 157.4990 0.82626 -0.55202 0.11210 0.583102 0.966522
8.4710 -8.4710 157.4990 0.55204 -0.82625 0.11212 0.412952 0.966522
11.0680 -4.5840 157.4990 0.91783 -0.38018 0.11424 0.601193 0.966522
11.9800 0.0000 162.3760 0.95967 0.00002 -0.28112 0.622534 0.983634
11.0680 4.5840 162.3760 0.88658 0.36713 -0.28142 0.643874 0.983634
8.4710 8.4710 162.3760 0.79913 0.53401 -0.27609 0.661966 0.983634
8.4710 8.4710 162.3760 0.53395 0.79918 -0.27604 0.085075 0.983634
4.5840 11.0680 162.3760 0.36719 0.88656 -0.28141 0.103166 0.983634
-0.0000 11.9800 162.3760 -0.00002 0.95967 -0.28112 0.124507 0.983634
-4.5840 11.0680 162.3760 -0.36713 0.88658 -0.28142 0.145847 0.983634
-8.4710 8.4710 162.3760 -0.79918 0.53395 -0.27604 0.832115 0.983634
-8.4710 8.4710 162.3760 -0.53401 0.79913 -0.27609 0.163939 0.983634
-11.0680 4.5840 162.3760 -0.88656 0.36719 -0.28141 0.850207 0.983634
-11.9800 0.0000 162.3760 -0.95967 -0.00002 -0.28112 0.871547 0.983634
-11.0680 -4.5840 162.3760 -0.88658 -0.36713 -0.28142 0.892888 0.983634
-8.4710 -8.4710 162.3760 -0.53395 -0.79918 -0.27604 0.334088 0.983634
-8.4710 -8.4710 162.3760 -0.79913 -0.53401 -0.27609 0.910979 0.983634
-4.5840 -11.0680 162.3760 -0.36719 -0.88656 -0.28141 0.352180 0.983634
0.0000 -11.9800 162.3760 0.00002 -0.95967 -0.28112 0.373520 0.983634
4.5840 -11.0680 162.3760 0.36713 -0.88658 -0.28142 0.394861 0.983634
8.4710 -8.4710 162.3760 0.79918 -0.53395 -0.27604 0.583102 0.983634
8.4710 -8.4710 162.3760 0.53401 -0.79913 -0.27609 0.412952 0.983634
11.0680 -4.5840 162.3760 0.88656 -0.36719 -0.28141 0.601193 0.983634
12.6230 0.0000 163.7520 0.99276 0.00002 -0.12013 0.622534 0.988464
11.6620 4.8310 163.7520 0.91712 0.37999 -0.12042 0.645021 0.988464
8.9260 8.9260 163.7520 0.55170 0.82559 -0.11848 0.082956 0.988464
8.9260 8.9260 163.7520 0.82562 0.55163 -0.11854 0.664084 0.988464
4.8310 11.6620 163.7520 0.37997 0.91713 -0.12042 0.102020 0.988464
-0.0000 12.6230 163.7520 -0.00002 0.99276 -0.12013 0.124507 0.988464
-4.8310 11.6620 163.7520 -0.37999 0.91712 -0.12042 0.146994 0.988464
-8.9260 8.9260 163.7520 -0.82559 0.55170 -0.11848 0.829997 0.988464
-8.9260 8.9260 163.7520 -0.55163 0.82562 -0.11854 0.166057 0.988464
-11.6620 4.8310 163.7520 -0.91713 0.37997 -0.12042 0.849060 0.988464
-12.6230 0.0000 163.7520 -0.99276 -0.00002 -0.12013 0.871547 0.988464
-11.6620 -4.8310 163.7520 -0.91712 -0.37999 -0.12042 0.894034 0.988464
-8.9260 -8.9260 163.7520 -0.55170 -0.82559 -0.11848 0.331970 0.988464
-8.9260 -8.9260 163.7520 -0.82562 -0.55163 -0.11854 0.913098 0.988464
-4.8310 -11.6620 163.7520 -0.37997 -0.91713 -0.12042 0.351033 0.988464
0.0000 -12.6230 163.7520 0.00002 -0.99276 -0.12013 0.373520 0.988464
4.8310 -11.6620 163.7520 0.37999 -0.91712 -0.12042 0.396007 0.988464
8.9260 -8.9260 163.7520 0.82559 -0.55170 -0.11848 0.580983 0.988464
8.9260 -8.9260 163.7520 0.55163 -0.82562 -0.11854 0.415071 0.988464
11.6620 -4.8310 163.7520 0.91713 -0.37997 -0.12042 0.600047 0.988464
12.4060 0.0000 164.6020 0.00000 0.00000 1.00000 0.421258 0.210956
12.4060 0.0000 164.6020 0.89678 -0.00001 0.44248 0.622534 0.991448
11.4620 4.7480 164.6020 0.82844 0.34329 0.44254 0.644634 0.991448
11.4620 4.7480 164.6020 0.00000 0.00000 1.00000 0.416862 0.231279
8.7720 8.7720 164.6020 0.74750 0.49969 0.43767 0.663370 0.991448
8.7720 8.7720 164.6020 0.00000 0.00000 1.00000 0.404343 0.248508
8.7720 8.7720 164.6020 0.49956 0.74767 0.43753 0.083670 0.991448
4.7480 11.4620 164.6020 0.00000 0.00000 1.00000 0.385607 0.260020
4.7480 11.4620 164.6020 0.34339 0.82843 0.44247 0.102406 0.991448
-0.0000 12.4060 164.6020 0.00000 0.00000 1.00000 0.363506 0.264063
-0.0000 12.4060 164.6020 0.00001 0.89678 0.44248 0.124507 0.991448
-4.7480 11.4620 164.6020 -0.34329 0.82844 0.44254 0.146607 0.991448
-4.7480 11.4620 164.6020 0.00000 0.00000 1.00000 0.341406 0.260020
-8.7720 8.7720 164.6020 -0.49969 0.74750 0.43767 0.165343 0.991448
-8.7720 8.7720 164.6020 -0.74767 0.49956 0.43753 0.830711 0.991448
-8.7720 8.7720 164.6020 0.00000 0.00000 1.00000 0.322670 0.248508
-11.4620 4.7480 164.6020 0.00000 0.00000 1.00000 0.310151 0.231279
-11.4620 4.7480 164.6020 -0.82843 0.34339 0.44247 0.849447 0.991448
-12.4060 -0.0000 164.6020 -0.89678 0.00001 0.44248 0.871547 0.991448
-12.4060 -0.0000 164.6020 0.00000 0.00000 1.00000 0.305755 0.210956
-11.4620 -4.7480 164.6020 0.00000 0.00000 1.00000 0.310151 0.190632
-11.4620 -4.7480 164.6020 -0.82844 -0.34329 0.44254 0.893648 0.991448
-8.7720 -8.7720 164.6020 -0.74750 -0.49969 0.43767 0.912384 0.991448
-8.7720 -8.7720 164.6020 0.00000 0.00000 1.00000 0.322670 0.173403
-8.7720 -8.7720 164.6020 -0.49956 -0.74767 0.43753 0.332684 0.991448
-4.7480 -11.4620 164.6020 -0.34339 -0.82843 0.44247 0.351420 0.991448
-4.7480 -11.4620 164.6020 0.00000 0.00000 1.00000 0.341406 0.161891
0.0000 -12.4060 164.6020 -0.00001 -0.89678 0.44248 0.373520 0.991448
0.0000 -12.4060 164.6020 0.00000 0.00000 1.00000 0.363506 0.157848
4.7480 -11.4620 164.6020 0.34329 -0.82844 0.44254 0.395621 0.991448
4.7480 -11.4620 164.6020 0.00000 0.00000 1.00000 0.385607 0.161891
8.7720 -8.7720 164.6020 0.00000 0.00000 1.00000 0.404343 0.173403
8.7720 -8.7720 164.6020 0.74767 -0.49956 0.43753 0.581698 0.991448
8.7720 -8.7720 164.6020 0.49969 -0.74750 0.43767 0.414357 0.991448
11.4620 -4.7480 164.6020 0.00000 0.00000 1.00000 0.416862 0.190632
11.4620 -4.7480 164.6020 0.82843 -0.34339 0.44247 0.600433 0.991448
11.4430 0.0000 164.6020 1.00000 0.00000 0.00000 0.852917 0.107387
11.4430 0.0000 164.6020 0.00000 0.00000 1.00000 0.416772 0.210956
10.5720 4.3790 164.6020 0.92386 0.38274 0.00000 0.873301 0.107387
10.5720 4.3790 164.6020 0.00000 0.00000 1.00000 0.412717 0.229700
8.0910 8.0910 164.6020 0.55568 0.83140 0.00000 0.305755 0.132319
8.0910 8.0910 164.6020 0.83140 0.55568 0.00000 0.890581 0.107387
8.0910 8.0910 164.6020 0.00000 0.00000 1.00000 0.401171 0.245591
4.3790 10.5720 164.6020 0.00000 0.00000 1.00000 0.383890 0.256209
4.3790 10.5720 164.6020 0.38274 0.92386 0.00000 0.323036 0.132319
-0.0000 11.4430 164.6020 -0.00000 1.00000 0.00000 0.343419 0.132319
-0.0000 11.4430 164.6020 0.00000 0.00000 1.00000 0.363506 0.259938
-4.3790 10.5720 164.6020 0.00000 0.00000 1.00000 0.343123 0.256209
-4.3790 10.5720 164.6020 -0.38274 0.92386 0.00000 0.363803 0.132319
-8.0910 8.0910 164.6020 0.00000 0.00000 1.00000 0.325842 0.245591
-8.0910 8.0910 164.6020 -0.55568 0.83140 0.00000 0.381084 0.132319
-8.0910 8.0910 164.6020 -0.83140 0.55568 0.00000 0.439858 0.097159
-10.5720 4.3790 164.6020 0.00000 0.00000 1.00000 0.314296 0.229700
-10.5720 4.3790 164.6020 -0.92386 0.38274 0.00000 0.457139 0.097159
-11.4430 -0.0000 164.6020 -1.00000 -0.00000 0.00000 0.477523 0.097159
-11.4430 -0.0000 164.6020 0.00000 0.00000 1.00000 0.310241 0.210956
-10.5720 -4.3790 164.6020 0.00000 0.00000 1.00000 0.314296 0.192211
-10.5720 -4.3790 164.6020 -0.92386 -0.38274 0.00000 0.497906 0.097159
-8.0910 -8.0910 164.6020 -0.55568 -0.83140 0.00000 0.305755 0.106789
-8.0910 -8.0910 164.6020 0.00000 0.00000 1.00000 0.325842 0.176320
-8.0910 -8.0910 164.6020 -0.83140 -0.55568 0.00000 0.515187 0.097159
-4.3790 -10.5720 164.6020 -0.38274 -0.92386 0.00000 0.323036 0.106789
-4.3790 -10.5720 164.6020 0.00000 0.00000 1.00000 0.343123 0.165702
0.0000 -11.4430 164.6020 0.00000 -1.00000 0.00000 0.343419 0.106789
0.0000 -11.4430 164.6020 0.00000 0.00000 1.00000 0.363506 0.161974
4.3790 -10.5720 164.6020 0.00000 0.00000 1.00000 0.383890 0.165702
4.3790 -10.5720 164.6020 0.38274 -0.92386 0.00000 0.363803 0.106789
8.0910 -8.0910 164.6020 0.00000 0.00000 1.00000 0.401171 0.176320
8.0910 -8.0910 164.6020 0.83140 -0.55568 0.00000 0.815253 0.107387
8.0910 -8.0910 164.6020 0.55568 -0.83140 0.00000 0.381084 0.106789
10.5720 -4.3790 164.6020 0.00000 0.00000 1.00000 0.412717 0.192211
10.5720 -4.3790 164.6020 0.92386 -0.38274 0.00000 0.832533 0.107387
11.4430 0.0000 175.0000 1.00000 0.00000 0.00000 0.852917 0.159222
11.4430 0.0000 175.0000 0.00000 0.00000 1.00000 0.796652 0.215081
10.5720 4.3790 175.0000 0.00000 0.00000 1.00000 0.792597 0.233825
10.5720 4.3790 175.0000 0.92386 0.38274 0.00000 0.873301 0.159222
8.0910 8.0910 175.0000 0.83140 0.55568 0.00000 0.890581 0.159222
8.0910 8.0910 175.0000 0.00000 0.00000 1.00000 0.781051 0.249716
8.0910 8.0910 175.0000 0.55568 0.83140 0.00000 0.439858 0.148994
4.3790 10.5720 175.0000 0.00000 0.00000 1.00000 0.763770 0.260334
4.3790 10.5720 175.0000 0.38274 0.92386 0.00000 0.457139 0.148994
-0.0000 11.4430 175.0000 0.00000 0.00000 1.00000 0.743387 0.264063
-0.0000 11.4430 175.0000 -0.00000 1.00000 0.00000 0.477523 0.148994
-4.3790 10.5720 175.0000 -0.38274 0.92386 0.00000 0.497906 0.148994
-4.3790 10.5720 175.0000 0.00000 0.00000 1.00000 0.723003 0.260334
-8.0910 8.0910 175.0000 0.00000 0.00000 1.00000 0.705722 0.249716
-8.0910 8.0910 175.0000 -0.83140 0.55568 0.00000 0.627717 0.148994
-8.0910 8.0910 175.0000 -0.55568 0.83140 0.00000 0.515187 0.148994
-10.5720 4.3790 175.0000 0.00000 0.00000 1.00000 0.694176 0.233825
-10.5720 4.3790 175.0000 -0.92386 0.38274 0.00000 0.644998 0.148994
-11.4430 -0.0000 175.0000 -1.00000 -0.00000 0.00000 0.665381 0.148994
-11.4430 -0.0000 175.0000 0.00000 0.00000 1.00000 0.690121 0.215081
-10.5720 -4.3790 175.0000 0.00000 0.00000 1.00000 0.694176 0.196336
-10.5720 -4.3790 175.0000 -0.92386 -0.38274 0.00000 0.685765 0.148994
-8.0910 -8.0910 175.0000 -0.55568 -0.83140 0.00000 0.533788 0.148994
-8.0910 -8.0910 175.0000 -0.83140 -0.55568 0.00000 0.703046 0.148994
-8.0910 -8.0910 175.0000 0.00000 0.00000 1.00000 0.705722 0.180445
-4.3790 -10.5720 175.0000 0.00000 0.00000 1.00000 0.723003 0.169827
-4.3790 -10.5720 175.0000 -0.38274 -0.92386 0.00000 0.551068 0.148994
0.0000 -11.4430 175.0000 0.00000 0.00000 1.00000 0.743387 0.166099
0.0000 -11.4430 175.0000 0.00000 -1.00000 0.00000 0.571452 0.148994
4.3790 -10.5720 175.0000 0.38274 -0.92386 0.00000 0.591836 0.148994
4.3790 -10.5720 175.0000 0.00000 0.00000 1.00000 0.763770 0.169827
8.0910 -8.0910 175.0000 0.55568 -0.83140 0.00000 0.609116 0.148994
8.0910 -8.0910 175.0000 0.00000 0.00000 1.00000 0.781051 0.180445
8.0910 -8.0910 175.0000 0.83140 -0.55568 0.00000 0.815253 0.159222
10.5720 -4.3790 175.0000 0.00000 0.00000 1.00000 0.792597 0.196336
10.5720 -4.3790 175.0000 0.92386 -0.38274 0.00000 0.832533 0.159222
10.2480 0.0000 175.0000 0.00000 0.00000 1.00000 0.791091 0.215081
10.2480 0.0000 175.0000 -1.00000 -0.00000 0.00000 0.810009 0.070929
9.4680 3.9220 175.0000 -0.92385 -0.38276 0.00000 0.791753 0.070929
9.4680 3.9220 175.0000 0.00000 0.00000 1.00000 0.787459 0.231868
7.2460 7.2460 175.0000 0.00000 0.00000 1.00000 0.777118 0.246100
7.2460 7.2460 175.0000 -0.55574 -0.83136 0.00000 0.742269 0.086721
7.2460 7.2460 175.0000 -0.83136 -0.55574 0.00000 0.776277 0.070929
3.9220 9.4680 175.0000 -0.38276 -0.92385 0.00000 0.726793 0.086721
3.9220 9.4680 175.0000 0.00000 0.00000 1.00000 0.761642 0.255609
-0.0000 10.2480 175.0000 0.00000 0.00000 1.00000 0.743387 0.258949
-0.0000 10.2480 175.0000 0.00000 -1.00000 0.00000 0.708537 0.086721
-3.9220 9.4680 175.0000 0.00000 0.00000 1.00000 0.725131 0.255609
-3.9220 9.4680 175.0000 0.38276 -0.92385 0.00000 0.690282 0.086721
-7.2460 7.2460 175.0000 0.00000 0.00000 1.00000 0.709655 0.246100
-7.2460 7.2460 175.0000 0.83136 -0.55574 0.00000 0.556971 0.070868
-7.2460 7.2460 175.0000 0.55574 -0.83136 0.00000 0.674806 0.086721
-9.4680 3.9220 175.0000 0.92385 -0.38276 0.00000 0.541495 0.070868
-9.4680 3.9220 175.0000 0.00000 0.00000 1.00000 0.699314 0.231868
-10.2480 -0.0000 175.0000 0.00000 0.00000 1.00000 0.695683 0.215081
-10.2480 -0.0000 175.0000 1.00000 0.00000 0.00000 0.523239 0.070868
-9.4680 -3.9220 175.0000 0.92385 0.38276 0.00000 0.504984 0.070868
-9.4680 -3.9220 175.0000 0.00000 0.00000 1.00000 0.699314 0.198293
-7.2460 -7.2460 175.0000 0.00000 0.00000 1.00000 0.709655 0.184062
-7.2460 -7.2460 175.0000 0.55574 0.83136 0.00000 0.929805 0.070929
-7.2460 -7.2460 175.0000 0.83136 0.55574 0.00000 0.489508 0.070868
-3.9220 -9.4680 175.0000 0.00000 0.00000 1.00000 0.725131 0.174552
-3.9220 -9.4680 175.0000 0.38276 0.92385 0.00000 0.914329 0.070929
0.0000 -10.2480 175.0000 -0.00000 1.00000 0.00000 0.896073 0.070929
0.0000 -10.2480 175.0000 0.00000 0.00000 1.00000 0.743387 0.171213
3.9220 -9.4680 175.0000 0.00000 0.00000 1.00000 0.761642 0.174552
3.9220 -9.4680 175.0000 -0.38276 0.92385 0.00000 0.877818 0.070929
7.2460 -7.2460 175.0000 -0.83136 0.55574 0.00000 0.843741 0.070929
7.2460 -7.2460 175.0000 0.00000 0.00000 1.00000 0.777118 0.184062
7.2460 -7.2460 175.0000 -0.55574 0.83136 0.00000 0.862341 0.070929
9.4680 -3.9220 175.0000 -0.92385 0.38276 0.00000 0.828264 0.070929
9.4680 -3.9220 175.0000 0.00000 0.00000 1.00000 0.787459 0.198293
10.2480 0.0000 174.5170 -1.00000 0.00000 0.00000 0.810009 0.069234
10.2480 0.0000 174.5170 0.00000 0.00000 1.00000 0.910661 0.220195
9.4680 3.9220 174.5170 0.00000 0.00000 1.00000 0.907029 0.236982
9.4680 3.9220 174.5170 -0.92385 -0.38276 0.00000 0.791753 0.069234
7.2460 7.2460 174.5170 -0.83136 -0.55574 0.00000 0.776277 0.069234
7.2460 7.2460 174.5170 -0.55574 -0.83136 0.00000 0.742269 0.085026
7.2460 7.2460 174.5170 0.00000 0.00000 1.00000 0.896688 0.251214
3.9220 9.4680 174.5170 -0.38276 -0.92385 0.00000 0.726793 0.085026
3.9220 9.4680 174.5170 0.00000 0.00000 1.00000 0.881212 0.260724
-0.0000 10.2480 174.5170 0.00000 0.00000 1.00000 0.862957 0.264063
-0.0000 10.2480 174.5170 -0.00000 -1.00000 0.00000 0.708537 0.085026
-3.9220 9.4680 174.5170 0.00000 0.00000 1.00000 0.844701 0.260724
-3.9220 9.4680 174.5170 0.38276 -0.92385 0.00000 0.690282 0.085026
-7.2460 7.2460 174.5170 0.00000 0.00000 1.00000 0.829225 0.251214
-7.2460 7.2460 174.5170 0.55574 -0.83136 0.00000 0.674806 0.085026
-7.2460 7.2460 174.5170 0.83136 -0.55574 0.00000 0.556971 0.069173
-9.4680 3.9220 174.5170 0.92385 -0.38276 0.00000 0.541495 0.069173
-9.4680 3.9220 174.5170 0.00000 0.00000 1.00000 0.818884 0.236982
-10.2480 -0.0000 174.5170 1.00000 -0.00000 0.00000 0.523239 0.069173
-10.2480 -0.0000 174.5170 0.00000 0.00000 1.00000 0.815253 0.220195
-9.4680 -3.9220 174.5170 0.92385 0.38276 0.00000 0.504984 0.069173
-9.4680 -3.9220 174.5170 0.00000 0.00000 1.00000 0.818884 0.203408
-7.2460 -7.2460 174.5170 0.83136 0.55574 0.00000 0.489508 0.069173
-7.2460 -7.2460 174.5170 0.55574 0.83136 0.00000 0.929805 0.069234
-7.2460 -7.2460 174.5170 0.00000 0.00000 1.00000 0.829225 0.189176
-3.9220 -9.4680 174.5170 0.38276 0.92385 0.00000 0.914329 0.069234
-3.9220 -9.4680 174.5170 0.00000 0.00000 1.00000 0.844701 0.179666
0.0000 -10.2480 174.5170 0.00000 1.00000 0.00000 0.896073 0.069234
0.0000 -10.2480 174.5170 0.00000 0.00000 1.00000 0.862957 0.176327
3.9220 -9.4680 174.5170 0.00000 0.00000 1.00000 0.881212 0.179666
3.9220 -9.4680 174.5170 -0.38276 0.92385 0.00000 0.877818 0.069234
7.2460 -7.2460 174.5170 -0.55574 0.83136 0.00000 0.862341 0.069234
7.2460 -7.2460 174.5170 -0.83136 0.55574 0.00000 0.843741 0.069234
7.2460 -7.2460 174.5170 0.00000 0.00000 1.00000 0.896688 0.189176
9.4680 -3.9220 174.5170 0.00000 0.00000 1.00000 0.907029 0.203408
9.4680 -3.9220 174.5170 -0.92385 0.38276 0.00000 0.828264 0.069234
-10.5720 -4.3790 167.0030 -0.92386 -0.38274 0.00000 0.497906 0.105584
-10.5720 -4.3790 167.0030 0.00000 0.00000 1.00000 0.443913 0.196336
-8.0910 -8.0910 167.0030 0.00000 0.00000 1.00000 0.455459 0.180445
-8.0910 -8.0910 167.0030 -0.55568 -0.83140 0.00000 0.305755 0.115214
-8.0910 -8.0910 167.0030 -0.83140 -0.55568 0.00000 0.515187 0.105584
-4.3790 -10.5720 167.0030 0.00000 0.00000 1.00000 0.472740 0.169827
-4.3790 -10.5720 167.0030 -0.38274 -0.92386 0.00000 0.323036 0.115214
0.0000 -11.4430 167.0030 0.00000 0.00000 1.00000 0.493124 0.166099
0.0000 -11.4430 167.0030 -0.00000 -1.00000 0.00000 0.343419 0.115214
4.3790 -10.5720 167.0030 0.38274 -0.92386 0.00000 0.363803 0.115214
4.3790 -10.5720 167.0030 0.00000 0.00000 1.00000 0.513507 0.169827
8.0910 -8.0910 167.0030 0.00000 0.00000 1.00000 0.530788 0.180445
8.0910 -8.0910 167.0030 0.55568 -0.83140 0.00000 0.381084 0.115214
8.0910 -8.0910 167.0030 0.83140 -0.55568 0.00000 0.815253 0.115812
10.5720 -4.3790 167.0030 0.00000 0.00000 1.00000 0.542334 0.196336
10.5720 -4.3790 167.0030 0.92386 -0.38274 0.00000 0.832533 0.115812
11.4430 0.0000 167.0030 1.00000 -0.00000 0.00000 0.852917 0.115812
11.4430 0.0000 167.0030 0.00000 0.00000 1.00000 0.546389 0.215081
10.5720 4.3790 167.0030 0.00000 0.00000 1.00000 0.542334 0.233825
10.5720 4.3790 167.0030 0.92386 0.38274 0.00000 0.873301 0.115812
8.0910 8.0910 167.0030 0.00000 0.00000 1.00000 0.530788 0.249716
8.0910 8.0910 167.0030 0.55568 0.83140 0.00000 0.305755 0.140743
8.0910 8.0910 167.0030 0.83140 0.55568 0.00000 0.890581 0.115812
4.3790 10.5720 167.0030 0.00000 0.00000 1.00000 0.513507 0.260334
4.3790 10.5720 167.0030 0.38274 0.92386 0.00000 0.323036 0.140743
-0.0000 11.4430 167.0030 0.00000 1.00000 0.00000 0.343419 0.140743
-0.0000 11.4430 167.0030 0.00000 0.00000 1.00000 0.493124 0.264063
-4.3790 10.5720 167.0030 0.00000 0.00000 1.00000 0.472740 0.260334
-4.3790 10.5720 167.0030 -0.38274 0.92386 0.00000 0.363803 0.140743
-8.0910 8.0910 167.0030 -0.83140 0.55568 0.00000 0.439858 0.105584
-8.0910 8.0910 167.0030 0.00000 0.00000 1.00000 0.455459 0.249716
-8.0910 8.0910 167.0030 -0.55568 0.83140 0.00000 0.381084 0.140743
-10.5720 4.3790 167.0030 0.00000 0.00000 1.00000 0.443913 0.233825
-10.5720 4.3790 167.0030 -0.92386 0.38274 0.00000 0.457139 0.105584
-11.4430 -0.0000 167.0030 -1.00000 0.00000 0.00000 0.477523 0.105584
-11.4430 -0.0000 167.0030 0.00000 0.00000 1.00000 0.439858 0.215081
-8.0910 -8.0910 167.5040 -0.83140 -0.55568 0.00000 0.703046 0.122689
-8.0910 -8.0910 167.5040 -0.55568 -0.83140 0.00000 0.533788 0.122689
-8.0910 -8.0910 167.5040 0.00000 0.00000 -1.00000 0.580591 0.249716
-4.3790 -10.5720 167.5040 0.00000 0.00000 -1.00000 0.597871 0.260334
-4.3790 -10.5720 167.5040 -0.38274 -0.92386 0.00000 0.551068 0.122689
0.0000 -11.4430 167.5040 0.00000 -1.00000 0.00000 0.571452 0.122689
0.0000 -11.4430 167.5040 0.00000 0.00000 -1.00000 0.618255 0.264063
4.3790 -10.5720 167.5040 0.00000 0.00000 -1.00000 0.638639 0.260334
4.3790 -10.5720 167.5040 0.38274 -0.92386 0.00000 0.591836 0.122689
8.0910 -8.0910 167.5040 0.00000 0.00000 -1.00000 0.655919 0.249716
8.0910 -8.0910 167.5040 0.55568 -0.83140 0.00000 0.609116 0.122689
8.0910 -8.0910 167.5040 0.83140 -0.55568 0.00000 0.815253 0.132917
10.5720 -4.3790 167.5040 0.92386 -0.38274 0.00000 0.832533 0.132917
10.5720 -4.3790 167.5040 0.00000 0.00000 -1.00000 0.667466 0.233825
11.4430 0.0000 167.5040 0.00000 0.00000 -1.00000 0.671521 0.215081
11.4430 0.0000 167.5040 1.00000 0.00000 0.00000 0.852917 0.132917
10.5720 4.3790 167.5040 0.92386 0.38274 0.00000 0.873301 0.132917
10.5720 4.3790 167.5040 0.00000 0.00000 -1.00000 0.667466 0.196336
8.0910 8.0910 167.5040 0.55568 0.83140 0.00000 0.439858 0.122689
8.0910 8.0910 167.5040 0.00000 0.00000 -1.00000 0.655919 0.180445
8.0910 8.0910 167.5040 0.83140 0.55568 0.00000 0.890581 0.132917
4.3790 10.5720 167.5040 0.00000 0.00000 -1.00000 0.638639 0.169827
4.3790 10.5720 167.5040 0.38274 0.92386 0.00000 0.457139 0.122689
-0.0000 11.4430 167.5040 0.00000 0.00000 -1.00000 0.618255 0.166099
-0.0000 11.4430 167.5040 0.00000 1.00000 0.00000 0.477523 0.122689
-4.3790 10.5720 167.5040 -0.38274 0.92386 0.00000 0.497906 0.122689
-4.3790 10.5720 167.5040 0.00000 0.00000 -1.00000 0.597871 0.169827
-8.0910 8.0910 167.5040 0.00000 0.00000 -1.00000 0.580591 0.180445
-8.0910 8.0910 167.5040 -0.83140 0.55568 0.00000 0.627717 0.122689
-8.0910 8.0910 167.5040 -0.55568 0.83140 0.00000 0.515187 0.122689
-10.5720 4.3790 167.5040 -0.92386 0.38274 0.00000 0.644998 0.122689
-10.5720 4.3790 167.5040 0.00000 0.00000 -1.00000 0.569044 0.196336
-11.4430 -0.0000 167.5040 0.00000 0.00000 -1.00000 0.564990 0.215081
-11.4430 -0.0000 167.5040 -1.00000 0.00000 0.00000 0.665381 0.122689
-10.5720 -4.3790 167.5040 0.00000 0.00000 -1.00000 0.569044 0.233825
-10.5720 -4.3790 167.5040 -0.92386 -0.38274 0.00000 0.685765 0.122689
-10.2260 -4.2360 167.0030 -0.92392 -0.38258 0.00000 0.827025 0.088034
-10.2260 -4.2360 167.0030 0.00000 0.00000 1.00000 0.445522 0.196949
-7.8270 -7.8270 167.0030 0.00000 0.00000 1.00000 0.456691 0.181578
-7.8270 -7.8270 167.0030 -0.55550 -0.83152 0.00000 0.305755 0.087927
-7.8270 -7.8270 167.0030 -0.83152 -0.55550 0.00000 0.843741 0.088034
-4.2360 -10.2260 167.0030 0.00000 0.00000 1.00000 0.473406 0.171307
-4.2360 -10.2260 167.0030 -0.38258 -0.92392 0.00000 0.322471 0.087927
0.0000 -11.0680 167.0030 0.00000 -1.00000 0.00000 0.342188 0.087927
0.0000 -11.0680 167.0030 0.00000 0.00000 1.00000 0.493124 0.167700
4.2360 -10.2260 167.0030 0.38258 -0.92392 0.00000 0.361905 0.087927
4.2360 -10.2260 167.0030 0.00000 0.00000 1.00000 0.512841 0.171307
7.8270 -7.8270 167.0030 0.55550 -0.83152 0.00000 0.378621 0.087927
7.8270 -7.8270 167.0030 0.00000 0.00000 1.00000 0.529556 0.181578
7.8270 -7.8270 167.0030 0.83152 -0.55550 0.00000 0.674806 0.103826
10.2260 -4.2360 167.0030 0.92392 -0.38258 0.00000 0.691521 0.103826
10.2260 -4.2360 167.0030 0.00000 0.00000 1.00000 0.540725 0.196949
11.0680 0.0000 167.0030 0.00000 0.00000 1.00000 0.544647 0.215081
11.0680 0.0000 167.0030 1.00000 0.00000 0.00000 0.711238 0.103826
10.2260 4.2360 167.0030 0.92392 0.38258 0.00000 0.730956 0.103826
10.2260 4.2360 167.0030 0.00000 0.00000 1.00000 0.540725 0.233212
7.8270 7.8270 167.0030 0.83152 0.55550 0.00000 0.747671 0.103826
7.8270 7.8270 167.0030 0.55550 0.83152 0.00000 0.862341 0.088034
7.8270 7.8270 167.0030 0.00000 0.00000 1.00000 0.529556 0.248584
4.2360 10.2260 167.0030 0.00000 0.00000 1.00000 0.512841 0.258855
4.2360 10.2260 167.0030 0.38258 0.92392 0.00000 0.879057 0.088034
-0.0000 11.0680 167.0030 0.00000 1.00000 0.00000 0.898774 0.088034
-0.0000 11.0680 167.0030 0.00000 0.00000 1.00000 0.493124 0.262461
-4.2360 10.2260 167.0030 -0.38258 0.92392 0.00000 0.918491 0.088034
-4.2360 10.2260 167.0030 0.00000 0.00000 1.00000 0.473406 0.258855
-7.8270 7.8270 167.0030 -0.83152 0.55550 0.00000 0.770875 0.088034
-7.8270 7.8270 167.0030 0.00000 0.00000 1.00000 0.456691 0.248584
-7.8270 7.8270 167.0030 -0.55550 0.83152 0.00000 0.935207 0.088034
-10.2260 4.2360 167.0030 0.00000 0.00000 1.00000 0.445522 0.233212
-10.2260 4.2360 167.0030 -0.92392 0.38258 0.00000 0.787591 0.088034
-11.0680 -0.0000 167.0030 -1.00000 0.00000 0.00000 0.807308 0.088034
-11.0680 -0.0000 167.0030 0.00000 0.00000 1.00000 0.441600 0.215081
-7.8270 -7.8270 167.5040 -0.83152 -0.55550 0.00000 0.843741 0.089792
-7.8270 -7.8270 167.5040 -0.55550 -0.83152 0.00000 0.305755 0.089684
-7.8270 -7.8270 167.5040 0.00000 0.00000 -1.00000 0.581822 0.248584
-4.2360 -10.2260 167.5040 -0.38258 -0.92392 0.00000 0.322471 0.089684
-4.2360 -10.2260 167.5040 0.00000 0.00000 -1.00000 0.598538 0.258855
0.0000 -11.0680 167.5040 0.00000 0.00000 -1.00000 0.618255 0.262461
0.0000 -11.0680 167.5040 0.00000 -1.00000 0.00000 0.342188 0.089684
4.2360 -10.2260 167.5040 0.38258 -0.92392 0.00000 0.361905 0.089684
4.2360 -10.2260 167.5040 0.00000 0.00000 -1.00000 0.637972 0.258855
7.8270 -7.8270 167.5040 0.00000 0.00000 -1.00000 0.654688 0.248584
7.8270 -7.8270 167.5040 0.55550 -0.83152 0.00000 0.378621 0.089684
7.8270 -7.8270 167.5040 0.83152 -0.55550 0.00000 0.674806 0.105584
10.2260 -4.2360 167.5040 0.92392 -0.38258 0.00000 0.691521 0.105584
10.2260 -4.2360 167.5040 0.00000 0.00000 -1.00000 0.665857 0.233212
11.0680 0.0000 167.5040 0.00000 0.00000 -1.00000 0.669779 0.215081
11.0680 0.0000 167.5040 1.00000 0.00000 0.00000 0.711238 0.105584
10.2260 4.2360 167.5040 0.92392 0.38258 0.00000 0.730956 0.105584
10.2260 4.2360 167.5040 0.00000 0.00000 -1.00000 0.665857 0.196949
7.8270 7.8270 167.5040 0.83152 0.55550 0.00000 0.747671 0.105584
7.8270 7.8270 167.5040 0.55550 0.83152 0.00000 0.862341 0.089792
7.8270 7.8270 167.5040 0.00000 0.00000 -1.00000 0.654688 0.181578
4.2360 10.2260 167.5040 0.00000 0.00000 -1.00000 0.637972 0.171307
4.2360 10.2260 167.5040 0.38258 0.92392 0.00000 0.879057 0.089792
-0.0000 11.0680 167.5040 0.00000 0.00000 -1.00000 0.618255 0.167700
-0.0000 11.0680 167.5040 0.00000 1.00000 0.00000 0.898774 0.089792
-4.2360 10.2260 167.5040 -0.38258 0.92392 0.00000 0.918491 0.089792
-4.2360 10.2260 167.5040 0.00000 0.00000 -1.00000 0.598538 0.171307
-7.8270 7.8270 167.5040 -0.55550 0.83152 0.00000 0.935207 0.089792
-7.8270 7.8270 167.5040 0.00000 0.00000 -1.00000 0.581822 0.181578
-7.8270 7.8270 167.5040 -0.83152 0.55550 0.00000 0.770875 0.089792
-10.2260 4.2360 167.5040 0.00000 0.00000 -1.00000 0.570654 0.196949
-10.2260 4.2360 167.5040 -0.92392 0.38258 0.00000 0.787591 0.089792
-11.0680 -0.0000 167.5040 -1.00000 0.00000 0.00000 0.807308 0.089792
-11.0680 -0.0000 167.5040 0.00000 0.00000 -1.00000 0.566732 0.215081
-10.2260 -4.2360 167.5040 0.00000 0.00000 -1.00000 0.570654 0.233212
-10.2260 -4.2360 167.5040 -0.92392 -0.38258 0.00000 0.827025 0.089792
11.4590 -4.7470 163.0650 0.84194 -0.34883 -0.41165 0.600439 0.986053
12.4030 0.0000 163.0650 0.91139 0.00000 -0.41155 0.622534 0.986053
11.4590 4.7470 163.0650 0.84195 0.34885 -0.41162 0.644629 0.986053
8.7700 8.7700 163.0650 0.50795 0.76007 -0.40532 0.083680 0.986053
8.7700 8.7700 163.0650 0.76011 0.50796 -0.40522 0.663360 0.986053
4.7470 11.4590 163.0650 0.34883 0.84194 -0.41165 0.102412 0.986053
-0.0000 12.4030 163.0650 -0.00000 0.91139 -0.41155 0.124507 0.986053
-4.7470 11.4590 163.0650 -0.34885 0.84195 -0.41162 0.146602 0.986053
-8.7700 8.7700 163.0650 -0.50796 0.76011 -0.40522 0.165333 0.986053
-8.7700 8.7700 163.0650 -0.76007 0.50795 -0.40532 0.830721 0.986053
-11.4590 4.7470 163.0650 -0.84194 0.34883 -0.41165 0.849452 0.986053
-12.4030 0.0000 163.0650 -0.91139 -0.00000 -0.41155 0.871547 0.986053
-11.4590 -4.7470 163.0650 -0.84195 -0.34885 -0.41162 0.893643 0.986053
-8.7700 -8.7700 163.0650 -0.76011 -0.50796 -0.40522 0.912374 0.986053
-8.7700 -8.7700 163.0650 -0.50795 -0.76007 -0.40532 0.332694 0.986053
-4.7470 -11.4590 163.0650 -0.34883 -0.84194 -0.41165 0.351425 0.986053
0.0000 -12.4030 163.0650 0.00000 -0.91139 -0.41155 0.373520 0.986053
4.7470 -11.4590 163.0650 0.34885 -0.84195 -0.41162 0.395615 0.986053
8.7700 -8.7700 163.0650 0.76007 -0.50795 -0.40532 0.581707 0.986053
8.7700 -8.7700 163.0650 0.50796 -0.76011 -0.40522 0.414347 0.986053
11.6350 -4.8190 164.2230 0.89419 -0.37021 0.25173 0.600100 0.990115
12.5930 0.0000 164.2230 0.96769 0.00003 0.25214 0.622534 0.990115
11.6350 4.8190 164.2230 0.89423 0.37014 0.25167 0.644968 0.990115
8.9050 8.9050 164.2230 0.53814 0.80544 0.24834 0.083054 0.990115
8.9050 8.9050 164.2230 0.80539 0.53823 0.24828 0.663987 0.990115
4.8190 11.6350 164.2230 0.37021 0.89419 0.25173 0.102073 0.990115
-0.0000 12.5930 164.2230 -0.00003 0.96769 0.25214 0.124507 0.990115
-4.8190 11.6350 164.2230 -0.37014 0.89423 0.25167 0.146941 0.990115
-8.9050 8.9050 164.2230 -0.80544 0.53814 0.24834 0.830095 0.990115
-8.9050 8.9050 164.2230 -0.53823 0.80539 0.24828 0.165959 0.990115
-11.6350 4.8190 164.2230 -0.89419 0.37021 0.25173 0.849113 0.990115
-12.5930 0.0000 164.2230 -0.96769 -0.00003 0.25214 0.871547 0.990115
-11.6350 -4.8190 164.2230 -0.89423 -0.37014 0.25167 0.893981 0.990115
-8.9050 -8.9050 164.2230 -0.53814 -0.80544 0.24834 0.332068 0.990115
-8.9050 -8.9050 164.2230 -0.80539 -0.53823 0.24828 0.913000 0.990115
-4.8190 -11.6350 164.2230 -0.37021 -0.89419 0.25173 0.351086 0.990115
0.0000 -12.5930 164.2230 0.00003 -0.96769 0.25214 0.373520 0.990115
4.8190 -11.6350 164.2230 0.37014 -0.89423 0.25167 0.395954 0.990115
8.9050 -8.9050 164.2230 0.53823 -0.80539 0.24828 0.414973 0.990115
8.9050 -8.9050 164.2230 0.80544 -0.53814 0.24834 0.581081 0.990115
23.7030 11.7090 -39.9520 0.27809 -0.22444 -0.93396 0.258566 0.086183
22.8400 15.2610 -40.0000 0.34174 0.18546 -0.92131 0.254550 0.070978
19.8890 17.4180 -39.9520 -0.18215 0.32658 -0.92745 0.240810 0.061747
20.7520 13.8660 -39.9040 -0.30541 -0.14533 -0.94107 0.244827 0.076952
8.4810 25.0400 -39.9520 0.35538 0.03764 -0.93397 0.187706 0.029117
5.3590 26.9420 -40.0000 0.11048 0.37289 -0.92127 0.173174 0.020977
1.7470 26.3800 -39.9520 -0.35980 0.10213 -0.92742 0.156361 0.023384
4.8690 24.4780 -39.9040 -0.11319 -0.31876 -0.94105 0.170893 0.031524
-11.7090 23.7030 -39.9520 0.22444 0.27809 -0.93396 0.093720 0.034842
-15.2610 22.8400 -40.0000 -0.18546 0.34174 -0.92131 0.077185 0.038535
-17.4180 19.8890 -39.9520 -0.32658 -0.18215 -0.92745 0.067147 0.051170
-13.8660 20.7520 -39.9040 0.14533 -0.30541 -0.94107 0.083682 0.047476
-25.0400 8.4810 -39.9520 -0.03764 0.35538 -0.93397 0.031664 0.100004
-26.9420 5.3590 -40.0000 -0.37289 0.11048 -0.92127 0.022812 0.113367
-26.3800 1.7470 -39.9520 -0.10213 -0.35980 -0.92742 0.025429 0.128828
-24.4780 4.8690 -39.9040 0.31876 -0.11319 -0.94105 0.034281 0.115465
-23.7030 -11.7090 -39.9520 -0.27809 0.22444 -0.93396 0.037889 0.186432
-22.8400 -15.2610 -40.0000 -0.34174 -0.18546 -0.92131 0.041905 0.201637
-19.8890 -17.4180 -39.9520 0.18215 -0.32658 -0.92745 0.055644 0.210868
-20.7520 -13.8660 -39.9040 0.30541 0.14533 -0.94107 0.051628 0.195663
-8.4810 -25.0400 -39.9520 -0.35538 -0.03764 -0.93397 0.108749 0.243498
-5.3590 -26.9420 -40.0000 -0.11048 -0.37289 -0.92127 0.123281 0.251638
-1.7470 -26.3800 -39.9520 0.35980 -0.10213 -0.92742 0.140094 0.249231
-4.8690 -24.4780 -39.9040 0.11319 0.31876 -0.94105 0.125562 0.241091
11.7090 -23.7030 -39.9520 -0.22444 -0.27809 -0.93396 0.202735 0.237773
15.2610 -22.8400 -40.0000 0.18546 -0.34174 -0.92131 0.219270 0.234080
17.4180 -19.8890 -39.9520 0.32658 0.18215 -0.92745 0.229308 0.221446
13.8660 -20.7520 -39.9040 -0.14533 0.30541 -0.94107 0.212773 0.225139
25.0400 -8.4810 -39.9520 0.03764 -0.35538 -0.93397 0.264791 0.172611
26.9420 -5.3590 -40.0000 0.37289 -0.11048 -0.92127 0.273643 0.159248
26.3800 -1.7470 -39.9520 0.10213 0.35980 -0.92742 0.271026 0.143787
24.4780 -4.8690 -39.9040 -0.31876 0.11319 -0.94105 0.262174 0.157150
21.7960 14.5640 -39.9520 -0.02900 -0.02690 -0.99922 0.249688 0.073965
5.1140 25.7100 -39.9520 -0.00148 -0.03949 -0.99922 0.172033 0.026251
-14.5640 21.7960 -39.9520 0.02690 -0.02900 -0.99922 0.080433 0.043006
-25.7100 5.1140 -39.9520 0.03949 -0.00148 -0.99922 0.028546 0.114416
-21.7960 -14.5640 -39.9520 0.02900 0.02690 -0.99922 0.046767 0.198650
-5.1140 -25.7100 -39.9520 0.00148 0.03949 -0.99922 0.124421 0.246365
14.5640 -21.7960 -39.9520 -0.02690 0.02900 -0.99922 0.216021 0.229609
25.7100 -5.1140 -39.9520 -0.03949 0.00148 -0.99922 0.267909 0.158199
31.5190 6.2700 2.0310 0.97810 0.19461 0.07383 0.651719 0.420954
26.7210 17.8540 2.0310 0.82919 0.55407 0.07384 0.705646 0.420954
17.8540 26.7210 2.0310 0.55406 0.82920 0.07383 0.041394 0.420954
6.2700 31.5190 2.0310 0.19462 0.97810 0.07382 0.095322 0.420954
-6.2700 31.5190 2.0310 -0.19461 0.97810 0.07383 0.153692 0.420954
-17.8540 26.7210 2.0310 -0.55407 0.82919 0.07384 0.207619 0.420954
-26.7210 17.8540 2.0310 -0.82920 0.55406 0.07383 0.788435 0.420954
-31.5190 6.2700 2.0310 -0.97810 0.19462 0.07382 0.842362 0.420954
-31.5190 -6.2700 2.0310 -0.97810 -0.19461 0.07383 0.900733 0.420954
-26.7210 -17.8540 2.0310 -0.82919 -0.55407 0.07384 0.954660 0.420954
-17.8540 -26.7210 2.0310 -0.55406 -0.82920 0.07383 0.290408 0.420954
-6.2700 -31.5190 2.0310 -0.19462 -0.97810 0.07382 0.344335 0.420954
6.2700 -31.5190 2.0310 0.19461 -0.97810 0.07383 0.402706 0.420954
17.8540 -26.7210 2.0310 0.55407 -0.82919 0.07384 0.456633 0.420954
26.7210 -17.8540 2.0310 0.82920 -0.55406 0.07383 0.539421 0.420954
31.5190 -6.2700 2.0310 0.97810 -0.19462 0.07382 0.593349 0.420954
-28.3990 -5.6490 31.4160 -0.97935 -0.19486 -0.05379 0.897843 0.524072
-24.0760 -16.0870 31.4160 -0.83030 -0.55472 -0.05382 0.946432 0.524072
-16.0870 -24.0760 31.4160 -0.55472 -0.83029 -0.05381 0.298636 0.524072
-5.6490 -28.3990 31.4160 -0.19485 -0.97936 -0.05381 0.347224 0.524072
5.6490 -28.3990 31.4160 0.19486 -0.97935 -0.05379 0.399816 0.524072
16.0870 -24.0760 31.4160 0.55472 -0.83030 -0.05382 0.448405 0.524072
24.0760 -16.0870 31.4160 0.83029 -0.55472 -0.05381 0.547649 0.524072
28.3990 -5.6490 31.4160 0.97936 -0.19485 -0.05381 0.596238 0.524072
28.3990 5.6490 31.4160 0.97935 0.19486 -0.05379 0.648830 0.524072
24.0760 16.0870 31.4160 0.83030 0.55472 -0.05382 0.697418 0.524072
16.0870 24.0760 31.4160 0.55472 0.83029 -0.05381 0.049622 0.524072
5.6490 28.3990 31.4160 0.19485 0.97936 -0.05381 0.098211 0.524072
-5.6490 28.3990 31.4160 -0.19486 0.97935 -0.05379 0.150803 0.524072
-16.0870 24.0760 31.4160 -0.55472 0.83030 -0.05382 0.199391 0.524072
-24.0760 16.0870 31.4160 -0.83029 0.55472 -0.05381 0.796663 0.524072
-28.3990 5.6490 31.4160 -0.97936 0.19485 -0.05381 0.845251 0.524072
21.2680 21.2680 18.0180 0.82708 0.55263 0.10261 0.721537 0.477054
21.2680 21.2680 18.0180 0.55264 0.82708 0.10263 0.025503 0.477054
11.5100 27.7880 18.0180 0.38059 0.91881 0.10462 0.070927 0.477054
0.0000 30.0770 18.0180 -0.00000 0.99451 0.10463 0.124507 0.477054
-11.5100 27.7880 18.0180 -0.38060 0.91880 0.10464 0.178087 0.477054
-21.2680 21.2680 18.0180 -0.82708 0.55264 0.10263 0.772544 0.477054
-21.2680 21.2680 18.0180 -0.55263 0.82708 0.10261 0.223510 0.477054
-27.7880 11.5100 18.0180 -0.91881 0.38059 0.10462 0.817967 0.477054
-30.0770 0.0000 18.0180 -0.99451 -0.00000 0.10463 0.871547 0.477054
-27.7880 -11.5100 18.0180 -0.91880 -0.38060 0.10464 0.925128 0.477054
-21.2680 -21.2680 18.0180 -0.82708 -0.55263 0.10261 0.970551 0.477054
-21.2680 -21.2680 18.0180 -0.55264 -0.82708 0.10263 0.274517 0.477054
-11.5100 -27.7880 18.0180 -0.38059 -0.91881 0.10462 0.319940 0.477054
-0.0000 -30.0770 18.0180 0.00000 -0.99451 0.10463 0.373520 0.477054
11.5100 -27.7880 18.0180 0.38060 -0.91880 0.10464 0.427101 0.477054
21.2680 -21.2680 18.0180 0.55263 -0.82708 0.10261 0.472524 0.477054
21.2680 -21.2680 18.0180 0.82708 -0.55264 0.10263 0.523530 0.477054
27.7880 -11.5100 18.0180 0.91881 -0.38059 0.10462 0.568954 0.477054
30.0770 0.0000 18.0180 0.99451 0.00000 0.10463 0.622534 0.477054
27.7880 11.5100 18.0180 0.91880 0.38060 0.10464 0.676114 0.477054
16.3890 24.5280 18.0180 0.55268 0.82715 0.10184 0.048215 0.477054
5.7550 28.9330 18.0180 0.19405 0.97569 0.10188 0.097717 0.477054
-5.7550 28.9330 18.0180 -0.19405 0.97569 0.10185 0.151297 0.477054
-16.3890 24.5280 18.0180 -0.55267 0.82715 0.10185 0.200799 0.477054
-24.5280 16.3890 18.0180 -0.82715 0.55268 0.10184 0.795256 0.477054
-28.9330 5.7550 18.0180 -0.97569 0.19405 0.10188 0.844757 0.477054
-28.9330 -5.7550 18.0180 -0.97569 -0.19405 0.10185 0.898338 0.477054
-24.5280 -16.3890 18.0180 -0.82715 -0.55267 0.10185 0.947839 0.477054
-16.3890 -24.5280 18.0180 -0.55268 -0.82715 0.10184 0.297228 0.477054
-5.7550 -28.9330 18.0180 -0.19405 -0.97569 0.10188 0.346730 0.477054
5.7550 -28.9330 18.0180 0.19405 -0.97569 0.10185 0.400310 0.477054
16.3890 -24.5280 18.0180 0.55267 -0.82715 0.10185 0.449812 0.477054
24.5280 -16.3890 18.0180 0.82715 -0.55268 0.10184 0.546242 0.477054
28.9330 -5.7550 18.0180 0.97569 -0.19405 0.10188 0.595744 0.477054
28.9330 5.7550 18.0180 0.97569 0.19405 0.10185 0.649324 0.477054
24.5280 16.3890 18.0180 0.82715 0.55267 0.10185 0.698826 0.477054
-23.5130 -23.5130 107.6720 -0.55316 -0.82789 0.09281 0.264069 0.791668
-23.5130 -23.5130 107.6720 -0.82789 -0.55316 0.09281 0.980999 0.791668
-30.7210 -12.7250 107.6720 -0.91974 -0.38096 0.09461 0.930782 0.791668
-33.2520 0.0000 107.6720 -0.99552 0.00000 0.09460 0.871547 0.791668
-30.7210 12.7250 107.6720 -0.91974 0.38095 0.09461 0.812313 0.791668
-23.5130 23.5130 107.6720 -0.82789 0.55316 0.09281 0.762096 0.791668
-23.5130 23.5130 107.6720 -0.55316 0.82789 0.09281 0.233959 0.791668
-12.7250 30.7210 107.6720 -0.38096 0.91974 0.09461 0.183742 0.791668
0.0000 33.2520 107.6720 0.00000 0.99552 0.09460 0.124507 0.791668
12.7250 30.7210 107.6720 0.38095 0.91974 0.09461 0.065272 0.791668
23.5130 23.5130 107.6720 0.55316 0.82789 0.09281 0.015055 0.791668
23.5130 23.5130 107.6720 0.82789 0.55316 0.09281 0.731986 0.791668
30.7210 12.7250 107.6720 0.91974 0.38096 0.09461 0.681769 0.791668
33.2520 0.0000 107.6720 0.99552 -0.00000 0.09460 0.622534 0.791668
30.7210 -12.7250 107.6720 0.91974 -0.38095 0.09461 0.563299 0.791668
23.5130 -23.5130 107.6720 0.55316 -0.82789 0.09281 0.482972 0.791668
23.5130 -23.5130 107.6720 0.82789 -0.55316 0.09281 0.513082 0.791668
12.7250 -30.7210 107.6720 0.38096 -0.91974 0.09461 0.432755 0.791668
-0.0000 -33.2520 107.6720 -0.00000 -0.99552 0.09460 0.373520 0.791668
-12.7250 -30.7210 107.6720 -0.38095 -0.91974 0.09461 0.314285 0.791668
29.8400 0.0000 122.0280 0.90375 0.00001 0.42806 0.622534 0.842045
27.5690 -11.4190 122.0280 0.83497 -0.34586 0.42803 0.569376 0.842045
21.1000 -21.1000 122.0280 0.50387 -0.75406 0.42132 0.471743 0.842045
21.1000 -21.1000 122.0280 0.75408 -0.50387 0.42130 0.524311 0.842045
11.4190 -27.5690 122.0280 0.34584 -0.83497 0.42803 0.426678 0.842045
-0.0000 -29.8400 122.0280 0.00001 -0.90375 0.42806 0.373520 0.842045
-11.4190 -27.5690 122.0280 -0.34586 -0.83497 0.42803 0.320362 0.842045
-21.1000 -21.1000 122.0280 -0.75406 -0.50387 0.42132 0.969770 0.842045
-21.1000 -21.1000 122.0280 -0.50387 -0.75408 0.42130 0.275297 0.842045
-27.5690 -11.4190 122.0280 -0.83497 -0.34584 0.42803 0.924705 0.842045
-29.8400 0.0000 122.0280 -0.90375 -0.00001 0.42806 0.871547 0.842045
-27.5690 11.4190 122.0280 -0.83497 0.34586 0.42803 0.818390 0.842045
-21.1000 21.1000 122.0280 -0.75408 0.50387 0.42130 0.773324 0.842045
-21.1000 21.1000 122.0280 -0.50387 0.75406 0.42132 0.222730 0.842045
-11.4190 27.5690 122.0280 -0.34584 0.83497 0.42803 0.177665 0.842045
0.0000 29.8400 122.0280 -0.00001 0.90375 0.42806 0.124507 0.842045
11.4190 27.5690 122.0280 0.34586 0.83497 0.42803 0.071349 0.842045
21.1000 21.1000 122.0280 0.75406 0.50387 0.42132 0.720757 0.842045
21.1000 21.1000 122.0280 0.50387 0.75408 0.42130 0.026284 0.842045
27.5690 11.4190 122.0280 0.83497 0.34584 0.42803 0.675692 0.842045
31.8240 0.0000 -30.1830 0.98507 -0.00002 -0.17213 0.622534 0.307908
29.4020 -12.1790 -30.1830 0.91011 -0.37696 -0.17206 0.565842 0.307908
22.5030 -22.5030 -30.1830 0.81949 -0.54762 -0.16896 0.517780 0.307908
22.5030 -22.5030 -30.1830 0.54759 -0.81952 -0.16893 0.478274 0.307908
12.1790 -29.4020 -30.1830 0.37699 -0.91009 -0.17205 0.430213 0.307908
-0.0000 -31.8240 -30.1830 -0.00002 -0.98507 -0.17213 0.373520 0.307908
-12.1790 -29.4020 -30.1830 -0.37696 -0.91011 -0.17206 0.316828 0.307908
-22.5030 -22.5030 -30.1830 -0.54762 -0.81949 -0.16896 0.268767 0.307908
-22.5030 -22.5030 -30.1830 -0.81952 -0.54759 -0.16893 0.976301 0.307908
-29.4020 -12.1790 -30.1830 -0.91009 -0.37699 -0.17205 0.928240 0.307908
-31.8240 0.0000 -30.1830 -0.98507 0.00002 -0.17213 0.871547 0.307908
-29.4020 12.1790 -30.1830 -0.91011 0.37696 -0.17206 0.814855 0.307908
-22.5030 22.5030 -30.1830 -0.81949 0.54762 -0.16896 0.766794 0.307908
-22.5030 22.5030 -30.1830 -0.54759 0.81952 -0.16893 0.229261 0.307908
-12.1790 29.4020 -30.1830 -0.37699 0.91009 -0.17205 0.181199 0.307908
0.0000 31.8240 -30.1830 0.00002 0.98507 -0.17213 0.124507 0.307908
12.1790 29.4020 -30.1830 0.37696 0.91011 -0.17206 0.067814 0.307908
22.5030 22.5030 -30.1830 0.81952 0.54759 -0.16893 0.727288 0.307908
22.5030 22.5030 -30.1830 0.54762 0.81949 -0.16896 0.019753 0.307908
29.4020 12.1790 -30.1830 0.91009 0.37699 -0.17205 0.679226 0.307908
3 201 197 0
3 141 892 386
3 140 387 892
3 141 140 892
3 30 393 392
3 392 24 30
3 634 19 633
3 248 321 245
3 140 893 387
3 138 368 893
3 140 138 893
3 37 395 393
3 393 30 37
3 638 19 634
3 206 203 0
3 139 894 369
3 137 370 894
3 139 137 894
3 45 396 394
3 394 38 45
3 640 19 638
3 252 324 250
3 137 895 370
3 136 371 895
3 137 136 895
3 51 397 396
3 396 45 51
3 641 19 640
3 212 208 0
3 136 896 371
3 135 372 896
3 136 135 896
3 57 398 397
3 397 51 57
3 643 19 641
3 269 328 266
3 135 897 372
3 133 374 897
3 135 133 897
3 64 399 398
3 398 57 64
3 645 19 643
3 217 216 0
3 134 898 373
3 132 375 898
3 134 132 898
3 72 401 400
3 400 65 72
3 649 19 645
3 286 332 285
3 132 899 375
3 131 376 899
3 132 131 899
3 78 402 401
3 401 72 78
3 651 19 649
3 223 220 14
3 131 900 376
3 130 377 900
3 131 130 900
3 84 403 402
3 402 78 84
3 653 19 651
3 296 337 292
3 130 901 377
3 129 378 901
3 130 129 901
3 91 404 403
3 403 84 91
3 656 19 653
3 229 228 0
3 128 902 379
3 147 380 902
3 128 147 902
3 99 406 405
3 405 92 99
3 658 19 656
3 301 341 298
3 147 903 380
3 146 381 903
3 147 146 903
3 105 407 406
3 406 99 105
3 660 19 658
3 235 232 15
3 146 904 381
3 145 382 904
3 146 145 904
3 111 388 407
3 407 105 111
3 661 19 660
3 306 344 304
3 145 905 382
3 144 383 905
3 145 144 905
3 119 390 388
3 388 111 119
3 665 19 661
3 241 238 0
3 143 906 384
3 142 385 906
3 143 142 906
3 126 391 389
3 389 118 126
3 666 19 665
3 310 316 307
3 142 907 385
3 141 386 907
3 142 141 907
3 24 392 391
3 391 126 24
3 633 19 666
3 130 1009 1008
3 1008 129 130
3 131 1010 1009
3 1009 130 131
3 132 1011 1010
3 1010 131 132
3 134 1012 1011
3 1011 132 134
3 135 1014 1013
3 1013 133 135
3 136 1015 1014
3 1014 135 136
3 137 1016 1015
3 1015 136 137
3 139 1018 1016
3 1016 137 139
3 140 1019 1017
3 1017 138 140
3 141 1000 1019
3 1019 140 141
3 142 1001 1000
3 1000 141 142
3 143 1002 1001
3 1001 142 143
3 145 1004 1003
3 1003 144 145
3 146 1005 1004
3 1004 145 146
3 147 1006 1005
3 1005 146 147
3 128 1007 1006
3 1006 147 128
3 152 28 20
3 20 149 152
3 855 884 852
3 852 262 855
3 884 853 264
3 264 852 884
3 854 265 853
3 853 884 854
3 323 854 884
3 884 855 323
3 158 42 35
3 35 156 158
3 859 885 856
3 856 271 859
3 885 857 273
3 273 856 885
3 858 274 857
3 857 885 858
3 327 858 885
3 885 859 327
3 163 54 49
3 49 161 163
3 863 886 860
3 860 255 863
3 886 861 256
3 256 860 886
3 862 257 861
3 861 886 862
3 330 862 886
3 886 863 330
3 169 70 61
3 61 167 169
3 867 887 864
3 864 259 867
3 887 865 260
3 260 864 887
3 866 261 865
3 865 887 866
3 334 866 887
3 887 867 334
3 175 83 74
3 74 174 175
3 871 888 868
3 868 280 871
3 888 869 281
3 281 868 888
3 870 282 869
3 869 888 870
3 338 870 888
3 888 871 338
3 181 96 88
3 88 179 181
3 875 889 872
3 872 288 875
3 889 873 290
3 290 872 889
3 874 291 873
3 873 889 874
3 343 874 889
3 889 875 343
3 188 110 104
3 104 186 188
3 879 890 876
3 876 313 879
3 890 877 314
3 314 876 890
3 878 315 877
3 877 890 878
3 346 878 890
3 890 879 346
3 193 124 117
3 117 190 193
3 883 891 880
3 880 275 883
3 891 881 277
3 277 880 891
3 882 278 881
3 881 891 882
3 318 882 891
3 891 883 318
3 201 152 149
3 149 197 201
3 321 855 262
3 248 323 855
3 321 248 855
3 206 158 156
3 156 203 206
3 324 859 271
3 252 327 859
3 324 252 859
3 212 163 161
3 161 208 212
3 328 863 255
3 269 330 863
3 328 269 863
3 217 169 167
3 167 216 217
3 332 867 259
3 286 334 867
3 332 286 867
3 223 175 174
3 174 220 223
3 337 871 280
3 296 338 871
3 337 296 871
3 229 181 179
3 179 228 229
3 341 875 288
3 301 343 875
3 341 301 875
3 235 188 186
3 186 232 235
3 344 879 313
3 306 346 879
3 344 306 879
3 241 193 190
3 190 238 241
3 316 883 275
3 310 318 883
3 316 310 883
3 2 244 321
3 321 199 2
3 202 248 246
3 246 1 202
3 18 251 324
3 324 205 18
3 209 252 249
3 249 16 209
3 17 267 328
3 328 211 17
3 215 269 268
3 268 6 215
3 5 284 332
3 332 219 5
3 221 286 283
3 283 4 221
3 7 294 337
3 337 225 7
3 227 296 293
3 293 9 227
3 8 299 341
3 341 230 8
3 234 301 297
3 297 10 234
3 3 303 344
3 344 236 3
3 240 306 302
3 302 13 240
3 11 309 316
3 316 243 11
3 198 310 308
3 308 12 198
3 27 852 264
3 153 262 852
3 26 153 852
3 36 853 265
3 27 264 853
3 36 27 853
3 155 854 323
3 36 265 854
3 155 34 854
3 44 856 273
3 157 271 856
3 43 157 856
3 50 857 274
3 44 273 857
3 50 44 857
3 160 858 327
3 50 274 858
3 160 48 858
3 55 860 256
3 164 255 860
3 56 164 860
3 59 861 257
3 55 256 861
3 59 55 861
3 166 862 330
3 59 257 862
3 166 60 862
3 69 864 260
3 171 259 864
3 71 171 864
3 76 865 261
3 69 260 865
3 76 69 865
3 172 866 334
3 76 261 866
3 172 75 866
3 80 868 281
3 176 280 868
3 82 176 868
3 86 869 282
3 80 281 869
3 86 80 869
3 178 870 338
3 86 282 870
3 178 90 870
3 98 872 290
3 183 288 872
3 97 183 872
3 102 873 291
3 98 290 873
3 102 98 873
3 184 874 343
3 102 291 874
3 184 101 874
3 108 876 314
3 189 313 876
3 107 189 876
3 114 877 315
3 108 314 877
3 114 108 877
3 192 878 346
3 114 315 878
3 192 113 878
3 122 880 277
3 194 275 880
3 125 194 880
3 22 881 278
3 122 277 881
3 22 122 881
3 150 882 318
3 22 278 882
3 150 23 882
3 200 320 263
3 263 151 200
3 154 322 247
3 247 204 154
3 207 325 272
3 272 159 207
3 162 326 253
3 253 210 162
3 213 329 254
3 254 165 213
3 168 331 270
3 270 214 168
3 218 333 258
3 258 170 218
3 173 335 287
3 287 222 173
3 224 336 279
3 279 177 224
3 180 339 295
3 295 226 180
3 231 340 289
3 289 182 231
3 185 342 300
3 300 233 185
3 237 345 312
3 312 187 237
3 191 347 305
3 305 239 191
3 242 317 276
3 276 195 242
3 148 319 311
3 311 196 148
3 84 908 349
3 78 348 908
3 84 78 908
3 91 909 350
3 84 349 909
3 91 84 909
3 99 910 352
3 92 351 910
3 99 92 910
3 105 911 353
3 99 352 911
3 105 99 911
3 111 912 354
3 105 353 912
3 111 105 912
3 119 913 356
3 111 354 913
3 119 111 913
3 126 914 357
3 118 355 914
3 126 118 914
3 24 915 358
3 126 357 915
3 24 126 915
3 30 916 359
3 24 358 916
3 30 24 916
3 37 917 361
3 30 359 917
3 37 30 917
3 45 918 362
3 38 360 918
3 45 38 918
3 51 919 363
3 45 362 919
3 51 45 919
3 57 920 364
3 51 363 920
3 57 51 920
3 64 921 365
3 57 364 921
3 64 57 921
3 72 922 367
3 65 366 922
3 72 65 922
3 78 923 348
3 72 367 923
3 78 72 923
3 894 944 925
3 925 369 894
3 944 918 360
3 360 925 944
3 926 362 918
3 918 944 926
3 370 926 944
3 944 894 370
3 895 945 926
3 926 370 895
3 945 919 362
3 362 926 945
3 927 363 919
3 919 945 927
3 371 927 945
3 945 895 371
3 896 946 927
3 927 371 896
3 946 920 363
3 363 927 946
3 928 364 920
3 920 946 928
3 372 928 946
3 946 896 372
3 897 947 928
3 928 372 897
3 947 921 364
3 364 928 947
3 930 365 921
3 921 947 930
3 374 930 947
3 947 897 374
3 898 948 929
3 929 373 898
3 948 922 366
3 366 929 948
3 931 367 922
3 922 948 931
3 375 931 948
3 948 898 375
3 899 949 931
3 931 375 899
3 949 923 367
3 367 931 949
3 932 348 923
3 923 949 932
3 376 932 949
3 949 899 376
3 900 950 932
3 932 376 900
3 950 908 348
3 348 932 950
3 933 349 908
3 908 950 933
3 377 933 950
3 950 900 377
3 901 951 933
3 933 377 901
3 951 909 349
3 349 933 951
3 934 350 909
3 909 951 934
3 378 934 951
3 951 901 378
3 902 952 935
3 935 379 902
3 952 910 351
3 351 935 952
3 936 352 910
3 910 952 936
3 380 936 952
3 952 902 380
3 903 953 936
3 936 380 903
3 953 911 352
3 352 936 953
3 937 353 911
3 911 953 937
3 381 937 953
3 953 903 381
3 904 954 937
3 937 381 904
3 954 912 353
3 353 937 954
3 938 354 912
3 912 954 938
3 382 938 954
3 954 904 382
3 905 955 938
3 938 382 905
3 955 913 354
3 354 938 955
3 939 356 913
3 913 955 939
3 383 939 955
3 955 905 383
3 906 956 940
3 940 384 906
3 956 914 355
3 355 940 956
3 941 357 914
3 914 956 941
3 385 941 956
3 956 906 385
3 907 957 941
3 941 385 907
3 957 915 357
3 357 941 957
3 942 358 915
3 915 957 942
3 386 942 957
3 957 907 386
3 892 958 942
3 942 386 892
3 958 916 358
3 358 942 958
3 943 359 916
3 916 958 943
3 387 943 958
3 958 892 387
3 893 959 943
3 943 387 893
3 959 917 359
3 359 943 959
3 924 361 917
3 917 959 924
3 368 924 959
3 959 893 368
3 975 411 410
3 410 977 975
3 974 413 412
3 412 976 974
3 973 414 413
3 413 974 973
3 972 415 414
3 414 973 972
3 971 417 415
3 415 972 971
3 969 418 416
3 416 970 969
3 968 419 418
3 418 969 968
3 967 420 419
3 419 968 967
3 966 421 420
3 420 967 966
3 964 423 422
3 422 965 964
3 963 424 423
3 423 964 963
3 962 425 424
3 424 963 962
3 961 426 425
3 425 962 961
3 979 408 427
3 427 960 979
3 978 409 408
3 408 979 978
3 977 410 409
3 409 978 977
3 985 106 100
3 100 986 985
3 984 112 106
3 106 985 984
3 982 120 112
3 112 984 982
3 981 127 121
3 121 983 981
3 980 25 127
3 127 981 980
3 999 31 25
3 25 980 999
3 997 39 31
3 31 999 997
3 996 46 40
3 40 998 996
3 995 52 46
3 46 996 995
3 994 58 52
3 52 995 994
3 993 66 58
3 58 994 993
3 991 73 67
3 67 992 991
3 990 79 73
3 73 991 990
3 989 85 79
3 79 990 989
3 987 93 85
3 85 989 987
3 986 100 94
3 94 988 986
3 428 25 31
3 31 429 428
3 429 31 39
3 39 430 429
3 431 40 46
3 46 432 431
3 432 46 52
3 52 433 432
3 433 52 58
3 58 434 433
3 434 58 66
3 66 436 434
3 435 67 73
3 73 437 435
3 437 73 79
3 79 438 437
3 438 79 85
3 85 439 438
3 439 85 93
3 93 440 439
3 441 94 100
3 100 442 441
3 442 100 106
3 106 443 442
3 443 106 112
3 112 444 443
3 444 112 120
3 120 446 444
3 445 121 127
3 127 447 445
3 447 127 25
3 25 428 447
3 448 428 429
3 429 449 448
3 449 429 430
3 430 450 449
3 451 431 432
3 432 452 451
3 452 432 433
3 433 453 452
3 453 433 434
3 434 454 453
3 454 434 436
3 436 456 454
3 455 435 437
3 437 457 455
3 457 437 438
3 438 458 457
3 458 438 439
3 439 459 458
3 459 439 440
3 440 461 459
3 460 441 442
3 442 462 460
3 462 442 443
3 443 463 462
3 463 443 444
3 444 464 463
3 464 444 446
3 446 466 464
3 465 445 447
3 447 467 465
3 467 447 428
3 428 448 467
3 813 448 449
3 449 814 813
3 814 449 450
3 450 816 814
3 815 451 452
3 452 817 815
3 817 452 453
3 453 818 817
3 818 453 454
3 454 819 818
3 819 454 456
3 456 820 819
3 821 455 457
3 457 822 821
3 822 457 458
3 458 823 822
3 823 458 459
3 459 824 823
3 824 459 461
3 461 825 824
3 826 460 462
3 462 827 826
3 827 462 463
3 463 828 827
3 828 463 464
3 464 829 828
3 829 464 466
3 466 831 829
3 830 465 467
3 467 812 830
3 812 467 448
3 448 813 812
3 833 468 469
3 469 834 833
3 834 469 471
3 471 836 834
3 835 470 472
3 472 837 835
3 837 472 473
3 473 838 837
3 838 473 474
3 474 839 838
3 839 474 476
3 476 841 839
3 840 475 477
3 477 842 840
3 842 477 478
3 478 843 842
3 843 478 479
3 479 844 843
3 844 479 481
3 481 846 844
3 845 480 482
3 482 847 845
3 847 482 483
3 483 848 847
3 848 483 484
3 484 849 848
3 849 484 486
3 486 850 849
3 851 485 487
3 487 832 851
3 832 487 468
3 468 833 832
3 525 488 491
3 491 527 525
3 527 491 493
3 493 530 527
3 530 493 495
3 495 531 530
3 531 495 497
3 497 534 531
3 534 497 500
3 500 535 534
3 535 500 503
3 503 537 535
3 537 503 504
3 504 540 537
3 540 504 507
3 507 543 540
3 543 507 508
3 508 544 543
3 544 508 511
3 511 547 544
3 547 511 514
3 514 550 547
3 550 514 516
3 516 552 550
3 552 516 518
3 518 553 552
3 553 518 519
3 519 555 553
3 555 519 522
3 522 558 555
3 558 522 488
3 488 525 558
3 684 524 526
3 526 687 684
3 687 526 529
3 529 690 687
3 689 528 532
3 532 692 689
3 692 532 533
3 533 693 692
3 693 533 536
3 536 696 693
3 696 536 538
3 538 699 696
3 697 539 541
3 541 701 697
3 701 541 542
3 542 702 701
3 702 542 545
3 545 668 702
3 668 545 548
3 548 672 668
3 671 546 549
3 549 674 671
3 674 549 551
3 551 676 674
3 676 551 554
3 554 677 676
3 677 554 557
3 557 680 677
3 681 556 559
3 559 683 681
3 683 559 524
3 524 684 683
3 596 561 562
3 562 599 596
3 599 562 565
3 565 600 599
3 600 565 567
3 567 604 600
3 604 567 569
3 569 605 604
3 605 569 572
3 572 607 605
3 607 572 573
3 573 609 607
3 609 573 576
3 576 613 609
3 613 576 579
3 579 614 613
3 614 579 580
3 580 617 614
3 617 580 584
3 584 618 617
3 618 584 585
3 585 621 618
3 621 585 587
3 587 624 621
3 624 587 590
3 590 625 624
3 625 590 592
3 592 628 625
3 628 592 594
3 594 631 628
3 631 594 561
3 561 596 631
3 632 597 598
3 598 635 632
3 635 598 602
3 602 636 635
3 637 601 603
3 603 639 637
3 639 603 606
3 606 642 639
3 642 606 608
3 608 644 642
3 644 608 611
3 611 646 644
3 647 610 612
3 612 648 647
3 648 612 615
3 615 650 648
3 650 615 616
3 616 652 650
3 652 616 620
3 620 654 652
3 655 619 622
3 622 657 655
3 657 622 623
3 623 659 657
3 659 623 626
3 626 662 659
3 662 626 629
3 629 663 662
3 664 627 630
3 630 667 664
3 667 630 597
3 597 632 667
3 744 776 811
3 811 740 744
3 746 779 777
3 777 743 746
3 747 782 779
3 779 746 747
3 749 783 782
3 782 747 749
3 751 786 783
3 783 749 751
3 754 788 787
3 787 753 754
3 757 791 788
3 788 754 757
3 758 792 791
3 791 757 758
3 760 794 792
3 792 758 760
3 764 798 795
3 795 761 764
3 765 800 798
3 798 764 765
3 767 801 800
3 800 765 767
3 771 803 801
3 801 767 771
3 773 807 805
3 805 769 773
3 774 808 807
3 807 773 774
3 740 811 808
3 808 774 740
3 708 586 582
3 582 705 708
3 709 588 586
3 586 708 709
3 712 589 588
3 588 709 712
3 714 591 589
3 589 712 714
3 716 595 593
3 593 715 716
3 719 560 595
3 595 716 719
3 720 563 560
3 560 719 720
3 724 564 563
3 563 720 724
3 726 568 566
3 566 722 726
3 728 570 568
3 568 726 728
3 729 571 570
3 570 728 729
3 733 575 571
3 571 729 733
3 734 577 574
3 574 732 734
3 737 578 577
3 577 734 737
3 739 581 578
3 578 737 739
3 704 583 581
3 581 739 704
3 778 706 738
3 738 810 778
3 741 669 670
3 670 742 741
3 780 707 706
3 706 778 780
3 742 670 673
3 673 745 742
3 781 710 707
3 707 780 781
3 745 673 675
3 675 748 745
3 784 711 710
3 710 781 784
3 748 675 678
3 678 750 748
3 785 713 711
3 711 784 785
3 750 678 679
3 679 752 750
3 789 717 713
3 713 785 789
3 752 679 682
3 682 755 752
3 790 718 717
3 717 789 790
3 755 682 685
3 685 756 755
3 793 721 718
3 718 790 793
3 756 685 686
3 686 759 756
3 796 723 721
3 721 793 796
3 759 686 688
3 688 762 759
3 797 725 723
3 723 796 797
3 762 688 691
3 691 763 762
3 799 727 725
3 725 797 799
3 763 691 694
3 694 766 763
3 802 730 727
3 727 799 802
3 766 694 695
3 695 768 766
3 804 731 730
3 730 802 804
3 768 695 698
3 698 770 768
3 806 735 731
3 731 804 806
3 770 698 700
3 700 772 770
3 809 736 735
3 735 806 809
3 772 700 703
3 703 775 772
3 810 738 736
3 736 809 810
3 775 703 669
3 669 741 775
3 813 468 487
3 487 812 813
3 814 469 468
3 468 813 814
3 816 471 469
3 469 814 816
3 817 472 470
3 470 815 817
3 818 473 472
3 472 817 818
3 819 474 473
3 473 818 819
3 820 476 474
3 474 819 820
3 822 477 475
3 475 821 822
3 823 478 477
3 477 822 823
3 824 479 478
3 478 823 824
3 825 481 479
3 479 824 825
3 827 482 480
3 480 826 827
3 828 483 482
3 482 827 828
3 829 484 483
3 483 828 829
3 831 486 484
3 484 829 831
3 812 487 485
3 485 830 812
3 833 489 523
3 523 832 833
3 834 490 489
3 489 833 834
3 836 492 490
3 490 834 836
3 837 496 494
3 494 835 837
3 838 498 496
3 496 837 838
3 839 499 498
3 498 838 839
3 841 501 499
3 499 839 841
3 842 505 502
3 502 840 842
3 843 506 505
3 505 842 843
3 844 509 506
3 506 843 844
3 846 510 509
3 509 844 846
3 847 513 512
3 512 845 847
3 848 515 513
3 513 847 848
3 849 517 515
3 515 848 849
3 850 521 517
3 517 849 850
3 832 523 520
3 520 851 832
3 962 403 404
3 404 961 962
3 963 402 403
3 403 962 963
3 964 401 402
3 402 963 964
3 965 400 401
3 401 964 965
3 967 398 399
3 399 966 967
3 968 397 398
3 398 967 968
3 969 396 397
3 397 968 969
3 970 394 396
3 396 969 970
3 972 393 395
3 395 971 972
3 973 392 393
3 393 972 973
3 974 391 392
3 392 973 974
3 976 389 391
3 391 974 976
3 977 388 390
3 390 975 977
3 978 407 388
3 388 977 978
3 979 406 407
3 407 978 979
3 960 405 406
3 406 979 960
3 981 413 414
3 414 980 981
3 983 412 413
3 413 981 983
3 984 410 411
3 411 982 984
3 985 409 410
3 410 984 985
3 986 408 409
3 409 985 986
3 988 427 408
3 408 986 988
3 989 425 426
3 426 987 989
3 990 424 425
3 425 989 990
3 991 423 424
3 424 990 991
3 992 422 423
3 423 991 992
3 994 420 421
3 421 993 994
3 995 419 420
3 420 994 995
3 996 418 419
3 419 995 996
3 998 416 418
3 418 996 998
3 999 415 417
3 417 997 999
3 980 414 415
3 415 999 980
3 1001 123 21
3 21 1000 1001
3 1002 115 123
3 123 1001 1002
3 1004 109 116
3 116 1003 1004
3 1005 103 109
3 109 1004 1005
3 1006 95 103
3 103 1005 1006
3 1007 87 95
3 95 1006 1007
3 1009 81 89
3 89 1008 1009
3 1010 77 81
3 81 1009 1010
3 1011 68 77
3 77 1010 1011
3 1012 62 68
3 68 1011 1012
3 1014 53 63
3 63 1013 1014
3 1015 47 53
3 53 1014 1015
3 1016 41 47
3 47 1015 1016
3 1018 32 41
3 41 1016 1018
3 1019 29 33
3 33 1017 1019
3 1000 21 29
3 29 1019 1000
