ply
format ascii 1.0
comment made by meshes/oim_asset_to_ply.py from cup_centered.obj; mm; origin 60.0 mm above the underside, plan bbox centred
element vertex 1058
property float x
property float y
property float z
property float nx
property float ny
property float nz
property uchar red
property uchar green
property uchar blue
element face 2112
property list uchar int vertex_indices
end_header
0.0000 0.0000 -60.0000 0.00000 0.00000 -1.00000 255 0 0
44.0000 0.0000 -60.0000 0.05708 -0.00000 -0.99837 255 0 0
45.3350 0.0000 -59.8500 0.22468 0.00001 -0.97443 255 0 0
46.6030 0.0000 -59.4060 0.43584 -0.00001 -0.90002 255 0 0
47.7410 0.0000 -58.6910 0.62491 -0.00002 -0.78070 255 0 0
48.6910 0.0000 -57.7410 0.78275 -0.00002 -0.62233 255 0 0
49.4060 0.0000 -56.6030 0.90138 -0.00003 -0.43304 255 0 0
49.8500 0.0000 -55.3350 0.97505 0.00002 -0.22198 255 0 0
50.0000 0.0000 -54.0000 0.99844 0.00002 -0.05587 255 0 0
50.0000 0.0000 60.0000 0.71432 -0.00000 0.69982 255 0 0
47.0000 0.0000 60.0000 -0.69956 0.00000 0.71457 255 0 0
47.0000 0.0000 0.0000 -0.71435 -0.00000 0.69979 255 0 0
0.0000 0.0000 0.0000 0.00000 0.00000 1.00000 255 0 0
43.9060 2.8780 -60.0000 0.05696 0.00373 -0.99837 255 0 0
45.2380 2.9650 -59.8500 0.22415 0.01468 -0.97444 255 0 0
46.5040 3.0480 -59.4060 0.43494 0.02848 -0.90001 255 0 0
47.6390 3.1220 -58.6910 0.62363 0.04083 -0.78065 255 0 0
48.5870 3.1850 -57.7410 0.78117 0.05126 -0.62222 255 0 0
49.3000 3.2310 -56.6030 0.89950 0.05903 -0.43292 255 0 0
49.7430 3.2600 -55.3350 0.97294 0.06381 -0.22205 255 0 0
49.8930 3.2700 -54.0000 0.99629 0.06534 -0.05597 255 0 0
49.8930 3.2700 60.0000 0.71280 0.04675 0.69980 255 0 0
46.8990 3.0740 60.0000 -0.69812 -0.04574 0.71451 255 0 0
46.8990 3.0740 0.0000 -0.71276 -0.04670 0.69985 255 0 0
43.6240 5.7430 -60.0000 0.05661 0.00745 -0.99837 255 0 0
44.9470 5.9170 -59.8500 0.22268 0.02931 -0.97445 255 0 0
46.2050 6.0830 -59.4060 0.43210 0.05689 -0.90003 255 0 0
47.3330 6.2310 -58.6910 0.61975 0.08162 -0.78054 255 0 0
48.2740 6.3550 -57.7410 0.77615 0.10223 -0.62220 255 0 0
48.9830 6.4490 -56.6030 0.89366 0.11770 -0.43304 255 0 0
49.4230 6.5070 -55.3350 0.96670 0.12730 -0.22201 255 0 0
49.5720 6.5260 -54.0000 0.98989 0.13034 -0.05592 255 0 0
49.5720 6.5260 60.0000 0.70820 0.09326 0.69983 255 0 0
46.5980 6.1350 60.0000 -0.69359 -0.09127 0.71457 255 0 0
46.5980 6.1350 0.0000 -0.70824 -0.09319 0.69980 255 0 0
43.1550 8.5840 -60.0000 0.05600 0.01114 -0.99837 255 0 0
44.4640 8.8440 -59.8500 0.22033 0.04383 -0.97444 255 0 0
45.7080 9.0920 -59.4060 0.42746 0.08506 -0.90003 255 0 0
46.8240 9.3140 -58.6910 0.61307 0.12201 -0.78055 255 0 0
47.7550 9.4990 -57.7410 0.76783 0.15272 -0.62219 255 0 0
48.4560 9.6390 -56.6030 0.88403 0.17584 -0.43310 255 0 0
48.8920 9.7250 -55.3350 0.95629 0.19019 -0.22211 255 0 0
49.0390 9.7550 -54.0000 0.97925 0.19480 -0.05587 255 0 0
49.0390 9.7550 60.0000 0.70060 0.13936 0.69981 255 0 0
46.0970 9.1690 60.0000 -0.68617 -0.13646 0.71453 255 0 0
46.0970 9.1690 0.0000 -0.70059 -0.13933 0.69983 255 0 0
42.5010 11.3880 -60.0000 0.05515 0.01478 -0.99837 255 0 0
43.7900 11.7340 -59.8500 0.21702 0.05817 -0.97443 255 0 0
45.0150 12.0620 -59.4060 0.42103 0.11285 -0.90000 255 0 0
46.1140 12.3560 -58.6910 0.60361 0.16175 -0.78070 255 0 0
47.0320 12.6020 -57.7410 0.75613 0.20257 -0.62227 255 0 0
47.7220 12.7870 -56.6030 0.87071 0.23327 -0.43296 255 0 0
48.1510 12.9020 -55.3350 0.94181 0.25235 -0.22205 255 0 0
48.2960 12.9410 -54.0000 0.96443 0.25836 -0.05594 255 0 0
48.2960 12.9410 60.0000 0.68997 0.18481 0.69985 255 0 0
45.3990 12.1640 60.0000 -0.67575 -0.18102 0.71456 255 0 0
45.3990 12.1640 0.0000 -0.69000 -0.18484 0.69981 255 0 0
41.6650 14.1430 -60.0000 0.05405 0.01835 -0.99837 255 0 0
42.9290 14.5720 -59.8500 0.21274 0.07220 -0.97444 255 0 0
44.1300 14.9800 -59.4060 0.41277 0.14010 -0.90000 255 0 0
45.2070 15.3460 -58.6910 0.59175 0.20084 -0.78070 255 0 0
46.1070 15.6510 -57.7410 0.74120 0.25153 -0.62238 255 0 0
46.7840 15.8810 -56.6030 0.85359 0.28970 -0.43296 255 0 0
47.2040 16.0240 -55.3350 0.92328 0.31337 -0.22214 255 0 0
47.3470 16.0720 -54.0000 0.94546 0.32086 -0.05613 255 0 0
47.3470 16.0720 60.0000 0.67646 0.22960 0.69977 255 0 0
44.5060 15.1080 60.0000 -0.66241 -0.22494 0.71458 255 0 0
44.5060 15.1080 0.0000 -0.67641 -0.22970 0.69979 255 0 0
40.6510 16.8380 -60.0000 0.05275 0.02185 -0.99837 255 0 0
41.8840 17.3490 -59.8500 0.20756 0.08596 -0.97444 255 0 0
43.0560 17.8340 -59.4060 0.40269 0.16678 -0.90002 255 0 0
44.1070 18.2700 -58.6910 0.57734 0.23911 -0.78071 255 0 0
44.9850 18.6330 -57.7410 0.72322 0.29955 -0.62227 255 0 0
45.6450 18.9070 -56.6030 0.83283 0.34495 -0.43291 255 0 0
46.0550 19.0770 -55.3350 0.90082 0.37313 -0.22202 255 0 0
46.1940 19.1340 -54.0000 0.92241 0.38213 -0.05594 255 0 0
46.1940 19.1340 60.0000 0.65991 0.27338 0.69984 255 0 0
43.4220 17.9860 60.0000 -0.64637 -0.26776 0.71450 255 0 0
43.4220 17.9860 0.0000 -0.65990 -0.27337 0.69986 255 0 0
39.4620 19.4610 -60.0000 0.05118 0.02524 -0.99837 255 0 0
40.6600 20.0510 -59.8500 0.20152 0.09938 -0.97443 255 0 0
41.7970 20.6120 -59.4060 0.39089 0.19274 -0.90003 255 0 0
42.8180 21.1150 -58.6910 0.56047 0.27640 -0.78069 255 0 0
43.6700 21.5350 -57.7410 0.70202 0.34620 -0.62234 255 0 0
44.3110 21.8520 -56.6030 0.80845 0.39867 -0.43298 255 0 0
44.7090 22.0480 -55.3350 0.87450 0.43126 -0.22194 255 0 0
44.8440 22.1140 -54.0000 0.89546 0.44160 -0.05594 255 0 0
44.8440 22.1140 60.0000 0.64067 0.31596 0.69980 255 0 0
42.1530 20.7880 60.0000 -0.62742 -0.30939 0.71458 255 0 0
42.1530 20.7880 0.0000 -0.64069 -0.31593 0.69978 255 0 0
38.1050 22.0000 -60.0000 0.04942 0.02853 -0.99837 255 0 0
39.2610 22.6680 -59.8500 0.19453 0.11228 -0.97445 255 0 0
40.3600 23.3020 -59.4060 0.37753 0.21800 -0.89997 255 0 0
41.3450 23.8700 -58.6910 0.54123 0.31255 -0.78063 255 0 0
42.1680 24.3450 -57.7410 0.67782 0.39137 -0.62241 255 0 0
42.7870 24.7030 -56.6030 0.78061 0.45082 -0.43291 255 0 0
43.1710 24.9250 -55.3350 0.84438 0.48765 -0.22188 255 0 0
43.3010 25.0000 -54.0000 0.86464 0.49928 -0.05591 255 0 0
43.3010 25.0000 60.0000 0.61859 0.35718 0.69983 255 0 0
40.7030 23.5000 60.0000 -0.60587 -0.34982 0.71452 255 0 0
40.7030 23.5000 0.0000 -0.61860 -0.35717 0.69984 255 0 0
36.5850 24.4450 -60.0000 0.04746 0.03170 -0.99837 255 0 0
37.6950 25.1870 -59.8500 0.18686 0.12488 -0.97442 255 0 0
38.7490 25.8910 -59.4060 0.36247 0.24223 -0.89997 255 0 0
39.6950 26.5230 -58.6910 0.51959 0.34718 -0.78070 255 0 0
40.4850 27.0510 -57.7410 0.65085 0.43496 -0.62226 255 0 0
41.0790 27.4480 -56.6030 0.74947 0.50088 -0.43291 255 0 0
41.4480 27.6950 -55.3350 0.81066 0.54173 -0.22216 255 0 0
41.5730 27.7790 -54.0000 0.83017 0.55467 -0.05610 255 0 0
41.5730 27.7790 60.0000 0.59396 0.39681 0.69982 255 0 0
39.0790 26.1120 60.0000 -0.58173 -0.38862 0.71454 255 0 0
39.0790 26.1120 0.0000 -0.59397 -0.39680 0.69982 255 0 0
34.9080 26.7860 -60.0000 0.04530 0.03477 -0.99837 255 0 0
35.9670 27.5980 -59.8500 0.17828 0.13678 -0.97443 255 0 0
36.9730 28.3700 -59.4060 0.34588 0.26536 -0.89997 255 0 0
37.8750 29.0630 -58.6910 0.49584 0.38040 -0.78067 255 0 0
38.6290 29.6410 -57.7410 0.62109 0.47650 -0.62225 255 0 0
39.1960 30.0760 -56.6030 0.71521 0.54873 -0.43287 255 0 0
39.5480 30.3460 -55.3350 0.77356 0.59347 -0.22226 255 0 0
39.6680 30.4380 -54.0000 0.79213 0.60776 -0.05625 255 0 0
39.6680 30.4380 60.0000 0.56673 0.43487 0.69979 255 0 0
37.2880 28.6120 60.0000 -0.55494 -0.42590 0.71460 255 0 0
37.2880 28.6120 0.0000 -0.56671 -0.43493 0.69977 255 0 0
33.0810 29.0110 -60.0000 0.04289 0.03761 -0.99837 255 0 0
34.0850 29.8920 -59.8500 0.16895 0.14815 -0.97443 255 0 0
35.0380 30.7280 -59.4060 0.32774 0.28734 -0.90001 255 0 0
35.8940 31.4780 -58.6910 0.46992 0.41205 -0.78063 255 0 0
36.6080 32.1040 -57.7410 0.58860 0.51610 -0.62225 255 0 0
37.1450 32.5760 -56.6030 0.67777 0.59433 -0.43290 255 0 0
37.4790 32.8680 -55.3350 0.73309 0.64288 -0.22199 255 0 0
37.5920 32.9670 -54.0000 0.75061 0.65838 -0.05592 255 0 0
37.5920 32.9670 60.0000 0.53701 0.47104 0.69982 255 0 0
35.3360 30.9890 60.0000 -0.52598 -0.46135 0.71449 255 0 0
35.3360 30.9890 0.0000 -0.53698 -0.47099 0.69987 255 0 0
31.1130 31.1130 -60.0000 0.04036 0.04036 -0.99837 255 0 0
32.0570 32.0570 -59.8500 0.15885 0.15883 -0.97444 255 0 0
32.9540 32.9540 -59.4060 0.30826 0.30829 -0.89996 255 0 0
33.7580 33.7580 -58.6910 0.44192 0.44192 -0.78065 255 0 0
34.4300 34.4300 -57.7410 0.55355 0.55357 -0.62221 255 0 0
34.9350 34.9350 -56.6030 0.63742 0.63744 -0.43286 255 0 0
35.2490 35.2490 -55.3350 0.68947 0.68947 -0.22195 255 0 0
35.3550 35.3550 -54.0000 0.70599 0.70602 -0.05583 255 0 0
35.3550 35.3550 60.0000 0.50509 0.50509 0.69984 255 0 0
33.2340 33.2340 60.0000 -0.49466 -0.49466 0.71458 255 0 0
33.2340 33.2340 0.0000 -0.50513 -0.50513 0.69978 255 0 0
29.0110 33.0810 -60.0000 0.03762 0.04288 -0.99837 255 0 0
29.8920 34.0850 -59.8500 0.14814 0.16895 -0.97443 255 0 0
30.7280 35.0380 -59.4060 0.28738 0.32773 -0.90000 255 0 0
31.4780 35.8940 -58.6910 0.41204 0.46991 -0.78064 255 0 0
32.1040 36.6080 -57.7410 0.51611 0.58861 -0.62223 255 0 0
32.5760 37.1450 -56.6030 0.59434 0.67774 -0.43293 255 0 0
32.8680 37.4790 -55.3350 0.64285 0.73314 -0.22192 255 0 0
32.9670 37.5920 -54.0000 0.65835 0.75063 -0.05598 255 0 0
32.9670 37.5920 60.0000 0.47104 0.53701 0.69982 255 0 0
30.9890 35.3360 60.0000 -0.46135 -0.52598 0.71449 255 0 0
30.9890 35.3360 0.0000 -0.47099 -0.53698 0.69987 255 0 0
26.7860 34.9080 -60.0000 0.03476 0.04530 -0.99837 255 0 0
27.5980 35.9670 -59.8500 0.13678 0.17827 -0.97443 255 0 0
28.3700 36.9730 -59.4060 0.26535 0.34588 -0.89998 255 0 0
29.0630 37.8750 -58.6910 0.38041 0.49586 -0.78065 255 0 0
29.6410 38.6290 -57.7410 0.47650 0.62106 -0.62228 255 0 0
30.0760 39.1960 -56.6030 0.54871 0.71524 -0.43283 255 0 0
30.3460 39.5480 -55.3350 0.59352 0.77352 -0.22226 255 0 0
30.4380 39.6680 -54.0000 0.60783 0.79207 -0.05627 255 0 0
30.4380 39.6680 60.0000 0.43487 0.56673 0.69979 255 0 0
28.6120 37.2880 60.0000 -0.42590 -0.55494 0.71460 255 0 0
28.6120 37.2880 0.0000 -0.43493 -0.56671 0.69977 255 0 0
24.4450 36.5850 -60.0000 0.03171 0.04746 -0.99837 255 0 0
25.1870 37.6950 -59.8500 0.12485 0.18688 -0.97442 255 0 0
25.8910 38.7490 -59.4060 0.24222 0.36246 -0.89998 255 0 0
26.5230 39.6950 -58.6910 0.34722 0.51958 -0.78069 255 0 0
27.0510 40.4850 -57.7410 0.43493 0.65087 -0.62225 255 0 0
27.4480 41.0790 -56.6030 0.50088 0.74946 -0.43293 255 0 0
27.6950 41.4480 -55.3350 0.54176 0.81063 -0.22221 255 0 0
27.7790 41.5730 -54.0000 0.55467 0.83018 -0.05605 255 0 0
27.7790 41.5730 60.0000 0.39681 0.59396 0.69982 255 0 0
26.1120 39.0790 60.0000 -0.38862 -0.58173 0.71454 255 0 0
26.1120 39.0790 0.0000 -0.39680 -0.59397 0.69982 255 0 0
22.0000 38.1050 -60.0000 0.02853 0.04943 -0.99837 255 0 0
22.6680 39.2610 -59.8500 0.11232 0.19451 -0.97445 255 0 0
23.3020 40.3600 -59.4060 0.21799 0.37755 -0.89997 255 0 0
23.8700 41.3450 -58.6910 0.31251 0.54123 -0.78065 255 0 0
24.3450 42.1680 -57.7410 0.39142 0.67781 -0.62238 255 0 0
24.7030 42.7870 -56.6030 0.45080 0.78060 -0.43295 255 0 0
24.9250 43.1710 -55.3350 0.48759 0.84441 -0.22187 255 0 0
25.0000 43.3010 -54.0000 0.49925 0.86466 -0.05589 255 0 0
25.0000 43.3010 60.0000 0.35718 0.61859 0.69983 255 0 0
23.5000 40.7030 60.0000 -0.34982 -0.60587 0.71452 255 0 0
23.5000 40.7030 0.0000 -0.35717 -0.61860 0.69984 255 0 0
19.4610 39.4620 -60.0000 0.02524 0.05117 -0.99837 255 0 0
20.0510 40.6600 -59.8500 0.09936 0.20153 -0.97443 255 0 0
20.6120 41.7970 -59.4060 0.19277 0.39090 -0.90002 255 0 0
21.1150 42.8180 -58.6910 0.27641 0.56044 -0.78071 255 0 0
21.5350 43.6700 -57.7410 0.34620 0.70202 -0.62235 255 0 0
21.8520 44.3110 -56.6030 0.39869 0.80846 -0.43295 255 0 0
22.0480 44.7090 -55.3350 0.43127 0.87450 -0.22195 255 0 0
22.1140 44.8440 -54.0000 0.44162 0.89546 -0.05595 255 0 0
22.1140 44.8440 60.0000 0.31596 0.64067 0.69980 255 0 0
20.7880 42.1530 60.0000 -0.30939 -0.62742 0.71458 255 0 0
20.7880 42.1530 0.0000 -0.31593 -0.64069 0.69978 255 0 0
16.8380 40.6510 -60.0000 0.02184 0.05275 -0.99837 255 0 0
17.3490 41.8840 -59.8500 0.08597 0.20757 -0.97444 255 0 0
17.8340 43.0560 -59.4060 0.16678 0.40266 -0.90003 255 0 0
18.2700 44.1070 -58.6910 0.23912 0.57736 -0.78069 255 0 0
18.6330 44.9850 -57.7410 0.29951 0.72323 -0.62228 255 0 0
18.9070 45.6450 -56.6030 0.34493 0.83283 -0.43291 255 0 0
19.0770 46.0550 -55.3350 0.37312 0.90083 -0.22200 255 0 0
19.1340 46.1940 -54.0000 0.38209 0.92243 -0.05596 255 0 0
19.1340 46.1940 60.0000 0.27338 0.65991 0.69984 255 0 0
17.9860 43.4220 60.0000 -0.26776 -0.64637 0.71450 255 0 0
17.9860 43.4220 0.0000 -0.27337 -0.65990 0.69986 255 0 0
14.1430 41.6650 -60.0000 0.01835 0.05405 -0.99837 255 0 0
14.5720 42.9290 -59.8500 0.07221 0.21273 -0.97444 255 0 0
14.9800 44.1300 -59.4060 0.14009 0.41277 -0.90000 255 0 0
15.3460 45.2070 -58.6910 0.20083 0.59177 -0.78069 255 0 0
15.6510 46.1070 -57.7410 0.25158 0.74117 -0.62239 255 0 0
15.8810 46.7840 -56.6030 0.28971 0.85360 -0.43294 255 0 0
16.0240 47.2040 -55.3350 0.31340 0.92327 -0.22216 255 0 0
16.0720 47.3470 -54.0000 0.32093 0.94544 -0.05613 255 0 0
16.0720 47.3470 60.0000 0.22960 0.67646 0.69977 255 0 0
15.1080 44.5060 60.0000 -0.22494 -0.66241 0.71458 255 0 0
15.1080 44.5060 0.0000 -0.22970 -0.67641 0.69979 255 0 0
11.3880 42.5010 -60.0000 0.01478 0.05515 -0.99837 255 0 0
11.7340 43.7900 -59.8500 0.05816 0.21703 -0.97443 255 0 0
12.0620 45.0150 -59.4060 0.11284 0.42104 -0.90000 255 0 0
12.3560 46.1140 -58.6910 0.16179 0.60356 -0.78073 255 0 0
12.6020 47.0320 -57.7410 0.20257 0.75615 -0.62225 255 0 0
12.7870 47.7220 -56.6030 0.23324 0.87073 -0.43293 255 0 0
12.9020 48.1510 -55.3350 0.25233 0.94180 -0.22212 255 0 0
12.9410 48.2960 -54.0000 0.25833 0.96444 -0.05590 255 0 0
12.9410 48.2960 60.0000 0.18481 0.68997 0.69985 255 0 0
12.1640 45.3990 60.0000 -0.18102 -0.67575 0.71456 255 0 0
12.1640 45.3990 0.0000 -0.18484 -0.69000 0.69981 255 0 0
8.5840 43.1550 -60.0000 0.01114 0.05600 -0.99837 255 0 0
8.8440 44.4640 -59.8500 0.04383 0.22035 -0.97444 255 0 0
9.0920 45.7080 -59.4060 0.08507 0.42744 -0.90003 255 0 0
9.3140 46.8240 -58.6910 0.12197 0.61305 -0.78057 255 0 0
9.4990 47.7550 -57.7410 0.15269 0.76788 -0.62213 255 0 0
9.6390 48.4560 -56.6030 0.17588 0.88400 -0.43315 255 0 0
9.7250 48.8920 -55.3350 0.19022 0.95629 -0.22209 255 0 0
9.7550 49.0390 -54.0000 0.19478 0.97925 -0.05587 255 0 0
9.7550 49.0390 60.0000 0.13936 0.70060 0.69981 255 0 0
9.1690 46.0970 60.0000 -0.13646 -0.68617 0.71453 255 0 0
9.1690 46.0970 0.0000 -0.13933 -0.70059 0.69983 255 0 0
5.7430 43.6240 -60.0000 0.00745 0.05661 -0.99837 255 0 0
5.9170 44.9470 -59.8500 0.02932 0.22269 -0.97445 255 0 0
6.0830 46.2050 -59.4060 0.05690 0.43208 -0.90004 255 0 0
6.2310 47.3330 -58.6910 0.08158 0.61979 -0.78052 255 0 0
6.3550 48.2740 -57.7410 0.10224 0.77612 -0.62224 255 0 0
6.4490 48.9830 -56.6030 0.11771 0.89365 -0.43305 255 0 0
6.5070 49.4230 -55.3350 0.12726 0.96671 -0.22198 255 0 0
6.5260 49.5720 -54.0000 0.13034 0.98989 -0.05593 255 0 0
6.5260 49.5720 60.0000 0.09326 0.70820 0.69983 255 0 0
6.1350 46.5980 60.0000 -0.09127 -0.69359 0.71457 255 0 0
6.1350 46.5980 0.0000 -0.09319 -0.70824 0.69980 255 0 0
2.8780 43.9060 -60.0000 0.00373 0.05696 -0.99837 255 0 0
2.9650 45.2380 -59.8500 0.01469 0.22413 -0.97445 255 0 0
3.0480 46.5040 -59.4060 0.02846 0.43496 -0.90000 255 0 0
3.1220 47.6390 -58.6910 0.04085 0.62365 -0.78064 255 0 0
3.1850 48.5870 -57.7410 0.05124 0.78114 -0.62225 255 0 0
3.2310 49.3000 -56.6030 0.05898 0.89951 -0.43291 255 0 0
3.2600 49.7430 -55.3350 0.06384 0.97294 -0.22207 255 0 0
3.2700 49.8930 -54.0000 0.06536 0.99629 -0.05596 255 0 0
3.2700 49.8930 60.0000 0.04675 0.71280 0.69980 255 0 0
3.0740 46.8990 60.0000 -0.04574 -0.69812 0.71451 255 0 0
3.0740 46.8990 0.0000 -0.04670 -0.71276 0.69985 255 0 0
0.0000 44.0000 -60.0000 0.00000 0.05708 -0.99837 255 0 0
0.0000 45.3350 -59.8500 -0.00001 0.22468 -0.97443 255 0 0
0.0000 46.6030 -59.4060 0.00001 0.43584 -0.90002 255 0 0
0.0000 47.7410 -58.6910 0.00002 0.62491 -0.78070 255 0 0
0.0000 48.6910 -57.7410 0.00002 0.78275 -0.62233 255 0 0
0.0000 49.4060 -56.6030 0.00003 0.90138 -0.43304 255 0 0
0.0000 49.8500 -55.3350 -0.00002 0.97505 -0.22198 255 0 0
0.0000 50.0000 -54.0000 -0.00002 0.99844 -0.05587 255 0 0
0.0000 50.0000 60.0000 0.00000 0.71432 0.69982 255 0 0
0.0000 47.0000 60.0000 -0.00000 -0.69956 0.71457 255 0 0
0.0000 47.0000 0.0000 0.00000 -0.71435 0.69979 255 0 0
-2.8780 43.9060 -60.0000 -0.00373 0.05696 -0.99837 255 0 0
-2.9650 45.2380 -59.8500 -0.01468 0.22415 -0.97444 255 0 0
-3.0480 46.5040 -59.4060 -0.02848 0.43494 -0.90001 255 0 0
-3.1220 47.6390 -58.6910 -0.04083 0.62363 -0.78065 255 0 0
-3.1850 48.5870 -57.7410 -0.05126 0.78117 -0.62222 255 0 0
-3.2310 49.3000 -56.6030 -0.05903 0.89950 -0.43292 255 0 0
-3.2600 49.7430 -55.3350 -0.06381 0.97294 -0.22205 255 0 0
-3.2700 49.8930 -54.0000 -0.06534 0.99629 -0.05597 255 0 0
-3.2700 49.8930 60.0000 -0.04675 0.71280 0.69980 255 0 0
-3.0740 46.8990 60.0000 0.04574 -0.69812 0.71451 255 0 0
-3.0740 46.8990 0.0000 0.04670 -0.71276 0.69985 255 0 0
-5.7430 43.6240 -60.0000 -0.00745 0.05661 -0.99837 255 0 0
-5.9170 44.9470 -59.8500 -0.02931 0.22268 -0.97445 255 0 0
-6.0830 46.2050 -59.4060 -0.05689 0.43210 -0.90003 255 0 0
-6.2310 47.3330 -58.6910 -0.08162 0.61975 -0.78054 255 0 0
-6.3550 48.2740 -57.7410 -0.10223 0.77615 -0.62220 255 0 0
-6.4490 48.9830 -56.6030 -0.11770 0.89366 -0.43304 255 0 0
-6.5070 49.4230 -55.3350 -0.12730 0.96670 -0.22201 255 0 0
-6.5260 49.5720 -54.0000 -0.13034 0.98989 -0.05592 255 0 0
-6.5260 49.5720 60.0000 -0.09326 0.70820 0.69983 255 0 0
-6.1350 46.5980 60.0000 0.09127 -0.69359 0.71457 255 0 0
-6.1350 46.5980 0.0000 0.09319 -0.70824 0.69980 255 0 0
-8.5840 43.1550 -60.0000 -0.01114 0.05600 -0.99837 255 0 0
-8.8440 44.4640 -59.8500 -0.04383 0.22033 -0.97444 255 0 0
-9.0920 45.7080 -59.4060 -0.08506 0.42746 -0.90003 255 0 0
-9.3140 46.8240 -58.6910 -0.12201 0.61307 -0.78055 255 0 0
-9.4990 47.7550 -57.7410 -0.15272 0.76783 -0.62219 255 0 0
-9.6390 48.4560 -56.6030 -0.17584 0.88403 -0.43310 255 0 0
-9.7250 48.8920 -55.3350 -0.19019 0.95629 -0.22211 255 0 0
-9.7550 49.0390 -54.0000 -0.19480 0.97925 -0.05587 255 0 0
-9.7550 49.0390 60.0000 -0.13936 0.70060 0.69981 255 0 0
-9.1690 46.0970 60.0000 0.13646 -0.68617 0.71453 255 0 0
-9.1690 46.0970 0.0000 0.13933 -0.70059 0.69983 255 0 0
-11.3880 42.5010 -60.0000 -0.01478 0.05515 -0.99837 255 0 0
-11.7340 43.7900 -59.8500 -0.05817 0.21702 -0.97443 255 0 0
-12.0620 45.0150 -59.4060 -0.11285 0.42103 -0.90000 255 0 0
-12.3560 46.1140 -58.6910 -0.16175 0.60361 -0.78070 255 0 0
-12.6020 47.0320 -57.7410 -0.20257 0.75613 -0.62227 255 0 0
-12.7870 47.7220 -56.6030 -0.23327 0.87071 -0.43296 255 0 0
-12.9020 48.1510 -55.3350 -0.25235 0.94181 -0.22205 255 0 0
-12.9410 48.2960 -54.0000 -0.25836 0.96443 -0.05594 255 0 0
-12.9410 48.2960 60.0000 -0.18481 0.68997 0.69985 255 0 0
-12.1640 45.3990 60.0000 0.18102 -0.67575 0.71456 255 0 0
-12.1640 45.3990 0.0000 0.18484 -0.69000 0.69981 255 0 0
-14.1430 41.6650 -60.0000 -0.01835 0.05405 -0.99837 255 0 0
-14.5720 42.9290 -59.8500 -0.07220 0.21274 -0.97444 255 0 0
-14.9800 44.1300 -59.4060 -0.14010 0.41277 -0.90000 255 0 0
-15.3460 45.2070 -58.6910 -0.20084 0.59175 -0.78070 255 0 0
-15.6510 46.1070 -57.7410 -0.25153 0.74120 -0.62238 255 0 0
-15.8810 46.7840 -56.6030 -0.28970 0.85359 -0.43296 255 0 0
-16.0240 47.2040 -55.3350 -0.31337 0.92328 -0.22214 255 0 0
-16.0720 47.3470 -54.0000 -0.32086 0.94546 -0.05613 255 0 0
-16.0720 47.3470 60.0000 -0.22960 0.67646 0.69977 255 0 0
-15.1080 44.5060 60.0000 0.22494 -0.66241 0.71458 255 0 0
-15.1080 44.5060 0.0000 0.22970 -0.67641 0.69979 255 0 0
-16.8380 40.6510 -60.0000 -0.02185 0.05275 -0.99837 255 0 0
-17.3490 41.8840 -59.8500 -0.08596 0.20756 -0.97444 255 0 0
-17.8340 43.0560 -59.4060 -0.16678 0.40269 -0.90002 255 0 0
-18.2700 44.1070 -58.6910 -0.23911 0.57734 -0.78071 255 0 0
-18.6330 44.9850 -57.7410 -0.29955 0.72322 -0.62227 255 0 0
-18.9070 45.6450 -56.6030 -0.34495 0.83283 -0.43291 255 0 0
-19.0770 46.0550 -55.3350 -0.37313 0.90082 -0.22202 255 0 0
-19.1340 46.1940 -54.0000 -0.38213 0.92241 -0.05594 255 0 0
-19.1340 46.1940 60.0000 -0.27338 0.65991 0.69984 255 0 0
-17.9860 43.4220 60.0000 0.26776 -0.64637 0.71450 255 0 0
-17.9860 43.4220 0.0000 0.27337 -0.65990 0.69986 255 0 0
-19.4610 39.4620 -60.0000 -0.02524 0.05118 -0.99837 255 0 0
-20.0510 40.6600 -59.8500 -0.09938 0.20152 -0.97443 255 0 0
-20.6120 41.7970 -59.4060 -0.19274 0.39089 -0.90003 255 0 0
-21.1150 42.8180 -58.6910 -0.27640 0.56047 -0.78069 255 0 0
-21.5350 43.6700 -57.7410 -0.34620 0.70202 -0.62234 255 0 0
-21.8520 44.3110 -56.6030 -0.39867 0.80845 -0.43298 255 0 0
-22.0480 44.7090 -55.3350 -0.43126 0.87450 -0.22194 255 0 0
-22.1140 44.8440 -54.0000 -0.44160 0.89546 -0.05594 255 0 0
-22.1140 44.8440 60.0000 -0.31596 0.64067 0.69980 255 0 0
-20.7880 42.1530 60.0000 0.30939 -0.62742 0.71458 255 0 0
-20.7880 42.1530 0.0000 0.31593 -0.64069 0.69978 255 0 0
-22.0000 38.1050 -60.0000 -0.02853 0.04942 -0.99837 255 0 0
-22.6680 39.2610 -59.8500 -0.11228 0.19453 -0.97445 255 0 0
-23.3020 40.3600 -59.4060 -0.21800 0.37753 -0.89997 255 0 0
-23.8700 41.3450 -58.6910 -0.31255 0.54123 -0.78063 255 0 0
-24.3450 42.1680 -57.7410 -0.39137 0.67782 -0.62241 255 0 0
-24.7030 42.7870 -56.6030 -0.45082 0.78061 -0.43291 255 0 0
-24.9250 43.1710 -55.3350 -0.48765 0.84438 -0.22188 255 0 0
-25.0000 43.3010 -54.0000 -0.49928 0.86464 -0.05591 255 0 0
-25.0000 43.3010 60.0000 -0.35718 0.61859 0.69983 255 0 0
-23.5000 40.7030 60.0000 0.34982 -0.60587 0.71452 255 0 0
-23.5000 40.7030 0.0000 0.35717 -0.61860 0.69984 255 0 0
-24.4450 36.5850 -60.0000 -0.03170 0.04746 -0.99837 255 0 0
-25.1870 37.6950 -59.8500 -0.12488 0.18686 -0.97442 255 0 0
-25.8910 38.7490 -59.4060 -0.24223 0.36247 -0.89997 255 0 0
-26.5230 39.6950 -58.6910 -0.34718 0.51959 -0.78070 255 0 0
-27.0510 40.4850 -57.7410 -0.43496 0.65085 -0.62226 255 0 0
-27.4480 41.0790 -56.6030 -0.50088 0.74947 -0.43291 255 0 0
-27.6950 41.4480 -55.3350 -0.54173 0.81066 -0.22216 255 0 0
-27.7790 41.5730 -54.0000 -0.55467 0.83017 -0.05610 255 0 0
-27.7790 41.5730 60.0000 -0.39681 0.59396 0.69982 255 0 0
-26.1120 39.0790 60.0000 0.38862 -0.58173 0.71454 255 0 0
-26.1120 39.0790 0.0000 0.39680 -0.59397 0.69982 255 0 0
-26.7860 34.9080 -60.0000 -0.03477 0.04530 -0.99837 255 0 0
-27.5980 35.9670 -59.8500 -0.13678 0.17828 -0.97443 255 0 0
-28.3700 36.9730 -59.4060 -0.26536 0.34588 -0.89997 255 0 0
-29.0630 37.8750 -58.6910 -0.38040 0.49584 -0.78067 255 0 0
-29.6410 38.6290 -57.7410 -0.47650 0.62109 -0.62225 255 0 0
-30.0760 39.1960 -56.6030 -0.54873 0.71521 -0.43287 255 0 0
-30.3460 39.5480 -55.3350 -0.59347 0.77356 -0.22226 255 0 0
-30.4380 39.6680 -54.0000 -0.60776 0.79213 -0.05625 255 0 0
-30.4380 39.6680 60.0000 -0.43487 0.56673 0.69979 255 0 0
-28.6120 37.2880 60.0000 0.42590 -0.55494 0.71460 255 0 0
-28.6120 37.2880 0.0000 0.43493 -0.56671 0.69977 255 0 0
-29.0110 33.0810 -60.0000 -0.03761 0.04289 -0.99837 255 0 0
-29.8920 34.0850 -59.8500 -0.14815 0.16895 -0.97443 255 0 0
-30.7280 35.0380 -59.4060 -0.28734 0.32774 -0.90001 255 0 0
-31.4780 35.8940 -58.6910 -0.41205 0.46992 -0.78063 255 0 0
-32.1040 36.6080 -57.7410 -0.51610 0.58860 -0.62225 255 0 0
-32.5760 37.1450 -56.6030 -0.59433 0.67777 -0.43290 255 0 0
-32.8680 37.4790 -55.3350 -0.64288 0.73309 -0.22199 255 0 0
-32.9670 37.5920 -54.0000 -0.65838 0.75061 -0.05592 255 0 0
-32.9670 37.5920 60.0000 -0.47104 0.53701 0.69982 255 0 0
-30.9890 35.3360 60.0000 0.46135 -0.52598 0.71449 255 0 0
-30.9890 35.3360 0.0000 0.47099 -0.53698 0.69987 255 0 0
-31.1130 31.1130 -60.0000 -0.04036 0.04036 -0.99837 255 0 0
-32.0570 32.0570 -59.8500 -0.15883 0.15885 -0.97444 255 0 0
-32.9540 32.9540 -59.4060 -0.30829 0.30826 -0.89996 255 0 0
-33.7580 33.7580 -58.6910 -0.44192 0.44192 -0.78065 255 0 0
-34.4300 34.4300 -57.7410 -0.55357 0.55355 -0.62221 255 0 0
-34.9350 34.9350 -56.6030 -0.63744 0.63742 -0.43286 255 0 0
-35.2490 35.2490 -55.3350 -0.68947 0.68947 -0.22195 255 0 0
-35.3550 35.3550 -54.0000 -0.70602 0.70599 -0.05583 255 0 0
-35.3550 35.3550 60.0000 -0.50509 0.50509 0.69984 255 0 0
-33.2340 33.2340 60.0000 0.49466 -0.49466 0.71458 255 0 0
-33.2340 33.2340 0.0000 0.50513 -0.50513 0.69978 255 0 0
-33.0810 29.0110 -60.0000 -0.04288 0.03762 -0.99837 255 0 0
-34.0850 29.8920 -59.8500 -0.16895 0.14814 -0.97443 255 0 0
-35.0380 30.7280 -59.4060 -0.32773 0.28738 -0.90000 255 0 0
-35.8940 31.4780 -58.6910 -0.46991 0.41204 -0.78064 255 0 0
-36.6080 32.1040 -57.7410 -0.58861 0.51611 -0.62223 255 0 0
-37.1450 32.5760 -56.6030 -0.67774 0.59434 -0.43293 255 0 0
-37.4790 32.8680 -55.3350 -0.73314 0.64285 -0.22192 255 0 0
-37.5920 32.9670 -54.0000 -0.75063 0.65835 -0.05598 255 0 0
-37.5920 32.9670 60.0000 -0.53701 0.47104 0.69982 255 0 0
-35.3360 30.9890 60.0000 0.52598 -0.46135 0.71449 255 0 0
-35.3360 30.9890 0.0000 0.53698 -0.47099 0.69987 255 0 0
-34.9080 26.7860 -60.0000 -0.04530 0.03476 -0.99837 255 0 0
-35.9670 27.5980 -59.8500 -0.17827 0.13678 -0.97443 255 0 0
-36.9730 28.3700 -59.4060 -0.34588 0.26535 -0.89998 255 0 0
-37.8750 29.0630 -58.6910 -0.49586 0.38041 -0.78065 255 0 0
-38.6290 29.6410 -57.7410 -0.62106 0.47650 -0.62228 255 0 0
-39.1960 30.0760 -56.6030 -0.71524 0.54871 -0.43283 255 0 0
-39.5480 30.3460 -55.3350 -0.77352 0.59352 -0.22226 255 0 0
-39.6680 30.4380 -54.0000 -0.79207 0.60783 -0.05627 255 0 0
-39.6680 30.4380 60.0000 -0.56673 0.43487 0.69979 255 0 0
-37.2880 28.6120 60.0000 0.55494 -0.42590 0.71460 255 0 0
-37.2880 28.6120 0.0000 0.56671 -0.43493 0.69977 255 0 0
-36.5850 24.4450 -60.0000 -0.04746 0.03171 -0.99837 255 0 0
-37.6950 25.1870 -59.8500 -0.18688 0.12485 -0.97442 255 0 0
-38.7490 25.8910 -59.4060 -0.36246 0.24222 -0.89998 255 0 0
-39.6950 26.5230 -58.6910 -0.51958 0.34722 -0.78069 255 0 0
-40.4850 27.0510 -57.7410 -0.65087 0.43493 -0.62225 255 0 0
-41.0790 27.4480 -56.6030 -0.74946 0.50088 -0.43293 255 0 0
-41.4480 27.6950 -55.3350 -0.81063 0.54176 -0.22221 255 0 0
-41.5730 27.7790 -54.0000 -0.83018 0.55467 -0.05605 255 0 0
-41.5730 27.7790 60.0000 -0.59396 0.39681 0.69982 255 0 0
-39.0790 26.1120 60.0000 0.58173 -0.38862 0.71454 255 0 0
-39.0790 26.1120 0.0000 0.59397 -0.39680 0.69982 255 0 0
-38.1050 22.0000 -60.0000 -0.04943 0.02853 -0.99837 255 0 0
-39.2610 22.6680 -59.8500 -0.19451 0.11232 -0.97445 255 0 0
-40.3600 23.3020 -59.4060 -0.37755 0.21799 -0.89997 255 0 0
-41.3450 23.8700 -58.6910 -0.54123 0.31251 -0.78065 255 0 0
-42.1680 24.3450 -57.7410 -0.67781 0.39142 -0.62238 255 0 0
-42.7870 24.7030 -56.6030 -0.78060 0.45080 -0.43295 255 0 0
-43.1710 24.9250 -55.3350 -0.84441 0.48759 -0.22187 255 0 0
-43.3010 25.0000 -54.0000 -0.86466 0.49925 -0.05589 255 0 0
-43.3010 25.0000 60.0000 -0.61859 0.35718 0.69983 255 0 0
-40.7030 23.5000 60.0000 0.60587 -0.34982 0.71452 255 0 0
-40.7030 23.5000 0.0000 0.61860 -0.35717 0.69984 255 0 0
-39.4620 19.4610 -60.0000 -0.05117 0.02524 -0.99837 255 0 0
-40.6600 20.0510 -59.8500 -0.20153 0.09936 -0.97443 255 0 0
-41.7970 20.6120 -59.4060 -0.39090 0.19277 -0.90002 255 0 0
-42.8180 21.1150 -58.6910 -0.56044 0.27641 -0.78071 255 0 0
-43.6700 21.5350 -57.7410 -0.70202 0.34620 -0.62235 255 0 0
-44.3110 21.8520 -56.6030 -0.80846 0.39869 -0.43295 255 0 0
-44.7090 22.0480 -55.3350 -0.87450 0.43127 -0.22195 255 0 0
-44.8440 22.1140 -54.0000 -0.89546 0.44162 -0.05595 255 0 0
-44.8440 22.1140 60.0000 -0.64067 0.31596 0.69980 255 0 0
-42.1530 20.7880 60.0000 0.62742 -0.30939 0.71458 255 0 0
-42.1530 20.7880 0.0000 0.64069 -0.31593 0.69978 255 0 0
-40.6510 16.8380 -60.0000 -0.05275 0.02184 -0.99837 255 0 0
-41.8840 17.3490 -59.8500 -0.20757 0.08597 -0.97444 255 0 0
-43.0560 17.8340 -59.4060 -0.40266 0.16678 -0.90003 255 0 0
-44.1070 18.2700 -58.6910 -0.57736 0.23912 -0.78069 255 0 0
-44.9850 18.6330 -57.7410 -0.72323 0.29951 -0.62228 255 0 0
-45.6450 18.9070 -56.6030 -0.83283 0.34493 -0.43291 255 0 0
-46.0550 19.0770 -55.3350 -0.90083 0.37312 -0.22200 255 0 0
-46.1940 19.1340 -54.0000 -0.92243 0.38209 -0.05596 255 0 0
-46.1940 19.1340 60.0000 -0.65991 0.27338 0.69984 255 0 0
-43.4220 17.9860 60.0000 0.64637 -0.26776 0.71450 255 0 0
-43.4220 17.9860 0.0000 0.65990 -0.27337 0.69986 255 0 0
-41.6650 14.1430 -60.0000 -0.05405 0.01835 -0.99837 255 0 0
-42.9290 14.5720 -59.8500 -0.21273 0.07221 -0.97444 255 0 0
-44.1300 14.9800 -59.4060 -0.41277 0.14009 -0.90000 255 0 0
-45.2070 15.3460 -58.6910 -0.59177 0.20083 -0.78069 255 0 0
-46.1070 15.6510 -57.7410 -0.74117 0.25158 -0.62239 255 0 0
-46.7840 15.8810 -56.6030 -0.85360 0.28971 -0.43294 255 0 0
-47.2040 16.0240 -55.3350 -0.92327 0.31340 -0.22216 255 0 0
-47.3470 16.0720 -54.0000 -0.94544 0.32093 -0.05613 255 0 0
-47.3470 16.0720 60.0000 -0.67646 0.22960 0.69977 255 0 0
-44.5060 15.1080 60.0000 0.66241 -0.22494 0.71458 255 0 0
-44.5060 15.1080 0.0000 0.67641 -0.22970 0.69979 255 0 0
-42.5010 11.3880 -60.0000 -0.05515 0.01478 -0.99837 255 0 0
-43.7900 11.7340 -59.8500 -0.21703 0.05816 -0.97443 255 0 0
-45.0150 12.0620 -59.4060 -0.42104 0.11284 -0.90000 255 0 0
-46.1140 12.3560 -58.6910 -0.60356 0.16179 -0.78073 255 0 0
-47.0320 12.6020 -57.7410 -0.75615 0.20257 -0.62225 255 0 0
-47.7220 12.7870 -56.6030 -0.87073 0.23324 -0.43293 255 0 0
-48.1510 12.9020 -55.3350 -0.94180 0.25233 -0.22212 255 0 0
-48.2960 12.9410 -54.0000 -0.96444 0.25833 -0.05590 255 0 0
-48.2960 12.9410 60.0000 -0.68997 0.18481 0.69985 255 0 0
-45.3990 12.1640 60.0000 0.67575 -0.18102 0.71456 255 0 0
-45.3990 12.1640 0.0000 0.69000 -0.18484 0.69981 255 0 0
-43.1550 8.5840 -60.0000 -0.05600 0.01114 -0.99837 255 0 0
-44.4640 8.8440 -59.8500 -0.22035 0.04383 -0.97444 255 0 0
-45.7080 9.0920 -59.4060 -0.42744 0.08507 -0.90003 255 0 0
-46.8240 9.3140 -58.6910 -0.61305 0.12197 -0.78057 255 0 0
-47.7550 9.4990 -57.7410 -0.76788 0.15269 -0.62213 255 0 0
-48.4560 9.6390 -56.6030 -0.88400 0.17588 -0.43315 255 0 0
-48.8920 9.7250 -55.3350 -0.95629 0.19022 -0.22209 255 0 0
-49.0390 9.7550 -54.0000 -0.97925 0.19478 -0.05587 255 0 0
-49.0390 9.7550 60.0000 -0.70060 0.13936 0.69981 255 0 0
-46.0970 9.1690 60.0000 0.68617 -0.13646 0.71453 255 0 0
-46.0970 9.1690 0.0000 0.70059 -0.13933 0.69983 255 0 0
-43.6240 5.7430 -60.0000 -0.05661 0.00745 -0.99837 255 0 0
-44.9470 5.9170 -59.8500 -0.22269 0.02932 -0.97445 255 0 0
-46.2050 6.0830 -59.4060 -0.43208 0.05690 -0.90004 255 0 0
-47.3330 6.2310 -58.6910 -0.61979 0.08158 -0.78052 255 0 0
-48.2740 6.3550 -57.7410 -0.77612 0.10224 -0.62224 255 0 0
-48.9830 6.4490 -56.6030 -0.89365 0.11771 -0.43305 255 0 0
-49.4230 6.5070 -55.3350 -0.96671 0.12726 -0.22198 255 0 0
-49.5720 6.5260 -54.0000 -0.98989 0.13034 -0.05593 255 0 0
-49.5720 6.5260 60.0000 -0.70820 0.09326 0.69983 255 0 0
-46.5980 6.1350 60.0000 0.69359 -0.09127 0.71457 255 0 0
-46.5980 6.1350 0.0000 0.70824 -0.09319 0.69980 255 0 0
-43.9060 2.8780 -60.0000 -0.05696 0.00373 -0.99837 255 0 0
-45.2380 2.9650 -59.8500 -0.22413 0.01469 -0.97445 255 0 0
-46.5040 3.0480 -59.4060 -0.43496 0.02846 -0.90000 255 0 0
-47.6390 3.1220 -58.6910 -0.62365 0.04085 -0.78064 255 0 0
-48.5870 3.1850 -57.7410 -0.78114 0.05124 -0.62225 255 0 0
-49.3000 3.2310 -56.6030 -0.89951 0.05898 -0.43291 255 0 0
-49.7430 3.2600 -55.3350 -0.97294 0.06384 -0.22207 255 0 0
-49.8930 3.2700 -54.0000 -0.99629 0.06536 -0.05596 255 0 0
-49.8930 3.2700 60.0000 -0.71280 0.04675 0.69980 255 0 0
-46.8990 3.0740 60.0000 0.69812 -0.04574 0.71451 255 0 0
-46.8990 3.0740 0.0000 0.71276 -0.04670 0.69985 255 0 0
-44.0000 0.0000 -60.0000 -0.05708 0.00000 -0.99837 255 0 0
-45.3350 0.0000 -59.8500 -0.22468 -0.00001 -0.97443 255 0 0
-46.6030 0.0000 -59.4060 -0.43584 0.00001 -0.90002 255 0 0
-47.7410 0.0000 -58.6910 -0.62491 0.00002 -0.78070 255 0 0
-48.6910 0.0000 -57.7410 -0.78275 0.00002 -0.62233 255 0 0
-49.4060 0.0000 -56.6030 -0.90138 0.00003 -0.43304 255 0 0
-49.8500 0.0000 -55.3350 -0.97505 -0.00002 -0.22198 255 0 0
-50.0000 0.0000 -54.0000 -0.99844 -0.00002 -0.05587 255 0 0
-50.0000 0.0000 60.0000 -0.71432 0.00000 0.69982 255 0 0
-47.0000 0.0000 60.0000 0.69956 -0.00000 0.71457 255 0 0
-47.0000 0.0000 0.0000 0.71435 0.00000 0.69979 255 0 0
-43.9060 -2.8780 -60.0000 -0.05696 -0.00373 -0.99837 255 0 0
-45.2380 -2.9650 -59.8500 -0.22415 -0.01468 -0.97444 255 0 0
-46.5040 -3.0480 -59.4060 -0.43494 -0.02848 -0.90001 255 0 0
-47.6390 -3.1220 -58.6910 -0.62363 -0.04083 -0.78065 255 0 0
-48.5870 -3.1850 -57.7410 -0.78117 -0.05126 -0.62222 255 0 0
-49.3000 -3.2310 -56.6030 -0.89950 -0.05903 -0.43292 255 0 0
-49.7430 -3.2600 -55.3350 -0.97294 -0.06381 -0.22205 255 0 0
-49.8930 -3.2700 -54.0000 -0.99629 -0.06534 -0.05597 255 0 0
-49.8930 -3.2700 60.0000 -0.71280 -0.04675 0.69980 255 0 0
-46.8990 -3.0740 60.0000 0.69812 0.04574 0.71451 255 0 0
-46.8990 -3.0740 0.0000 0.71276 0.04670 0.69985 255 0 0
-43.6240 -5.7430 -60.0000 -0.05661 -0.00745 -0.99837 255 0 0
-44.9470 -5.9170 -59.8500 -0.22268 -0.02931 -0.97445 255 0 0
-46.2050 -6.0830 -59.4060 -0.43210 -0.05689 -0.90003 255 0 0
-47.3330 -6.2310 -58.6910 -0.61975 -0.08162 -0.78054 255 0 0
-48.2740 -6.3550 -57.7410 -0.77615 -0.10223 -0.62220 255 0 0
-48.9830 -6.4490 -56.6030 -0.89366 -0.11770 -0.43304 255 0 0
-49.4230 -6.5070 -55.3350 -0.96670 -0.12730 -0.22201 255 0 0
-49.5720 -6.5260 -54.0000 -0.98989 -0.13034 -0.05592 255 0 0
-49.5720 -6.5260 60.0000 -0.70820 -0.09326 0.69983 255 0 0
-46.5980 -6.1350 60.0000 0.69359 0.09127 0.71457 255 0 0
-46.5980 -6.1350 0.0000 0.70824 0.09319 0.69980 255 0 0
-43.1550 -8.5840 -60.0000 -0.05600 -0.01114 -0.99837 255 0 0
-44.4640 -8.8440 -59.8500 -0.22033 -0.04383 -0.97444 255 0 0
-45.7080 -9.0920 -59.4060 -0.42746 -0.08506 -0.90003 255 0 0
-46.8240 -9.3140 -58.6910 -0.61307 -0.12201 -0.78055 255 0 0
-47.7550 -9.4990 -57.7410 -0.76783 -0.15272 -0.62219 255 0 0
-48.4560 -9.6390 -56.6030 -0.88403 -0.17584 -0.43310 255 0 0
-48.8920 -9.7250 -55.3350 -0.95629 -0.19019 -0.22211 255 0 0
-49.0390 -9.7550 -54.0000 -0.97925 -0.19480 -0.05587 255 0 0
-49.0390 -9.7550 60.0000 -0.70060 -0.13936 0.69981 255 0 0
-46.0970 -9.1690 60.0000 0.68617 0.13646 0.71453 255 0 0
-46.0970 -9.1690 0.0000 0.70059 0.13933 0.69983 255 0 0
-42.5010 -11.3880 -60.0000 -0.05515 -0.01478 -0.99837 255 0 0
-43.7900 -11.7340 -59.8500 -0.21702 -0.05817 -0.97443 255 0 0
-45.0150 -12.0620 -59.4060 -0.42103 -0.11285 -0.90000 255 0 0
-46.1140 -12.3560 -58.6910 -0.60361 -0.16175 -0.78070 255 0 0
-47.0320 -12.6020 -57.7410 -0.75613 -0.20257 -0.62227 255 0 0
-47.7220 -12.7870 -56.6030 -0.87071 -0.23327 -0.43296 255 0 0
-48.1510 -12.9020 -55.3350 -0.94181 -0.25235 -0.22205 255 0 0
-48.2960 -12.9410 -54.0000 -0.96443 -0.25836 -0.05594 255 0 0
-48.2960 -12.9410 60.0000 -0.68997 -0.18481 0.69985 255 0 0
-45.3990 -12.1640 60.0000 0.67575 0.18102 0.71456 255 0 0
-45.3990 -12.1640 0.0000 0.69000 0.18484 0.69981 255 0 0
-41.6650 -14.1430 -60.0000 -0.05405 -0.01835 -0.99837 255 0 0
-42.9290 -14.5720 -59.8500 -0.21274 -0.07220 -0.97444 255 0 0
-44.1300 -14.9800 -59.4060 -0.41277 -0.14010 -0.90000 255 0 0
-45.2070 -15.3460 -58.6910 -0.59175 -0.20084 -0.78070 255 0 0
-46.1070 -15.6510 -57.7410 -0.74120 -0.25153 -0.62238 255 0 0
-46.7840 -15.8810 -56.6030 -0.85359 -0.28970 -0.43296 255 0 0
-47.2040 -16.0240 -55.3350 -0.92328 -0.31337 -0.22214 255 0 0
-47.3470 -16.0720 -54.0000 -0.94546 -0.32086 -0.05613 255 0 0
-47.3470 -16.0720 60.0000 -0.67646 -0.22960 0.69977 255 0 0
-44.5060 -15.1080 60.0000 0.66241 0.22494 0.71458 255 0 0
-44.5060 -15.1080 0.0000 0.67641 0.22970 0.69979 255 0 0
-40.6510 -16.8380 -60.0000 -0.05275 -0.02185 -0.99837 255 0 0
-41.8840 -17.3490 -59.8500 -0.20756 -0.08596 -0.97444 255 0 0
-43.0560 -17.8340 -59.4060 -0.40269 -0.16678 -0.90002 255 0 0
-44.1070 -18.2700 -58.6910 -0.57734 -0.23911 -0.78071 255 0 0
-44.9850 -18.6330 -57.7410 -0.72322 -0.29955 -0.62227 255 0 0
-45.6450 -18.9070 -56.6030 -0.83283 -0.34495 -0.43291 255 0 0
-46.0550 -19.0770 -55.3350 -0.90082 -0.37313 -0.22202 255 0 0
-46.1940 -19.1340 -54.0000 -0.92241 -0.38213 -0.05594 255 0 0
-46.1940 -19.1340 60.0000 -0.65991 -0.27338 0.69984 255 0 0
-43.4220 -17.9860 60.0000 0.64637 0.26776 0.71450 255 0 0
-43.4220 -17.9860 0.0000 0.65990 0.27337 0.69986 255 0 0
-39.4620 -19.4610 -60.0000 -0.05118 -0.02524 -0.99837 255 0 0
-40.6600 -20.0510 -59.8500 -0.20152 -0.09938 -0.97443 255 0 0
-41.7970 -20.6120 -59.4060 -0.39089 -0.19274 -0.90003 255 0 0
-42.8180 -21.1150 -58.6910 -0.56047 -0.27640 -0.78069 255 0 0
-43.6700 -21.5350 -57.7410 -0.70202 -0.34620 -0.62234 255 0 0
-44.3110 -21.8520 -56.6030 -0.80845 -0.39867 -0.43298 255 0 0
-44.7090 -22.0480 -55.3350 -0.87450 -0.43126 -0.22194 255 0 0
-44.8440 -22.1140 -54.0000 -0.89546 -0.44160 -0.05594 255 0 0
-44.8440 -22.1140 60.0000 -0.64067 -0.31596 0.69980 255 0 0
-42.1530 -20.7880 60.0000 0.62742 0.30939 0.71458 255 0 0
-42.1530 -20.7880 0.0000 0.64069 0.31593 0.69978 255 0 0
-38.1050 -22.0000 -60.0000 -0.04942 -0.02853 -0.99837 255 0 0
-39.2610 -22.6680 -59.8500 -0.19453 -0.11228 -0.97445 255 0 0
-40.3600 -23.3020 -59.4060 -0.37753 -0.21800 -0.89997 255 0 0
-41.3450 -23.8700 -58.6910 -0.54123 -0.31255 -0.78063 255 0 0
-42.1680 -24.3450 -57.7410 -0.67782 -0.39137 -0.62241 255 0 0
-42.7870 -24.7030 -56.6030 -0.78061 -0.45082 -0.43291 255 0 0
-43.1710 -24.9250 -55.3350 -0.84438 -0.48765 -0.22188 255 0 0
-43.3010 -25.0000 -54.0000 -0.86464 -0.49928 -0.05591 255 0 0
-43.3010 -25.0000 60.0000 -0.61859 -0.35718 0.69983 255 0 0
-40.7030 -23.5000 60.0000 0.60587 0.34982 0.71452 255 0 0
-40.7030 -23.5000 0.0000 0.61860 0.35717 0.69984 255 0 0
-36.5850 -24.4450 -60.0000 -0.04746 -0.03170 -0.99837 255 0 0
-37.6950 -25.1870 -59.8500 -0.18686 -0.12488 -0.97442 255 0 0
-38.7490 -25.8910 -59.4060 -0.36247 -0.24223 -0.89997 255 0 0
-39.6950 -26.5230 -58.6910 -0.51959 -0.34718 -0.78070 255 0 0
-40.4850 -27.0510 -57.7410 -0.65085 -0.43496 -0.62226 255 0 0
-41.0790 -27.4480 -56.6030 -0.74947 -0.50088 -0.43291 255 0 0
-41.4480 -27.6950 -55.3350 -0.81066 -0.54173 -0.22216 255 0 0
-41.5730 -27.7790 -54.0000 -0.83017 -0.55467 -0.05610 255 0 0
-41.5730 -27.7790 60.0000 -0.59396 -0.39681 0.69982 255 0 0
-39.0790 -26.1120 60.0000 0.58173 0.38862 0.71454 255 0 0
-39.0790 -26.1120 0.0000 0.59397 0.39680 0.69982 255 0 0
-34.9080 -26.7860 -60.0000 -0.04530 -0.03477 -0.99837 255 0 0
-35.9670 -27.5980 -59.8500 -0.17828 -0.13678 -0.97443 255 0 0
-36.9730 -28.3700 -59.4060 -0.34588 -0.26536 -0.89997 255 0 0
-37.8750 -29.0630 -58.6910 -0.49584 -0.38040 -0.78067 255 0 0
-38.6290 -29.6410 -57.7410 -0.62109 -0.47650 -0.62225 255 0 0
-39.1960 -30.0760 -56.6030 -0.71521 -0.54873 -0.43287 255 0 0
-39.5480 -30.3460 -55.3350 -0.77356 -0.59347 -0.22226 255 0 0
-39.6680 -30.4380 -54.0000 -0.79213 -0.60776 -0.05625 255 0 0
-39.6680 -30.4380 60.0000 -0.56673 -0.43487 0.69979 255 0 0
-37.2880 -28.6120 60.0000 0.55494 0.42590 0.71460 255 0 0
-37.2880 -28.6120 0.0000 0.56671 0.43493 0.69977 255 0 0
-33.0810 -29.0110 -60.0000 -0.04289 -0.03761 -0.99837 255 0 0
-34.0850 -29.8920 -59.8500 -0.16895 -0.14815 -0.97443 255 0 0
-35.0380 -30.7280 -59.4060 -0.32774 -0.28734 -0.90001 255 0 0
-35.8940 -31.4780 -58.6910 -0.46992 -0.41205 -0.78063 255 0 0
-36.6080 -32.1040 -57.7410 -0.58860 -0.51610 -0.62225 255 0 0
-37.1450 -32.5760 -56.6030 -0.67777 -0.59433 -0.43290 255 0 0
-37.4790 -32.8680 -55.3350 -0.73309 -0.64288 -0.22199 255 0 0
-37.5920 -32.9670 -54.0000 -0.75061 -0.65838 -0.05592 255 0 0
-37.5920 -32.9670 60.0000 -0.53701 -0.47104 0.69982 255 0 0
-35.3360 -30.9890 60.0000 0.52598 0.46135 0.71449 255 0 0
-35.3360 -30.9890 0.0000 0.53698 0.47099 0.69987 255 0 0
-31.1130 -31.1130 -60.0000 -0.04036 -0.04036 -0.99837 255 0 0
-32.0570 -32.0570 -59.8500 -0.15885 -0.15883 -0.97444 255 0 0
-32.9540 -32.9540 -59.4060 -0.30826 -0.30829 -0.89996 255 0 0
-33.7580 -33.7580 -58.6910 -0.44192 -0.44192 -0.78065 255 0 0
-34.4300 -34.4300 -57.7410 -0.55355 -0.55357 -0.62221 255 0 0
-34.9350 -34.9350 -56.6030 -0.63742 -0.63744 -0.43286 255 0 0
-35.2490 -35.2490 -55.3350 -0.68947 -0.68947 -0.22195 255 0 0
-35.3550 -35.3550 -54.0000 -0.70599 -0.70602 -0.05583 255 0 0
-35.3550 -35.3550 60.0000 -0.50509 -0.50509 0.69984 255 0 0
-33.2340 -33.2340 60.0000 0.49466 0.49466 0.71458 255 0 0
-33.2340 -33.2340 0.0000 0.50513 0.50513 0.69978 255 0 0
-29.0110 -33.0810 -60.0000 -0.03762 -0.04288 -0.99837 255 0 0
-29.8920 -34.0850 -59.8500 -0.14814 -0.16895 -0.97443 255 0 0
-30.7280 -35.0380 -59.4060 -0.28738 -0.32773 -0.90000 255 0 0
-31.4780 -35.8940 -58.6910 -0.41204 -0.46991 -0.78064 255 0 0
-32.1040 -36.6080 -57.7410 -0.51611 -0.58861 -0.62223 255 0 0
-32.5760 -37.1450 -56.6030 -0.59434 -0.67774 -0.43293 255 0 0
-32.8680 -37.4790 -55.3350 -0.64285 -0.73314 -0.22192 255 0 0
-32.9670 -37.5920 -54.0000 -0.65835 -0.75063 -0.05598 255 0 0
-32.9670 -37.5920 60.0000 -0.47104 -0.53701 0.69982 255 0 0
-30.9890 -35.3360 60.0000 0.46135 0.52598 0.71449 255 0 0
-30.9890 -35.3360 0.0000 0.47099 0.53698 0.69987 255 0 0
-26.7860 -34.9080 -60.0000 -0.03476 -0.04530 -0.99837 255 0 0
-27.5980 -35.9670 -59.8500 -0.13678 -0.17827 -0.97443 255 0 0
-28.3700 -36.9730 -59.4060 -0.26535 -0.34588 -0.89998 255 0 0
-29.0630 -37.8750 -58.6910 -0.38041 -0.49586 -0.78065 255 0 0
-29.6410 -38.6290 -57.7410 -0.47650 -0.62106 -0.62228 255 0 0
-30.0760 -39.1960 -56.6030 -0.54871 -0.71524 -0.43283 255 0 0
-30.3460 -39.5480 -55.3350 -0.59352 -0.77352 -0.22226 255 0 0
-30.4380 -39.6680 -54.0000 -0.60783 -0.79207 -0.05627 255 0 0
-30.4380 -39.6680 60.0000 -0.43487 -0.56673 0.69979 255 0 0
-28.6120 -37.2880 60.0000 0.42590 0.55494 0.71460 255 0 0
-28.6120 -37.2880 0.0000 0.43493 0.56671 0.69977 255 0 0
-24.4450 -36.5850 -60.0000 -0.03171 -0.04746 -0.99837 255 0 0
-25.1870 -37.6950 -59.8500 -0.12485 -0.18688 -0.97442 255 0 0
-25.8910 -38.7490 -59.4060 -0.24222 -0.36246 -0.89998 255 0 0
-26.5230 -39.6950 -58.6910 -0.34722 -0.51958 -0.78069 255 0 0
-27.0510 -40.4850 -57.7410 -0.43493 -0.65087 -0.62225 255 0 0
-27.4480 -41.0790 -56.6030 -0.50088 -0.74946 -0.43293 255 0 0
-27.6950 -41.4480 -55.3350 -0.54176 -0.81063 -0.22221 255 0 0
-27.7790 -41.5730 -54.0000 -0.55467 -0.83018 -0.05605 255 0 0
-27.7790 -41.5730 60.0000 -0.39681 -0.59396 0.69982 255 0 0
-26.1120 -39.0790 60.0000 0.38862 0.58173 0.71454 255 0 0
-26.1120 -39.0790 0.0000 0.39680 0.59397 0.69982 255 0 0
-22.0000 -38.1050 -60.0000 -0.02853 -0.04943 -0.99837 255 0 0
-22.6680 -39.2610 -59.8500 -0.11232 -0.19451 -0.97445 255 0 0
-23.3020 -40.3600 -59.4060 -0.21799 -0.37755 -0.89997 255 0 0
-23.8700 -41.3450 -58.6910 -0.31251 -0.54123 -0.78065 255 0 0
-24.3450 -42.1680 -57.7410 -0.39142 -0.67781 -0.62238 255 0 0
-24.7030 -42.7870 -56.6030 -0.45080 -0.78060 -0.43295 255 0 0
-24.9250 -43.1710 -55.3350 -0.48759 -0.84441 -0.22187 255 0 0
-25.0000 -43.3010 -54.0000 -0.49925 -0.86466 -0.05589 255 0 0
-25.0000 -43.3010 60.0000 -0.35718 -0.61859 0.69983 255 0 0
-23.5000 -40.7030 60.0000 0.34982 0.60587 0.71452 255 0 0
-23.5000 -40.7030 0.0000 0.35717 0.61860 0.69984 255 0 0
-19.4610 -39.4620 -60.0000 -0.02524 -0.05117 -0.99837 255 0 0
-20.0510 -40.6600 -59.8500 -0.09936 -0.20153 -0.97443 255 0 0
-20.6120 -41.7970 -59.4060 -0.19277 -0.39090 -0.90002 255 0 0
-21.1150 -42.8180 -58.6910 -0.27641 -0.56044 -0.78071 255 0 0
-21.5350 -43.6700 -57.7410 -0.34620 -0.70202 -0.62235 255 0 0
-21.8520 -44.3110 -56.6030 -0.39869 -0.80846 -0.43295 255 0 0
-22.0480 -44.7090 -55.3350 -0.43127 -0.87450 -0.22195 255 0 0
-22.1140 -44.8440 -54.0000 -0.44162 -0.89546 -0.05595 255 0 0
-22.1140 -44.8440 60.0000 -0.31596 -0.64067 0.69980 255 0 0
-20.7880 -42.1530 60.0000 0.30939 0.62742 0.71458 255 0 0
-20.7880 -42.1530 0.0000 0.31593 0.64069 0.69978 255 0 0
-16.8380 -40.6510 -60.0000 -0.02184 -0.05275 -0.99837 255 0 0
-17.3490 -41.8840 -59.8500 -0.08597 -0.20757 -0.97444 255 0 0
-17.8340 -43.0560 -59.4060 -0.16678 -0.40266 -0.90003 255 0 0
-18.2700 -44.1070 -58.6910 -0.23912 -0.57736 -0.78069 255 0 0
-18.6330 -44.9850 -57.7410 -0.29951 -0.72323 -0.62228 255 0 0
-18.9070 -45.6450 -56.6030 -0.34493 -0.83283 -0.43291 255 0 0
-19.0770 -46.0550 -55.3350 -0.37312 -0.90083 -0.22200 255 0 0
-19.1340 -46.1940 -54.0000 -0.38209 -0.92243 -0.05596 255 0 0
-19.1340 -46.1940 60.0000 -0.27338 -0.65991 0.69984 255 0 0
-17.9860 -43.4220 60.0000 0.26776 0.64637 0.71450 255 0 0
-17.9860 -43.4220 0.0000 0.27337 0.65990 0.69986 255 0 0
-14.1430 -41.6650 -60.0000 -0.01835 -0.05405 -0.99837 255 0 0
-14.5720 -42.9290 -59.8500 -0.07221 -0.21273 -0.97444 255 0 0
-14.9800 -44.1300 -59.4060 -0.14009 -0.41277 -0.90000 255 0 0
-15.3460 -45.2070 -58.6910 -0.20083 -0.59177 -0.78069 255 0 0
-15.6510 -46.1070 -57.7410 -0.25158 -0.74117 -0.62239 255 0 0
-15.8810 -46.7840 -56.6030 -0.28971 -0.85360 -0.43294 255 0 0
-16.0240 -47.2040 -55.3350 -0.31340 -0.92327 -0.22216 255 0 0
-16.0720 -47.3470 -54.0000 -0.32093 -0.94544 -0.05613 255 0 0
-16.0720 -47.3470 60.0000 -0.22960 -0.67646 0.69977 255 0 0
-15.1080 -44.5060 60.0000 0.22494 0.66241 0.71458 255 0 0
-15.1080 -44.5060 0.0000 0.22970 0.67641 0.69979 255 0 0
-11.3880 -42.5010 -60.0000 -0.01478 -0.05515 -0.99837 255 0 0
-11.7340 -43.7900 -59.8500 -0.05816 -0.21703 -0.97443 255 0 0
-12.0620 -45.0150 -59.4060 -0.11284 -0.42104 -0.90000 255 0 0
-12.3560 -46.1140 -58.6910 -0.16179 -0.60356 -0.78073 255 0 0
-12.6020 -47.0320 -57.7410 -0.20257 -0.75615 -0.62225 255 0 0
-12.7870 -47.7220 -56.6030 -0.23324 -0.87073 -0.43293 255 0 0
-12.9020 -48.1510 -55.3350 -0.25233 -0.94180 -0.22212 255 0 0
-12.9410 -48.2960 -54.0000 -0.25833 -0.96444 -0.05590 255 0 0
-12.9410 -48.2960 60.0000 -0.18481 -0.68997 0.69985 255 0 0
-12.1640 -45.3990 60.0000 0.18102 0.67575 0.71456 255 0 0
-12.1640 -45.3990 0.0000 0.18484 0.69000 0.69981 255 0 0
-8.5840 -43.1550 -60.0000 -0.01114 -0.05600 -0.99837 255 0 0
-8.8440 -44.4640 -59.8500 -0.04383 -0.22035 -0.97444 255 0 0
-9.0920 -45.7080 -59.4060 -0.08507 -0.42744 -0.90003 255 0 0
-9.3140 -46.8240 -58.6910 -0.12197 -0.61305 -0.78057 255 0 0
-9.4990 -47.7550 -57.7410 -0.15269 -0.76788 -0.62213 255 0 0
-9.6390 -48.4560 -56.6030 -0.17588 -0.88400 -0.43315 255 0 0
-9.7250 -48.8920 -55.3350 -0.19022 -0.95629 -0.22209 255 0 0
-9.7550 -49.0390 -54.0000 -0.19478 -0.97925 -0.05587 255 0 0
-9.7550 -49.0390 60.0000 -0.13936 -0.70060 0.69981 255 0 0
-9.1690 -46.0970 60.0000 0.13646 0.68617 0.71453 255 0 0
-9.1690 -46.0970 0.0000 0.13933 0.70059 0.69983 255 0 0
-5.7430 -43.6240 -60.0000 -0.00745 -0.05661 -0.99837 255 0 0
-5.9170 -44.9470 -59.8500 -0.02932 -0.22269 -0.97445 255 0 0
-6.0830 -46.2050 -59.4060 -0.05690 -0.43208 -0.90004 255 0 0
-6.2310 -47.3330 -58.6910 -0.08158 -0.61979 -0.78052 255 0 0
-6.3550 -48.2740 -57.7410 -0.10224 -0.77612 -0.62224 255 0 0
-6.4490 -48.9830 -56.6030 -0.11771 -0.89365 -0.43305 255 0 0
-6.5070 -49.4230 -55.3350 -0.12726 -0.96671 -0.22198 255 0 0
-6.5260 -49.5720 -54.0000 -0.13034 -0.98989 -0.05593 255 0 0
-6.5260 -49.5720 60.0000 -0.09326 -0.70820 0.69983 255 0 0
-6.1350 -46.5980 60.0000 0.09127 0.69359 0.71457 255 0 0
-6.1350 -46.5980 0.0000 0.09319 0.70824 0.69980 255 0 0
-2.8780 -43.9060 -60.0000 -0.00373 -0.05696 -0.99837 255 0 0
-2.9650 -45.2380 -59.8500 -0.01469 -0.22413 -0.97445 255 0 0
-3.0480 -46.5040 -59.4060 -0.02846 -0.43496 -0.90000 255 0 0
-3.1220 -47.6390 -58.6910 -0.04085 -0.62365 -0.78064 255 0 0
-3.1850 -48.5870 -57.7410 -0.05124 -0.78114 -0.62225 255 0 0
-3.2310 -49.3000 -56.6030 -0.05898 -0.89951 -0.43291 255 0 0
-3.2600 -49.7430 -55.3350 -0.06384 -0.97294 -0.22207 255 0 0
-3.2700 -49.8930 -54.0000 -0.06536 -0.99629 -0.05596 255 0 0
-3.2700 -49.8930 60.0000 -0.04675 -0.71280 0.69980 255 0 0
-3.0740 -46.8990 60.0000 0.04574 0.69812 0.71451 255 0 0
-3.0740 -46.8990 0.0000 0.04670 0.71276 0.69985 255 0 0
-0.0000 -44.0000 -60.0000 -0.00000 -0.05708 -0.99837 255 0 0
-0.0000 -45.3350 -59.8500 0.00001 -0.22468 -0.97443 255 0 0
-0.0000 -46.6030 -59.4060 -0.00001 -0.43584 -0.90002 255 0 0
-0.0000 -47.7410 -58.6910 -0.00002 -0.62491 -0.78070 255 0 0
-0.0000 -48.6910 -57.7410 -0.00002 -0.78275 -0.62233 255 0 0
-0.0000 -49.4060 -56.6030 -0.00003 -0.90138 -0.43304 255 0 0
-0.0000 -49.8500 -55.3350 0.00002 -0.97505 -0.22198 255 0 0
-0.0000 -50.0000 -54.0000 0.00002 -0.99844 -0.05587 255 0 0
-0.0000 -50.0000 60.0000 -0.00000 -0.71432 0.69982 255 0 0
-0.0000 -47.0000 60.0000 0.00000 0.69956 0.71457 255 0 0
-0.0000 -47.0000 0.0000 -0.00000 0.71435 0.69979 255 0 0
2.8780 -43.9060 -60.0000 0.00373 -0.05696 -0.99837 255 0 0
2.9650 -45.2380 -59.8500 0.01468 -0.22415 -0.97444 255 0 0
3.0480 -46.5040 -59.4060 0.02848 -0.43494 -0.90001 255 0 0
3.1220 -47.6390 -58.6910 0.04083 -0.62363 -0.78065 255 0 0
3.1850 -48.5870 -57.7410 0.05126 -0.78117 -0.62222 255 0 0
3.2310 -49.3000 -56.6030 0.05903 -0.89950 -0.43292 255 0 0
3.2600 -49.7430 -55.3350 0.06381 -0.97294 -0.22205 255 0 0
3.2700 -49.8930 -54.0000 0.06534 -0.99629 -0.05597 255 0 0
3.2700 -49.8930 60.0000 0.04675 -0.71280 0.69980 255 0 0
3.0740 -46.8990 60.0000 -0.04574 0.69812 0.71451 255 0 0
3.0740 -46.8990 0.0000 -0.04670 0.71276 0.69985 255 0 0
5.7430 -43.6240 -60.0000 0.00745 -0.05661 -0.99837 255 0 0
5.9170 -44.9470 -59.8500 0.02931 -0.22268 -0.97445 255 0 0
6.0830 -46.2050 -59.4060 0.05689 -0.43210 -0.90003 255 0 0
6.2310 -47.3330 -58.6910 0.08162 -0.61975 -0.78054 255 0 0
6.3550 -48.2740 -57.7410 0.10223 -0.77615 -0.62220 255 0 0
6.4490 -48.9830 -56.6030 0.11770 -0.89366 -0.43304 255 0 0
6.5070 -49.4230 -55.3350 0.12730 -0.96670 -0.22201 255 0 0
6.5260 -49.5720 -54.0000 0.13034 -0.98989 -0.05592 255 0 0
6.5260 -49.5720 60.0000 0.09326 -0.70820 0.69983 255 0 0
6.1350 -46.5980 60.0000 -0.09127 0.69359 0.71457 255 0 0
6.1350 -46.5980 0.0000 -0.09319 0.70824 0.69980 255 0 0
8.5840 -43.1550 -60.0000 0.01114 -0.05600 -0.99837 255 0 0
8.8440 -44.4640 -59.8500 0.04383 -0.22033 -0.97444 255 0 0
9.0920 -45.7080 -59.4060 0.08506 -0.42746 -0.90003 255 0 0
9.3140 -46.8240 -58.6910 0.12201 -0.61307 -0.78055 255 0 0
9.4990 -47.7550 -57.7410 0.15272 -0.76783 -0.62219 255 0 0
9.6390 -48.4560 -56.6030 0.17584 -0.88403 -0.43310 255 0 0
9.7250 -48.8920 -55.3350 0.19019 -0.95629 -0.22211 255 0 0
9.7550 -49.0390 -54.0000 0.19480 -0.97925 -0.05587 255 0 0
9.7550 -49.0390 60.0000 0.13936 -0.70060 0.69981 255 0 0
9.1690 -46.0970 60.0000 -0.13646 0.68617 0.71453 255 0 0
9.1690 -46.0970 0.0000 -0.13933 0.70059 0.69983 255 0 0
11.3880 -42.5010 -60.0000 0.01478 -0.05515 -0.99837 255 0 0
11.7340 -43.7900 -59.8500 0.05817 -0.21702 -0.97443 255 0 0
12.0620 -45.0150 -59.4060 0.11285 -0.42103 -0.90000 255 0 0
12.3560 -46.1140 -58.6910 0.16175 -0.60361 -0.78070 255 0 0
12.6020 -47.0320 -57.7410 0.20257 -0.75613 -0.62227 255 0 0
12.7870 -47.7220 -56.6030 0.23327 -0.87071 -0.43296 255 0 0
12.9020 -48.1510 -55.3350 0.25235 -0.94181 -0.22205 255 0 0
12.9410 -48.2960 -54.0000 0.25836 -0.96443 -0.05594 255 0 0
12.9410 -48.2960 60.0000 0.18481 -0.68997 0.69985 255 0 0
12.1640 -45.3990 60.0000 -0.18102 0.67575 0.71456 255 0 0
12.1640 -45.3990 0.0000 -0.18484 0.69000 0.69981 255 0 0
14.1430 -41.6650 -60.0000 0.01835 -0.05405 -0.99837 255 0 0
14.5720 -42.9290 -59.8500 0.07220 -0.21274 -0.97444 255 0 0
14.9800 -44.1300 -59.4060 0.14010 -0.41277 -0.90000 255 0 0
15.3460 -45.2070 -58.6910 0.20084 -0.59175 -0.78070 255 0 0
15.6510 -46.1070 -57.7410 0.25153 -0.74120 -0.62238 255 0 0
15.8810 -46.7840 -56.6030 0.28970 -0.85359 -0.43296 255 0 0
16.0240 -47.2040 -55.3350 0.31337 -0.92328 -0.22214 255 0 0
16.0720 -47.3470 -54.0000 0.32086 -0.94546 -0.05613 255 0 0
16.0720 -47.3470 60.0000 0.22960 -0.67646 0.69977 255 0 0
15.1080 -44.5060 60.0000 -0.22494 0.66241 0.71458 255 0 0
15.1080 -44.5060 0.0000 -0.22970 0.67641 0.69979 255 0 0
16.8380 -40.6510 -60.0000 0.02185 -0.05275 -0.99837 255 0 0
17.3490 -41.8840 -59.8500 0.08596 -0.20756 -0.97444 255 0 0
17.8340 -43.0560 -59.4060 0.16678 -0.40269 -0.90002 255 0 0
18.2700 -44.1070 -58.6910 0.23911 -0.57734 -0.78071 255 0 0
18.6330 -44.9850 -57.7410 0.29955 -0.72322 -0.62227 255 0 0
18.9070 -45.6450 -56.6030 0.34495 -0.83283 -0.43291 255 0 0
19.0770 -46.0550 -55.3350 0.37313 -0.90082 -0.22202 255 0 0
19.1340 -46.1940 -54.0000 0.38213 -0.92241 -0.05594 255 0 0
19.1340 -46.1940 60.0000 0.27338 -0.65991 0.69984 255 0 0
17.9860 -43.4220 60.0000 -0.26776 0.64637 0.71450 255 0 0
17.9860 -43.4220 0.0000 -0.27337 0.65990 0.69986 255 0 0
19.4610 -39.4620 -60.0000 0.02524 -0.05118 -0.99837 255 0 0
20.0510 -40.6600 -59.8500 0.09938 -0.20152 -0.97443 255 0 0
20.6120 -41.7970 -59.4060 0.19274 -0.39089 -0.90003 255 0 0
21.1150 -42.8180 -58.6910 0.27640 -0.56047 -0.78069 255 0 0
21.5350 -43.6700 -57.7410 0.34620 -0.70202 -0.62234 255 0 0
21.8520 -44.3110 -56.6030 0.39867 -0.80845 -0.43298 255 0 0
22.0480 -44.7090 -55.3350 0.43126 -0.87450 -0.22194 255 0 0
22.1140 -44.8440 -54.0000 0.44160 -0.89546 -0.05594 255 0 0
22.1140 -44.8440 60.0000 0.31596 -0.64067 0.69980 255 0 0
20.7880 -42.1530 60.0000 -0.30939 0.62742 0.71458 255 0 0
20.7880 -42.1530 0.0000 -0.31593 0.64069 0.69978 255 0 0
22.0000 -38.1050 -60.0000 0.02853 -0.04942 -0.99837 255 0 0
22.6680 -39.2610 -59.8500 0.11228 -0.19453 -0.97445 255 0 0
23.3020 -40.3600 -59.4060 0.21800 -0.37753 -0.89997 255 0 0
23.8700 -41.3450 -58.6910 0.31255 -0.54123 -0.78063 255 0 0
24.3450 -42.1680 -57.7410 0.39137 -0.67782 -0.62241 255 0 0
24.7030 -42.7870 -56.6030 0.45082 -0.78061 -0.43291 255 0 0
24.9250 -43.1710 -55.3350 0.48765 -0.84438 -0.22188 255 0 0
25.0000 -43.3010 -54.0000 0.49928 -0.86464 -0.05591 255 0 0
25.0000 -43.3010 60.0000 0.35718 -0.61859 0.69983 255 0 0
23.5000 -40.7030 60.0000 -0.34982 0.60587 0.71452 255 0 0
23.5000 -40.7030 0.0000 -0.35717 0.61860 0.69984 255 0 0
24.4450 -36.5850 -60.0000 0.03170 -0.04746 -0.99837 255 0 0
25.1870 -37.6950 -59.8500 0.12488 -0.18686 -0.97442 255 0 0
25.8910 -38.7490 -59.4060 0.24223 -0.36247 -0.89997 255 0 0
26.5230 -39.6950 -58.6910 0.34718 -0.51959 -0.78070 255 0 0
27.0510 -40.4850 -57.7410 0.43496 -0.65085 -0.62226 255 0 0
27.4480 -41.0790 -56.6030 0.50088 -0.74947 -0.43291 255 0 0
27.6950 -41.4480 -55.3350 0.54173 -0.81066 -0.22216 255 0 0
27.7790 -41.5730 -54.0000 0.55467 -0.83017 -0.05610 255 0 0
27.7790 -41.5730 60.0000 0.39681 -0.59396 0.69982 255 0 0
26.1120 -39.0790 60.0000 -0.38862 0.58173 0.71454 255 0 0
26.1120 -39.0790 0.0000 -0.39680 0.59397 0.69982 255 0 0
26.7860 -34.9080 -60.0000 0.03477 -0.04530 -0.99837 255 0 0
27.5980 -35.9670 -59.8500 0.13678 -0.17828 -0.97443 255 0 0
28.3700 -36.9730 -59.4060 0.26536 -0.34588 -0.89997 255 0 0
29.0630 -37.8750 -58.6910 0.38040 -0.49584 -0.78067 255 0 0
29.6410 -38.6290 -57.7410 0.47650 -0.62109 -0.62225 255 0 0
30.0760 -39.1960 -56.6030 0.54873 -0.71521 -0.43287 255 0 0
30.3460 -39.5480 -55.3350 0.59347 -0.77356 -0.22226 255 0 0
30.4380 -39.6680 -54.0000 0.60776 -0.79213 -0.05625 255 0 0
30.4380 -39.6680 60.0000 0.43487 -0.56673 0.69979 255 0 0
28.6120 -37.2880 60.0000 -0.42590 0.55494 0.71460 255 0 0
28.6120 -37.2880 0.0000 -0.43493 0.56671 0.69977 255 0 0
29.0110 -33.0810 -60.0000 0.03761 -0.04289 -0.99837 255 0 0
29.8920 -34.0850 -59.8500 0.14815 -0.16895 -0.97443 255 0 0
30.7280 -35.0380 -59.4060 0.28734 -0.32774 -0.90001 255 0 0
31.4780 -35.8940 -58.6910 0.41205 -0.46992 -0.78063 255 0 0
32.1040 -36.6080 -57.7410 0.51610 -0.58860 -0.62225 255 0 0
32.5760 -37.1450 -56.6030 0.59433 -0.67777 -0.43290 255 0 0
32.8680 -37.4790 -55.3350 0.64288 -0.73309 -0.22199 255 0 0
32.9670 -37.5920 -54.0000 0.65838 -0.75061 -0.05592 255 0 0
32.9670 -37.5920 60.0000 0.47104 -0.53701 0.69982 255 0 0
30.9890 -35.3360 60.0000 -0.46135 0.52598 0.71449 255 0 0
30.9890 -35.3360 0.0000 -0.47099 0.53698 0.69987 255 0 0
31.1130 -31.1130 -60.0000 0.04036 -0.04036 -0.99837 255 0 0
32.0570 -32.0570 -59.8500 0.15883 -0.15885 -0.97444 255 0 0
32.9540 -32.9540 -59.4060 0.30829 -0.30826 -0.89996 255 0 0
33.7580 -33.7580 -58.6910 0.44192 -0.44192 -0.78065 255 0 0
34.4300 -34.4300 -57.7410 0.55357 -0.55355 -0.62221 255 0 0
34.9350 -34.9350 -56.6030 0.63744 -0.63742 -0.43286 255 0 0
35.2490 -35.2490 -55.3350 0.68947 -0.68947 -0.22195 255 0 0
35.3550 -35.3550 -54.0000 0.70602 -0.70599 -0.05583 255 0 0
35.3550 -35.3550 60.0000 0.50509 -0.50509 0.69984 255 0 0
33.2340 -33.2340 60.0000 -0.49466 0.49466 0.71458 255 0 0
33.2340 -33.2340 0.0000 -0.50513 0.50513 0.69978 255 0 0
33.0810 -29.0110 -60.0000 0.04288 -0.03762 -0.99837 255 0 0
34.0850 -29.8920 -59.8500 0.16895 -0.14814 -0.97443 255 0 0
35.0380 -30.7280 -59.4060 0.32773 -0.28738 -0.90000 255 0 0
35.8940 -31.4780 -58.6910 0.46991 -0.41204 -0.78064 255 0 0
36.6080 -32.1040 -57.7410 0.58861 -0.51611 -0.62223 255 0 0
37.1450 -32.5760 -56.6030 0.67774 -0.59434 -0.43293 255 0 0
37.4790 -32.8680 -55.3350 0.73314 -0.64285 -0.22192 255 0 0
37.5920 -32.9670 -54.0000 0.75063 -0.65835 -0.05598 255 0 0
37.5920 -32.9670 60.0000 0.53701 -0.47104 0.69982 255 0 0
35.3360 -30.9890 60.0000 -0.52598 0.46135 0.71449 255 0 0
35.3360 -30.9890 0.0000 -0.53698 0.47099 0.69987 255 0 0
34.9080 -26.7860 -60.0000 0.04530 -0.03476 -0.99837 255 0 0
35.9670 -27.5980 -59.8500 0.17827 -0.13678 -0.97443 255 0 0
36.9730 -28.3700 -59.4060 0.34588 -0.26535 -0.89998 255 0 0
37.8750 -29.0630 -58.6910 0.49586 -0.38041 -0.78065 255 0 0
38.6290 -29.6410 -57.7410 0.62106 -0.47650 -0.62228 255 0 0
39.1960 -30.0760 -56.6030 0.71524 -0.54871 -0.43283 255 0 0
39.5480 -30.3460 -55.3350 0.77352 -0.59352 -0.22226 255 0 0
39.6680 -30.4380 -54.0000 0.79207 -0.60783 -0.05627 255 0 0
39.6680 -30.4380 60.0000 0.56673 -0.43487 0.69979 255 0 0
37.2880 -28.6120 60.0000 -0.55494 0.42590 0.71460 255 0 0
37.2880 -28.6120 0.0000 -0.56671 0.43493 0.69977 255 0 0
36.5850 -24.4450 -60.0000 0.04746 -0.03171 -0.99837 255 0 0
37.6950 -25.1870 -59.8500 0.18688 -0.12485 -0.97442 255 0 0
38.7490 -25.8910 -59.4060 0.36246 -0.24222 -0.89998 255 0 0
39.6950 -26.5230 -58.6910 0.51958 -0.34722 -0.78069 255 0 0
40.4850 -27.0510 -57.7410 0.65087 -0.43493 -0.62225 255 0 0
41.0790 -27.4480 -56.6030 0.74946 -0.50088 -0.43293 255 0 0
41.4480 -27.6950 -55.3350 0.81063 -0.54176 -0.22221 255 0 0
41.5730 -27.7790 -54.0000 0.83018 -0.55467 -0.05605 255 0 0
41.5730 -27.7790 60.0000 0.59396 -0.39681 0.69982 255 0 0
39.0790 -26.1120 60.0000 -0.58173 0.38862 0.71454 255 0 0
39.0790 -26.1120 0.0000 -0.59397 0.39680 0.69982 255 0 0
38.1050 -22.0000 -60.0000 0.04943 -0.02853 -0.99837 255 0 0
39.2610 -22.6680 -59.8500 0.19451 -0.11232 -0.97445 255 0 0
40.3600 -23.3020 -59.4060 0.37755 -0.21799 -0.89997 255 0 0
41.3450 -23.8700 -58.6910 0.54123 -0.31251 -0.78065 255 0 0
42.1680 -24.3450 -57.7410 0.67781 -0.39142 -0.62238 255 0 0
42.7870 -24.7030 -56.6030 0.78060 -0.45080 -0.43295 255 0 0
43.1710 -24.9250 -55.3350 0.84441 -0.48759 -0.22187 255 0 0
43.3010 -25.0000 -54.0000 0.86466 -0.49925 -0.05589 255 0 0
43.3010 -25.0000 60.0000 0.61859 -0.35718 0.69983 255 0 0
40.7030 -23.5000 60.0000 -0.60587 0.34982 0.71452 255 0 0
40.7030 -23.5000 0.0000 -0.61860 0.35717 0.69984 255 0 0
39.4620 -19.4610 -60.0000 0.05117 -0.02524 -0.99837 255 0 0
40.6600 -20.0510 -59.8500 0.20153 -0.09936 -0.97443 255 0 0
41.7970 -20.6120 -59.4060 0.39090 -0.19277 -0.90002 255 0 0
42.8180 -21.1150 -58.6910 0.56044 -0.27641 -0.78071 255 0 0
43.6700 -21.5350 -57.7410 0.70202 -0.34620 -0.62235 255 0 0
44.3110 -21.8520 -56.6030 0.80846 -0.39869 -0.43295 255 0 0
44.7090 -22.0480 -55.3350 0.87450 -0.43127 -0.22195 255 0 0
44.8440 -22.1140 -54.0000 0.89546 -0.44162 -0.05595 255 0 0
44.8440 -22.1140 60.0000 0.64067 -0.31596 0.69980 255 0 0
42.1530 -20.7880 60.0000 -0.62742 0.30939 0.71458 255 0 0
42.1530 -20.7880 0.0000 -0.64069 0.31593 0.69978 255 0 0
40.6510 -16.8380 -60.0000 0.05275 -0.02184 -0.99837 255 0 0
41.8840 -17.3490 -59.8500 0.20757 -0.08597 -0.97444 255 0 0
43.0560 -17.8340 -59.4060 0.40266 -0.16678 -0.90003 255 0 0
44.1070 -18.2700 -58.6910 0.57736 -0.23912 -0.78069 255 0 0
44.9850 -18.6330 -57.7410 0.72323 -0.29951 -0.62228 255 0 0
45.6450 -18.9070 -56.6030 0.83283 -0.34493 -0.43291 255 0 0
46.0550 -19.0770 -55.3350 0.90083 -0.37312 -0.22200 255 0 0
46.1940 -19.1340 -54.0000 0.92243 -0.38209 -0.05596 255 0 0
46.1940 -19.1340 60.0000 0.65991 -0.27338 0.69984 255 0 0
43.4220 -17.9860 60.0000 -0.64637 0.26776 0.71450 255 0 0
43.4220 -17.9860 0.0000 -0.65990 0.27337 0.69986 255 0 0
41.6650 -14.1430 -60.0000 0.05405 -0.01835 -0.99837 255 0 0
42.9290 -14.5720 -59.8500 0.21273 -0.07221 -0.97444 255 0 0
44.1300 -14.9800 -59.4060 0.41277 -0.14009 -0.90000 255 0 0
45.2070 -15.3460 -58.6910 0.59177 -0.20083 -0.78069 255 0 0
46.1070 -15.6510 -57.7410 0.74117 -0.25158 -0.62239 255 0 0
46.7840 -15.8810 -56.6030 0.85360 -0.28971 -0.43294 255 0 0
47.2040 -16.0240 -55.3350 0.92327 -0.31340 -0.22216 255 0 0
47.3470 -16.0720 -54.0000 0.94544 -0.32093 -0.05613 255 0 0
47.3470 -16.0720 60.0000 0.67646 -0.22960 0.69977 255 0 0
44.5060 -15.1080 60.0000 -0.66241 0.22494 0.71458 255 0 0
44.5060 -15.1080 0.0000 -0.67641 0.22970 0.69979 255 0 0
42.5010 -11.3880 -60.0000 0.05515 -0.01478 -0.99837 255 0 0
43.7900 -11.7340 -59.8500 0.21703 -0.05816 -0.97443 255 0 0
45.0150 -12.0620 -59.4060 0.42104 -0.11284 -0.90000 255 0 0
46.1140 -12.3560 -58.6910 0.60356 -0.16179 -0.78073 255 0 0
47.0320 -12.6020 -57.7410 0.75615 -0.20257 -0.62225 255 0 0
47.7220 -12.7870 -56.6030 0.87073 -0.23324 -0.43293 255 0 0
48.1510 -12.9020 -55.3350 0.94180 -0.25233 -0.22212 255 0 0
48.2960 -12.9410 -54.0000 0.96444 -0.25833 -0.05590 255 0 0
48.2960 -12.9410 60.0000 0.68997 -0.18481 0.69985 255 0 0
45.3990 -12.1640 60.0000 -0.67575 0.18102 0.71456 255 0 0
45.3990 -12.1640 0.0000 -0.69000 0.18484 0.69981 255 0 0
43.1550 -8.5840 -60.0000 0.05600 -0.01114 -0.99837 255 0 0
44.4640 -8.8440 -59.8500 0.22035 -0.04383 -0.97444 255 0 0
45.7080 -9.0920 -59.4060 0.42744 -0.08507 -0.90003 255 0 0
46.8240 -9.3140 -58.6910 0.61305 -0.12197 -0.78057 255 0 0
47.7550 -9.4990 -57.7410 0.76788 -0.15269 -0.62213 255 0 0
48.4560 -9.6390 -56.6030 0.88400 -0.17588 -0.43315 255 0 0
48.8920 -9.7250 -55.3350 0.95629 -0.19022 -0.22209 255 0 0
49.0390 -9.7550 -54.0000 0.97925 -0.19478 -0.05587 255 0 0
49.0390 -9.7550 60.0000 0.70060 -0.13936 0.69981 255 0 0
46.0970 -9.1690 60.0000 -0.68617 0.13646 0.71453 255 0 0
46.0970 -9.1690 0.0000 -0.70059 0.13933 0.69983 255 0 0
43.6240 -5.7430 -60.0000 0.05661 -0.00745 -0.99837 255 0 0
44.9470 -5.9170 -59.8500 0.22269 -0.02932 -0.97445 255 0 0
46.2050 -6.0830 -59.4060 0.43208 -0.05690 -0.90004 255 0 0
47.3330 -6.2310 -58.6910 0.61979 -0.08158 -0.78052 255 0 0
48.2740 -6.3550 -57.7410 0.77612 -0.10224 -0.62224 255 0 0
48.9830 -6.4490 -56.6030 0.89365 -0.11771 -0.43305 255 0 0
49.4230 -6.5070 -55.3350 0.96671 -0.12726 -0.22198 255 0 0
49.5720 -6.5260 -54.0000 0.98989 -0.13034 -0.05593 255 0 0
49.5720 -6.5260 60.0000 0.70820 -0.09326 0.69983 255 0 0
46.5980 -6.1350 60.0000 -0.69359 0.09127 0.71457 255 0 0
46.5980 -6.1350 0.0000 -0.70824 0.09319 0.69980 255 0 0
43.9060 -2.8780 -60.0000 0.05696 -0.00373 -0.99837 255 0 0
45.2380 -2.9650 -59.8500 0.22413 -0.01469 -0.97445 255 0 0
46.5040 -3.0480 -59.4060 0.43496 -0.02846 -0.90000 255 0 0
47.6390 -3.1220 -58.6910 0.62365 -0.04085 -0.78064 255 0 0
48.5870 -3.1850 -57.7410 0.78114 -0.05124 -0.62225 255 0 0
49.3000 -3.2310 -56.6030 0.89951 -0.05898 -0.43291 255 0 0
49.7430 -3.2600 -55.3350 0.97294 -0.06384 -0.22207 255 0 0
49.8930 -3.2700 -54.0000 0.99629 -0.06536 -0.05596 255 0 0
49.8930 -3.2700 60.0000 0.71280 -0.04675 0.69980 255 0 0
46.8990 -3.0740 60.0000 -0.69812 0.04574 0.71451 255 0 0
46.8990 -3.0740 0.0000 -0.71276 0.04670 0.69985 255 0 0
3 1 0 13
3 1 13 2
3 2 13 14
3 2 14 3
3 3 14 15
3 3 15 4
3 4 15 16
3 4 16 5
3 5 16 17
3 5 17 6
3 6 17 18
3 6 18 7
3 7 18 19
3 7 19 8
3 8 19 20
3 8 20 9
3 9 20 21
3 9 21 10
3 10 21 22
3 10 22 11
3 11 22 23
3 11 23 12
3 13 0 24
3 13 24 14
3 14 24 25
3 14 25 15
3 15 25 26
3 15 26 16
3 16 26 27
3 16 27 17
3 17 27 28
3 17 28 18
3 18 28 29
3 18 29 19
3 19 29 30
3 19 30 20
3 20 30 31
3 20 31 21
3 21 31 32
3 21 32 22
3 22 32 33
3 22 33 23
3 23 33 34
3 23 34 12
3 24 0 35
3 24 35 25
3 25 35 36
3 25 36 26
3 26 36 37
3 26 37 27
3 27 37 38
3 27 38 28
3 28 38 39
3 28 39 29
3 29 39 40
3 29 40 30
3 30 40 41
3 30 41 31
3 31 41 42
3 31 42 32
3 32 42 43
3 32 43 33
3 33 43 44
3 33 44 34
3 34 44 45
3 34 45 12
3 35 0 46
3 35 46 36
3 36 46 47
3 36 47 37
3 37 47 48
3 37 48 38
3 38 48 49
3 38 49 39
3 39 49 50
3 39 50 40
3 40 50 51
3 40 51 41
3 41 51 52
3 41 52 42
3 42 52 53
3 42 53 43
3 43 53 54
3 43 54 44
3 44 54 55
3 44 55 45
3 45 55 56
3 45 56 12
3 46 0 57
3 46 57 47
3 47 57 58
3 47 58 48
3 48 58 59
3 48 59 49
3 49 59 60
3 49 60 50
3 50 60 61
3 50 61 51
3 51 61 62
3 51 62 52
3 52 62 63
3 52 63 53
3 53 63 64
3 53 64 54
3 54 64 65
3 54 65 55
3 55 65 66
3 55 66 56
3 56 66 67
3 56 67 12
3 57 0 68
3 57 68 58
3 58 68 69
3 58 69 59
3 59 69 70
3 59 70 60
3 60 70 71
3 60 71 61
3 61 71 72
3 61 72 62
3 62 72 73
3 62 73 63
3 63 73 74
3 63 74 64
3 64 74 75
3 64 75 65
3 65 75 76
3 65 76 66
3 66 76 77
3 66 77 67
3 67 77 78
3 67 78 12
3 68 0 79
3 68 79 69
3 69 79 80
3 69 80 70
3 70 80 81
3 70 81 71
3 71 81 82
3 71 82 72
3 72 82 83
3 72 83 73
3 73 83 84
3 73 84 74
3 74 84 85
3 74 85 75
3 75 85 86
3 75 86 76
3 76 86 87
3 76 87 77
3 77 87 88
3 77 88 78
3 78 88 89
3 78 89 12
3 79 0 90
3 79 90 80
3 80 90 91
3 80 91 81
3 81 91 92
3 81 92 82
3 82 92 93
3 82 93 83
3 83 93 94
3 83 94 84
3 84 94 95
3 84 95 85
3 85 95 96
3 85 96 86
3 86 96 97
3 86 97 87
3 87 97 98
3 87 98 88
3 88 98 99
3 88 99 89
3 89 99 100
3 89 100 12
3 90 0 101
3 90 101 91
3 91 101 102
3 91 102 92
3 92 102 103
3 92 103 93
3 93 103 104
3 93 104 94
3 94 104 105
3 94 105 95
3 95 105 106
3 95 106 96
3 96 106 107
3 96 107 97
3 97 107 108
3 97 108 98
3 98 108 109
3 98 109 99
3 99 109 110
3 99 110 100
3 100 110 111
3 100 111 12
3 101 0 112
3 101 112 102
3 102 112 113
3 102 113 103
3 103 113 114
3 103 114 104
3 104 114 115
3 104 115 105
3 105 115 116
3 105 116 106
3 106 116 117
3 106 117 107
3 107 117 118
3 107 118 108
3 108 118 119
3 108 119 109
3 109 119 120
3 109 120 110
3 110 120 121
3 110 121 111
3 111 121 122
3 111 122 12
3 112 0 123
3 112 123 113
3 113 123 124
3 113 124 114
3 114 124 125
3 114 125 115
3 115 125 126
3 115 126 116
3 116 126 127
3 116 127 117
3 117 127 128
3 117 128 118
3 118 128 129
3 118 129 119
3 119 129 130
3 119 130 120
3 120 130 131
3 120 131 121
3 121 131 132
3 121 132 122
3 122 132 133
3 122 133 12
3 123 0 134
3 123 134 124
3 124 134 135
3 124 135 125
3 125 135 136
3 125 136 126
3 126 136 137
3 126 137 127
3 127 137 138
3 127 138 128
3 128 138 139
3 128 139 129
3 129 139 140
3 129 140 130
3 130 140 141
3 130 141 131
3 131 141 142
3 131 142 132
3 132 142 143
3 132 143 133
3 133 143 144
3 133 144 12
3 134 0 145
3 134 145 135
3 135 145 146
3 135 146 136
3 136 146 147
3 136 147 137
3 137 147 148
3 137 148 138
3 138 148 149
3 138 149 139
3 139 149 150
3 139 150 140
3 140 150 151
3 140 151 141
3 141 151 152
3 141 152 142
3 142 152 153
3 142 153 143
3 143 153 154
3 143 154 144
3 144 154 155
3 144 155 12
3 145 0 156
3 145 156 146
3 146 156 157
3 146 157 147
3 147 157 158
3 147 158 148
3 148 158 159
3 148 159 149
3 149 159 160
3 149 160 150
3 150 160 161
3 150 161 151
3 151 161 162
3 151 162 152
3 152 162 163
3 152 163 153
3 153 163 164
3 153 164 154
3 154 164 165
3 154 165 155
3 155 165 166
3 155 166 12
3 156 0 167
3 156 167 157
3 157 167 168
3 157 168 158
3 158 168 169
3 158 169 159
3 159 169 170
3 159 170 160
3 160 170 171
3 160 171 161
3 161 171 172
3 161 172 162
3 162 172 173
3 162 173 163
3 163 173 174
3 163 174 164
3 164 174 175
3 164 175 165
3 165 175 176
3 165 176 166
3 166 176 177
3 166 177 12
3 167 0 178
3 167 178 168
3 168 178 179
3 168 179 169
3 169 179 180
3 169 180 170
3 170 180 181
3 170 181 171
3 171 181 182
3 171 182 172
3 172 182 183
3 172 183 173
3 173 183 184
3 173 184 174
3 174 184 185
3 174 185 175
3 175 185 186
3 175 186 176
3 176 186 187
3 176 187 177
3 177 187 188
3 177 188 12
3 178 0 189
3 178 189 179
3 179 189 190
3 179 190 180
3 180 190 191
3 180 191 181
3 181 191 192
3 181 192 182
3 182 192 193
3 182 193 183
3 183 193 194
3 183 194 184
3 184 194 195
3 184 195 185
3 185 195 196
3 185 196 186
3 186 196 197
3 186 197 187
3 187 197 198
3 187 198 188
3 188 198 199
3 188 199 12
3 189 0 200
3 189 200 190
3 190 200 201
3 190 201 191
3 191 201 202
3 191 202 192
3 192 202 203
3 192 203 193
3 193 203 204
3 193 204 194
3 194 204 205
3 194 205 195
3 195 205 206
3 195 206 196
3 196 206 207
3 196 207 197
3 197 207 208
3 197 208 198
3 198 208 209
3 198 209 199
3 199 209 210
3 199 210 12
3 200 0 211
3 200 211 201
3 201 211 212
3 201 212 202
3 202 212 213
3 202 213 203
3 203 213 214
3 203 214 204
3 204 214 215
3 204 215 205
3 205 215 216
3 205 216 206
3 206 216 217
3 206 217 207
3 207 217 218
3 207 218 208
3 208 218 219
3 208 219 209
3 209 219 220
3 209 220 210
3 210 220 221
3 210 221 12
3 211 0 222
3 211 222 212
3 212 222 223
3 212 223 213
3 213 223 224
3 213 224 214
3 214 224 225
3 214 225 215
3 215 225 226
3 215 226 216
3 216 226 227
3 216 227 217
3 217 227 228
3 217 228 218
3 218 228 229
3 218 229 219
3 219 229 230
3 219 230 220
3 220 230 231
3 220 231 221
3 221 231 232
3 221 232 12
3 222 0 233
3 222 233 223
3 223 233 234
3 223 234 224
3 224 234 235
3 224 235 225
3 225 235 236
3 225 236 226
3 226 236 237
3 226 237 227
3 227 237 238
3 227 238 228
3 228 238 239
3 228 239 229
3 229 239 240
3 229 240 230
3 230 240 241
3 230 241 231
3 231 241 242
3 231 242 232
3 232 242 243
3 232 243 12
3 233 0 244
3 233 244 234
3 234 244 245
3 234 245 235
3 235 245 246
3 235 246 236
3 236 246 247
3 236 247 237
3 237 247 248
3 237 248 238
3 238 248 249
3 238 249 239
3 239 249 250
3 239 250 240
3 240 250 251
3 240 251 241
3 241 251 252
3 241 252 242
3 242 252 253
3 242 253 243
3 243 253 254
3 243 254 12
3 244 0 255
3 244 255 245
3 245 255 256
3 245 256 246
3 246 256 257
3 246 257 247
3 247 257 258
3 247 258 248
3 248 258 259
3 248 259 249
3 249 259 260
3 249 260 250
3 250 260 261
3 250 261 251
3 251 261 262
3 251 262 252
3 252 262 263
3 252 263 253
3 253 263 264
3 253 264 254
3 254 264 265
3 254 265 12
3 255 0 266
3 255 266 256
3 256 266 267
3 256 267 257
3 257 267 268
3 257 268 258
3 258 268 269
3 258 269 259
3 259 269 270
3 259 270 260
3 260 270 271
3 260 271 261
3 261 271 272
3 261 272 262
3 262 272 273
3 262 273 263
3 263 273 274
3 263 274 264
3 264 274 275
3 264 275 265
3 265 275 276
3 265 276 12
3 266 0 277
3 266 277 267
3 267 277 278
3 267 278 268
3 268 278 279
3 268 279 269
3 269 279 280
3 269 280 270
3 270 280 281
3 270 281 271
3 271 281 282
3 271 282 272
3 272 282 283
3 272 283 273
3 273 283 284
3 273 284 274
3 274 284 285
3 274 285 275
3 275 285 286
3 275 286 276
3 276 286 287
3 276 287 12
3 277 0 288
3 277 288 278
3 278 288 289
3 278 289 279
3 279 289 290
3 279 290 280
3 280 290 291
3 280 291 281
3 281 291 292
3 281 292 282
3 282 292 293
3 282 293 283
3 283 293 294
3 283 294 284
3 284 294 295
3 284 295 285
3 285 295 296
3 285 296 286
3 286 296 297
3 286 297 287
3 287 297 298
3 287 298 12
3 288 0 299
3 288 299 289
3 289 299 300
3 289 300 290
3 290 300 301
3 290 301 291
3 291 301 302
3 291 302 292
3 292 302 303
3 292 303 293
3 293 303 304
3 293 304 294
3 294 304 305
3 294 305 295
3 295 305 306
3 295 306 296
3 296 306 307
3 296 307 297
3 297 307 308
3 297 308 298
3 298 308 309
3 298 309 12
3 299 0 310
3 299 310 300
3 300 310 311
3 300 311 301
3 301 311 312
3 301 312 302
3 302 312 313
3 302 313 303
3 303 313 314
3 303 314 304
3 304 314 315
3 304 315 305
3 305 315 316
3 305 316 306
3 306 316 317
3 306 317 307
3 307 317 318
3 307 318 308
3 308 318 319
3 308 319 309
3 309 319 320
3 309 320 12
3 310 0 321
3 310 321 311
3 311 321 322
3 311 322 312
3 312 322 323
3 312 323 313
3 313 323 324
3 313 324 314
3 314 324 325
3 314 325 315
3 315 325 326
3 315 326 316
3 316 326 327
3 316 327 317
3 317 327 328
3 317 328 318
3 318 328 329
3 318 329 319
3 319 329 330
3 319 330 320
3 320 330 331
3 320 331 12
3 321 0 332
3 321 332 322
3 322 332 333
3 322 333 323
3 323 333 334
3 323 334 324
3 324 334 335
3 324 335 325
3 325 335 336
3 325 336 326
3 326 336 337
3 326 337 327
3 327 337 338
3 327 338 328
3 328 338 339
3 328 339 329
3 329 339 340
3 329 340 330
3 330 340 341
3 330 341 331
3 331 341 342
3 331 342 12
3 332 0 343
3 332 343 333
3 333 343 344
3 333 344 334
3 334 344 345
3 334 345 335
3 335 345 346
3 335 346 336
3 336 346 347
3 336 347 337
3 337 347 348
3 337 348 338
3 338 348 349
3 338 349 339
3 339 349 350
3 339 350 340
3 340 350 351
3 340 351 341
3 341 351 352
3 341 352 342
3 342 352 353
3 342 353 12
3 343 0 354
3 343 354 344
3 344 354 355
3 344 355 345
3 345 355 356
3 345 356 346
3 346 356 357
3 346 357 347
3 347 357 358
3 347 358 348
3 348 358 359
3 348 359 349
3 349 359 360
3 349 360 350
3 350 360 361
3 350 361 351
3 351 361 362
3 351 362 352
3 352 362 363
3 352 363 353
3 353 363 364
3 353 364 12
3 354 0 365
3 354 365 355
3 355 365 366
3 355 366 356
3 356 366 367
3 356 367 357
3 357 367 368
3 357 368 358
3 358 368 369
3 358 369 359
3 359 369 370
3 359 370 360
3 360 370 371
3 360 371 361
3 361 371 372
3 361 372 362
3 362 372 373
3 362 373 363
3 363 373 374
3 363 374 364
3 364 374 375
3 364 375 12
3 365 0 376
3 365 376 366
3 366 376 377
3 366 377 367
3 367 377 378
3 367 378 368
3 368 378 379
3 368 379 369
3 369 379 380
3 369 380 370
3 370 380 381
3 370 381 371
3 371 381 382
3 371 382 372
3 372 382 383
3 372 383 373
3 373 383 384
3 373 384 374
3 374 384 385
3 374 385 375
3 375 385 386
3 375 386 12
3 376 0 387
3 376 387 377
3 377 387 388
3 377 388 378
3 378 388 389
3 378 389 379
3 379 389 390
3 379 390 380
3 380 390 391
3 380 391 381
3 381 391 392
3 381 392 382
3 382 392 393
3 382 393 383
3 383 393 394
3 383 394 384
3 384 394 395
3 384 395 385
3 385 395 396
3 385 396 386
3 386 396 397
3 386 397 12
3 387 0 398
3 387 398 388
3 388 398 399
3 388 399 389
3 389 399 400
3 389 400 390
3 390 400 401
3 390 401 391
3 391 401 402
3 391 402 392
3 392 402 403
3 392 403 393
3 393 403 404
3 393 404 394
3 394 404 405
3 394 405 395
3 395 405 406
3 395 406 396
3 396 406 407
3 396 407 397
3 397 407 408
3 397 408 12
3 398 0 409
3 398 409 399
3 399 409 410
3 399 410 400
3 400 410 411
3 400 411 401
3 401 411 412
3 401 412 402
3 402 412 413
3 402 413 403
3 403 413 414
3 403 414 404
3 404 414 415
3 404 415 405
3 405 415 416
3 405 416 406
3 406 416 417
3 406 417 407
3 407 417 418
3 407 418 408
3 408 418 419
3 408 419 12
3 409 0 420
3 409 420 410
3 410 420 421
3 410 421 411
3 411 421 422
3 411 422 412
3 412 422 423
3 412 423 413
3 413 423 424
3 413 424 414
3 414 424 425
3 414 425 415
3 415 425 426
3 415 426 416
3 416 426 427
3 416 427 417
3 417 427 428
3 417 428 418
3 418 428 429
3 418 429 419
3 419 429 430
3 419 430 12
3 420 0 431
3 420 431 421
3 421 431 432
3 421 432 422
3 422 432 433
3 422 433 423
3 423 433 434
3 423 434 424
3 424 434 435
3 424 435 425
3 425 435 436
3 425 436 426
3 426 436 437
3 426 437 427
3 427 437 438
3 427 438 428
3 428 438 439
3 428 439 429
3 429 439 440
3 429 440 430
3 430 440 441
3 430 441 12
3 431 0 442
3 431 442 432
3 432 442 443
3 432 443 433
3 433 443 444
3 433 444 434
3 434 444 445
3 434 445 435
3 435 445 446
3 435 446 436
3 436 446 447
3 436 447 437
3 437 447 448
3 437 448 438
3 438 448 449
3 438 449 439
3 439 449 450
3 439 450 440
3 440 450 451
3 440 451 441
3 441 451 452
3 441 452 12
3 442 0 453
3 442 453 443
3 443 453 454
3 443 454 444
3 444 454 455
3 444 455 445
3 445 455 456
3 445 456 446
3 446 456 457
3 446 457 447
3 447 457 458
3 447 458 448
3 448 458 459
3 448 459 449
3 449 459 460
3 449 460 450
3 450 460 461
3 450 461 451
3 451 461 462
3 451 462 452
3 452 462 463
3 452 463 12
3 453 0 464
3 453 464 454
3 454 464 465
3 454 465 455
3 455 465 466
3 455 466 456
3 456 466 467
3 456 467 457
3 457 467 468
3 457 468 458
3 458 468 469
3 458 469 459
3 459 469 470
3 459 470 460
3 460 470 471
3 460 471 461
3 461 471 472
3 461 472 462
3 462 472 473
3 462 473 463
3 463 473 474
3 463 474 12
3 464 0 475
3 464 475 465
3 465 475 476
3 465 476 466
3 466 476 477
3 466 477 467
3 467 477 478
3 467 478 468
3 468 478 479
3 468 479 469
3 469 479 480
3 469 480 470
3 470 480 481
3 470 481 471
3 471 481 482
3 471 482 472
3 472 482 483
3 472 483 473
3 473 483 484
3 473 484 474
3 474 484 485
3 474 485 12
3 475 0 486
3 475 486 476
3 476 486 487
3 476 487 477
3 477 487 488
3 477 488 478
3 478 488 489
3 478 489 479
3 479 489 490
3 479 490 480
3 480 490 491
3 480 491 481
3 481 491 492
3 481 492 482
3 482 492 493
3 482 493 483
3 483 493 494
3 483 494 484
3 484 494 495
3 484 495 485
3 485 495 496
3 485 496 12
3 486 0 497
3 486 497 487
3 487 497 498
3 487 498 488
3 488 498 499
3 488 499 489
3 489 499 500
3 489 500 490
3 490 500 501
3 490 501 491
3 491 501 502
3 491 502 492
3 492 502 503
3 492 503 493
3 493 503 504
3 493 504 494
3 494 504 505
3 494 505 495
3 495 505 506
3 495 506 496
3 496 506 507
3 496 507 12
3 497 0 508
3 497 508 498
3 498 508 509
3 498 509 499
3 499 509 510
3 499 510 500
3 500 510 511
3 500 511 501
3 501 511 512
3 501 512 502
3 502 512 513
3 502 513 503
3 503 513 514
3 503 514 504
3 504 514 515
3 504 515 505
3 505 515 516
3 505 516 506
3 506 516 517
3 506 517 507
3 507 517 518
3 507 518 12
3 508 0 519
3 508 519 509
3 509 519 520
3 509 520 510
3 510 520 521
3 510 521 511
3 511 521 522
3 511 522 512
3 512 522 523
3 512 523 513
3 513 523 524
3 513 524 514
3 514 524 525
3 514 525 515
3 515 525 526
3 515 526 516
3 516 526 527
3 516 527 517
3 517 527 528
3 517 528 518
3 518 528 529
3 518 529 12
3 519 0 530
3 519 530 520
3 520 530 531
3 520 531 521
3 521 531 532
3 521 532 522
3 522 532 533
3 522 533 523
3 523 533 534
3 523 534 524
3 524 534 535
3 524 535 525
3 525 535 536
3 525 536 526
3 526 536 537
3 526 537 527
3 527 537 538
3 527 538 528
3 528 538 539
3 528 539 529
3 529 539 540
3 529 540 12
3 530 0 541
3 530 541 531
3 531 541 542
3 531 542 532
3 532 542 543
3 532 543 533
3 533 543 544
3 533 544 534
3 534 544 545
3 534 545 535
3 535 545 546
3 535 546 536
3 536 546 547
3 536 547 537
3 537 547 548
3 537 548 538
3 538 548 549
3 538 549 539
3 539 549 550
3 539 550 540
3 540 550 551
3 540 551 12
3 541 0 552
3 541 552 542
3 542 552 553
3 542 553 543
3 543 553 554
3 543 554 544
3 544 554 555
3 544 555 545
3 545 555 556
3 545 556 546
3 546 556 557
3 546 557 547
3 547 557 558
3 547 558 548
3 548 558 559
3 548 559 549
3 549 559 560
3 549 560 550
3 550 560 561
3 550 561 551
3 551 561 562
3 551 562 12
3 552 0 563
3 552 563 553
3 553 563 564
3 553 564 554
3 554 564 565
3 554 565 555
3 555 565 566
3 555 566 556
3 556 566 567
3 556 567 557
3 557 567 568
3 557 568 558
3 558 568 569
3 558 569 559
3 559 569 570
3 559 570 560
3 560 570 571
3 560 571 561
3 561 571 572
3 561 572 562
3 562 572 573
3 562 573 12
3 563 0 574
3 563 574 564
3 564 574 575
3 564 575 565
3 565 575 576
3 565 576 566
3 566 576 577
3 566 577 567
3 567 577 578
3 567 578 568
3 568 578 579
3 568 579 569
3 569 579 580
3 569 580 570
3 570 580 581
3 570 581 571
3 571 581 582
3 571 582 572
3 572 582 583
3 572 583 573
3 573 583 584
3 573 584 12
3 574 0 585
3 574 585 575
3 575 585 586
3 575 586 576
3 576 586 587
3 576 587 577
3 577 587 588
3 577 588 578
3 578 588 589
3 578 589 579
3 579 589 590
3 579 590 580
3 580 590 591
3 580 591 581
3 581 591 592
3 581 592 582
3 582 592 593
3 582 593 583
3 583 593 594
3 583 594 584
3 584 594 595
3 584 595 12
3 585 0 596
3 585 596 586
3 586 596 597
3 586 597 587
3 587 597 598
3 587 598 588
3 588 598 599
3 588 599 589
3 589 599 600
3 589 600 590
3 590 600 601
3 590 601 591
3 591 601 602
3 591 602 592
3 592 602 603
3 592 603 593
3 593 603 604
3 593 604 594
3 594 604 605
3 594 605 595
3 595 605 606
3 595 606 12
3 596 0 607
3 596 607 597
3 597 607 608
3 597 608 598
3 598 608 609
3 598 609 599
3 599 609 610
3 599 610 600
3 600 610 611
3 600 611 601
3 601 611 612
3 601 612 602
3 602 612 613
3 602 613 603
3 603 613 614
3 603 614 604
3 604 614 615
3 604 615 605
3 605 615 616
3 605 616 606
3 606 616 617
3 606 617 12
3 607 0 618
3 607 618 608
3 608 618 619
3 608 619 609
3 609 619 620
3 609 620 610
3 610 620 621
3 610 621 611
3 611 621 622
3 611 622 612
3 612 622 623
3 612 623 613
3 613 623 624
3 613 624 614
3 614 624 625
3 614 625 615
3 615 625 626
3 615 626 616
3 616 626 627
3 616 627 617
3 617 627 628
3 617 628 12
3 618 0 629
3 618 629 619
3 619 629 630
3 619 630 620
3 620 630 631
3 620 631 621
3 621 631 632
3 621 632 622
3 622 632 633
3 622 633 623
3 623 633 634
3 623 634 624
3 624 634 635
3 624 635 625
3 625 635 636
3 625 636 626
3 626 636 637
3 626 637 627
3 627 637 638
3 627 638 628
3 628 638 639
3 628 639 12
3 629 0 640
3 629 640 630
3 630 640 641
3 630 641 631
3 631 641 642
3 631 642 632
3 632 642 643
3 632 643 633
3 633 643 644
3 633 644 634
3 634 644 645
3 634 645 635
3 635 645 646
3 635 646 636
3 636 646 647
3 636 647 637
3 637 647 648
3 637 648 638
3 638 648 649
3 638 649 639
3 639 649 650
3 639 650 12
3 640 0 651
3 640 651 641
3 641 651 652
3 641 652 642
3 642 652 653
3 642 653 643
3 643 653 654
3 643 654 644
3 644 654 655
3 644 655 645
3 645 655 656
3 645 656 646
3 646 656 657
3 646 657 647
3 647 657 658
3 647 658 648
3 648 658 659
3 648 659 649
3 649 659 660
3 649 660 650
3 650 660 661
3 650 661 12
3 651 0 662
3 651 662 652
3 652 662 663
3 652 663 653
3 653 663 664
3 653 664 654
3 654 664 665
3 654 665 655
3 655 665 666
3 655 666 656
3 656 666 667
3 656 667 657
3 657 667 668
3 657 668 658
3 658 668 669
3 658 669 659
3 659 669 670
3 659 670 660
3 660 670 671
3 660 671 661
3 661 671 672
3 661 672 12
3 662 0 673
3 662 673 663
3 663 673 674
3 663 674 664
3 664 674 675
3 664 675 665
3 665 675 676
3 665 676 666
3 666 676 677
3 666 677 667
3 667 677 678
3 667 678 668
3 668 678 679
3 668 679 669
3 669 679 680
3 669 680 670
3 670 680 681
3 670 681 671
3 671 681 682
3 671 682 672
3 672 682 683
3 672 683 12
3 673 0 684
3 673 684 674
3 674 684 685
3 674 685 675
3 675 685 686
3 675 686 676
3 676 686 687
3 676 687 677
3 677 687 688
3 677 688 678
3 678 688 689
3 678 689 679
3 679 689 690
3 679 690 680
3 680 690 691
3 680 691 681
3 681 691 692
3 681 692 682
3 682 692 693
3 682 693 683
3 683 693 694
3 683 694 12
3 684 0 695
3 684 695 685
3 685 695 696
3 685 696 686
3 686 696 697
3 686 697 687
3 687 697 698
3 687 698 688
3 688 698 699
3 688 699 689
3 689 699 700
3 689 700 690
3 690 700 701
3 690 701 691
3 691 701 702
3 691 702 692
3 692 702 703
3 692 703 693
3 693 703 704
3 693 704 694
3 694 704 705
3 694 705 12
3 695 0 706
3 695 706 696
3 696 706 707
3 696 707 697
3 697 707 708
3 697 708 698
3 698 708 709
3 698 709 699
3 699 709 710
3 699 710 700
3 700 710 711
3 700 711 701
3 701 711 712
3 701 712 702
3 702 712 713
3 702 713 703
3 703 713 714
3 703 714 704
3 704 714 715
3 704 715 705
3 705 715 716
3 705 716 12
3 706 0 717
3 706 717 707
3 707 717 718
3 707 718 708
3 708 718 719
3 708 719 709
3 709 719 720
3 709 720 710
3 710 720 721
3 710 721 711
3 711 721 722
3 711 722 712
3 712 722 723
3 712 723 713
3 713 723 724
3 713 724 714
3 714 724 725
3 714 725 715
3 715 725 726
3 715 726 716
3 716 726 727
3 716 727 12
3 717 0 728
3 717 728 718
3 718 728 729
3 718 729 719
3 719 729 730
3 719 730 720
3 720 730 731
3 720 731 721
3 721 731 732
3 721 732 722
3 722 732 733
3 722 733 723
3 723 733 734
3 723 734 724
3 724 734 735
3 724 735 725
3 725 735 736
3 725 736 726
3 726 736 737
3 726 737 727
3 727 737 738
3 727 738 12
3 728 0 739
3 728 739 729
3 729 739 740
3 729 740 730
3 730 740 741
3 730 741 731
3 731 741 742
3 731 742 732
3 732 742 743
3 732 743 733
3 733 743 744
3 733 744 734
3 734 744 745
3 734 745 735
3 735 745 746
3 735 746 736
3 736 746 747
3 736 747 737
3 737 747 748
3 737 748 738
3 738 748 749
3 738 749 12
3 739 0 750
3 739 750 740
3 740 750 751
3 740 751 741
3 741 751 752
3 741 752 742
3 742 752 753
3 742 753 743
3 743 753 754
3 743 754 744
3 744 754 755
3 744 755 745
3 745 755 756
3 745 756 746
3 746 756 757
3 746 757 747
3 747 757 758
3 747 758 748
3 748 758 759
3 748 759 749
3 749 759 760
3 749 760 12
3 750 0 761
3 750 761 751
3 751 761 762
3 751 762 752
3 752 762 763
3 752 763 753
3 753 763 764
3 753 764 754
3 754 764 765
3 754 765 755
3 755 765 766
3 755 766 756
3 756 766 767
3 756 767 757
3 757 767 768
3 757 768 758
3 758 768 769
3 758 769 759
3 759 769 770
3 759 770 760
3 760 770 771
3 760 771 12
3 761 0 772
3 761 772 762
3 762 772 773
3 762 773 763
3 763 773 774
3 763 774 764
3 764 774 775
3 764 775 765
3 765 775 776
3 765 776 766
3 766 776 777
3 766 777 767
3 767 777 778
3 767 778 768
3 768 778 779
3 768 779 769
3 769 779 780
3 769 780 770
3 770 780 781
3 770 781 771
3 771 781 782
3 771 782 12
3 772 0 783
3 772 783 773
3 773 783 784
3 773 784 774
3 774 784 785
3 774 785 775
3 775 785 786
3 775 786 776
3 776 786 787
3 776 787 777
3 777 787 788
3 777 788 778
3 778 788 789
3 778 789 779
3 779 789 790
3 779 790 780
3 780 790 791
3 780 791 781
3 781 791 792
3 781 792 782
3 782 792 793
3 782 793 12
3 783 0 794
3 783 794 784
3 784 794 795
3 784 795 785
3 785 795 796
3 785 796 786
3 786 796 797
3 786 797 787
3 787 797 798
3 787 798 788
3 788 798 799
3 788 799 789
3 789 799 800
3 789 800 790
3 790 800 801
3 790 801 791
3 791 801 802
3 791 802 792
3 792 802 803
3 792 803 793
3 793 803 804
3 793 804 12
3 794 0 805
3 794 805 795
3 795 805 806
3 795 806 796
3 796 806 807
3 796 807 797
3 797 807 808
3 797 808 798
3 798 808 809
3 798 809 799
3 799 809 810
3 799 810 800
3 800 810 811
3 800 811 801
3 801 811 812
3 801 812 802
3 802 812 813
3 802 813 803
3 803 813 814
3 803 814 804
3 804 814 815
3 804 815 12
3 805 0 816
3 805 816 806
3 806 816 817
3 806 817 807
3 807 817 818
3 807 818 808
3 808 818 819
3 808 819 809
3 809 819 820
3 809 820 810
3 810 820 821
3 810 821 811
3 811 821 822
3 811 822 812
3 812 822 823
3 812 823 813
3 813 823 824
3 813 824 814
3 814 824 825
3 814 825 815
3 815 825 826
3 815 826 12
3 816 0 827
3 816 827 817
3 817 827 828
3 817 828 818
3 818 828 829
3 818 829 819
3 819 829 830
3 819 830 820
3 820 830 831
3 820 831 821
3 821 831 832
3 821 832 822
3 822 832 833
3 822 833 823
3 823 833 834
3 823 834 824
3 824 834 835
3 824 835 825
3 825 835 836
3 825 836 826
3 826 836 837
3 826 837 12
3 827 0 838
3 827 838 828
3 828 838 839
3 828 839 829
3 829 839 840
3 829 840 830
3 830 840 841
3 830 841 831
3 831 841 842
3 831 842 832
3 832 842 843
3 832 843 833
3 833 843 844
3 833 844 834
3 834 844 845
3 834 845 835
3 835 845 846
3 835 846 836
3 836 846 847
3 836 847 837
3 837 847 848
3 837 848 12
3 838 0 849
3 838 849 839
3 839 849 850
3 839 850 840
3 840 850 851
3 840 851 841
3 841 851 852
3 841 852 842
3 842 852 853
3 842 853 843
3 843 853 854
3 843 854 844
3 844 854 855
3 844 855 845
3 845 855 856
3 845 856 846
3 846 856 857
3 846 857 847
3 847 857 858
3 847 858 848
3 848 858 859
3 848 859 12
3 849 0 860
3 849 860 850
3 850 860 861
3 850 861 851
3 851 861 862
3 851 862 852
3 852 862 863
3 852 863 853
3 853 863 864
3 853 864 854
3 854 864 865
3 854 865 855
3 855 865 866
3 855 866 856
3 856 866 867
3 856 867 857
3 857 867 868
3 857 868 858
3 858 868 869
3 858 869 859
3 859 869 870
3 859 870 12
3 860 0 871
3 860 871 861
3 861 871 872
3 861 872 862
3 862 872 873
3 862 873 863
3 863 873 874
3 863 874 864
3 864 874 875
3 864 875 865
3 865 875 876
3 865 876 866
3 866 876 877
3 866 877 867
3 867 877 878
3 867 878 868
3 868 878 879
3 868 879 869
3 869 879 880
3 869 880 870
3 870 880 881
3 870 881 12
3 871 0 882
3 871 882 872
3 872 882 883
3 872 883 873
3 873 883 884
3 873 884 874
3 874 884 885
3 874 885 875
3 875 885 886
3 875 886 876
3 876 886 887
3 876 887 877
3 877 887 888
3 877 888 878
3 878 888 889
3 878 889 879
3 879 889 890
3 879 890 880
3 880 890 891
3 880 891 881
3 881 891 892
3 881 892 12
3 882 0 893
3 882 893 883
3 883 893 894
3 883 894 884
3 884 894 895
3 884 895 885
3 885 895 896
3 885 896 886
3 886 896 897
3 886 897 887
3 887 897 898
3 887 898 888
3 888 898 899
3 888 899 889
3 889 899 900
3 889 900 890
3 890 900 901
3 890 901 891
3 891 901 902
3 891 902 892
3 892 902 903
3 892 903 12
3 893 0 904
3 893 904 894
3 894 904 905
3 894 905 895
3 895 905 906
3 895 906 896
3 896 906 907
3 896 907 897
3 897 907 908
3 897 908 898
3 898 908 909
3 898 909 899
3 899 909 910
3 899 910 900
3 900 910 911
3 900 911 901
3 901 911 912
3 901 912 902
3 902 912 913
3 902 913 903
3 903 913 914
3 903 914 12
3 904 0 915
3 904 915 905
3 905 915 916
3 905 916 906
3 906 916 917
3 906 917 907
3 907 917 918
3 907 918 908
3 908 918 919
3 908 919 909
3 909 919 920
3 909 920 910
3 910 920 921
3 910 921 911
3 911 921 922
3 911 922 912
3 912 922 923
3 912 923 913
3 913 923 924
3 913 924 914
3 914 924 925
3 914 925 12
3 915 0 926
3 915 926 916
3 916 926 927
3 916 927 917
3 917 927 928
3 917 928 918
3 918 928 929
3 918 929 919
3 919 929 930
3 919 930 920
3 920 930 931
3 920 931 921
3 921 931 932
3 921 932 922
3 922 932 933
3 922 933 923
3 923 933 934
3 923 934 924
3 924 934 935
3 924 935 925
3 925 935 936
3 925 936 12
3 926 0 937
3 926 937 927
3 927 937 938
3 927 938 928
3 928 938 939
3 928 939 929
3 929 939 940
3 929 940 930
3 930 940 941
3 930 941 931
3 931 941 942
3 931 942 932
3 932 942 943
3 932 943 933
3 933 943 944
3 933 944 934
3 934 944 945
3 934 945 935
3 935 945 946
3 935 946 936
3 936 946 947
3 936 947 12
3 937 0 948
3 937 948 938
3 938 948 949
3 938 949 939
3 939 949 950
3 939 950 940
3 940 950 951
3 940 951 941
3 941 951 952
3 941 952 942
3 942 952 953
3 942 953 943
3 943 953 954
3 943 954 944
3 944 954 955
3 944 955 945
3 945 955 956
3 945 956 946
3 946 956 957
3 946 957 947
3 947 957 958
3 947 958 12
3 948 0 959
3 948 959 949
3 949 959 960
3 949 960 950
3 950 960 961
3 950 961 951
3 951 961 962
3 951 962 952
3 952 962 963
3 952 963 953
3 953 963 964
3 953 964 954
3 954 964 965
3 954 965 955
3 955 965 966
3 955 966 956
3 956 966 967
3 956 967 957
3 957 967 968
3 957 968 958
3 958 968 969
3 958 969 12
3 959 0 970
3 959 970 960
3 960 970 971
3 960 971 961
3 961 971 972
3 961 972 962
3 962 972 973
3 962 973 963
3 963 973 974
3 963 974 964
3 964 974 975
3 964 975 965
3 965 975 976
3 965 976 966
3 966 976 977
3 966 977 967
3 967 977 978
3 967 978 968
3 968 978 979
3 968 979 969
3 969 979 980
3 969 980 12
3 970 0 981
3 970 981 971
3 971 981 982
3 971 982 972
3 972 982 983
3 972 983 973
3 973 983 984
3 973 984 974
3 974 984 985
3 974 985 975
3 975 985 986
3 975 986 976
3 976 986 987
3 976 987 977
3 977 987 988
3 977 988 978
3 978 988 989
3 978 989 979
3 979 989 990
3 979 990 980
3 980 990 991
3 980 991 12
3 981 0 992
3 981 992 982
3 982 992 993
3 982 993 983
3 983 993 994
3 983 994 984
3 984 994 995
3 984 995 985
3 985 995 996
3 985 996 986
3 986 996 997
3 986 997 987
3 987 997 998
3 987 998 988
3 988 998 999
3 988 999 989
3 989 999 1000
3 989 1000 990
3 990 1000 1001
3 990 1001 991
3 991 1001 1002
3 991 1002 12
3 992 0 1003
3 992 1003 993
3 993 1003 1004
3 993 1004 994
3 994 1004 1005
3 994 1005 995
3 995 1005 1006
3 995 1006 996
3 996 1006 1007
3 996 1007 997
3 997 1007 1008
3 997 1008 998
3 998 1008 1009
3 998 1009 999
3 999 1009 1010
3 999 1010 1000
3 1000 1010 1011
3 1000 1011 1001
3 1001 1011 1012
3 1001 1012 1002
3 1002 1012 1013
3 1002 1013 12
3 1003 0 1014
3 1003 1014 1004
3 1004 1014 1015
3 1004 1015 1005
3 1005 1015 1016
3 1005 1016 1006
3 1006 1016 1017
3 1006 1017 1007
3 1007 1017 1018
3 1007 1018 1008
3 1008 1018 1019
3 1008 1019 1009
3 1009 1019 1020
3 1009 1020 1010
3 1010 1020 1021
3 1010 1021 1011
3 1011 1021 1022
3 1011 1022 1012
3 1012 1022 1023
3 1012 1023 1013
3 1013 1023 1024
3 1013 1024 12
3 1014 0 1025
3 1014 1025 1015
3 1015 1025 1026
3 1015 1026 1016
3 1016 1026 1027
3 1016 1027 1017
3 1017 1027 1028
3 1017 1028 1018
3 1018 1028 1029
3 1018 1029 1019
3 1019 1029 1030
3 1019 1030 1020
3 1020 1030 1031
3 1020 1031 1021
3 1021 1031 1032
3 1021 1032 1022
3 1022 1032 1033
3 1022 1033 1023
3 1023 1033 1034
3 1023 1034 1024
3 1024 1034 1035
3 1024 1035 12
3 1025 0 1036
3 1025 1036 1026
3 1026 1036 1037
3 1026 1037 1027
3 1027 1037 1038
3 1027 1038 1028
3 1028 1038 1039
3 1028 1039 1029
3 1029 1039 1040
3 1029 1040 1030
3 1030 1040 1041
3 1030 1041 1031
3 1031 1041 1042
3 1031 1042 1032
3 1032 1042 1043
3 1032 1043 1033
3 1033 1043 1044
3 1033 1044 1034
3 1034 1044 1045
3 1034 1045 1035
3 1035 1045 1046
3 1035 1046 12
3 1036 0 1047
3 1036 1047 1037
3 1037 1047 1048
3 1037 1048 1038
3 1038 1048 1049
3 1038 1049 1039
3 1039 1049 1050
3 1039 1050 1040
3 1040 1050 1051
3 1040 1051 1041
3 1041 1051 1052
3 1041 1052 1042
3 1042 1052 1053
3 1042 1053 1043
3 1043 1053 1054
3 1043 1054 1044
3 1044 1054 1055
3 1044 1055 1045
3 1045 1055 1056
3 1045 1056 1046
3 1046 1056 1057
3 1046 1057 12
3 1047 0 1
3 1047 1 1048
3 1048 1 2
3 1048 2 1049
3 1049 2 3
3 1049 3 1050
3 1050 3 4
3 1050 4 1051
3 1051 4 5
3 1051 5 1052
3 1052 5 6
3 1052 6 1053
3 1053 6 7
3 1053 7 1054
3 1054 7 8
3 1054 8 1055
3 1055 8 9
3 1055 9 1056
3 1056 9 10
3 1056 10 1057
3 1057 10 11
3 1057 11 12
