ply
format ascii 1.0
comment made by oim.objects.fit_print
element vertex 80
property float x
property float y
property float z
property float nx
property float ny
property float nz
property uchar red
property uchar green
property uchar blue
element face 156
property list uchar int vertex_indices
end_header
-61.0281 34.8274 -30.0000 -0.9998 -0.0023 -0.0176 200 200 200
-61.0281 34.8274 30.0000 -0.9994 -0.0087 0.0338 200 200 200
-61.0281 63.2002 -30.0000 -0.8320 0.0073 -0.5548 200 200 200
-61.0281 63.2002 30.0000 -0.9452 0.0021 0.3266 200 200 200
-60.8981 34.0815 -30.0000 -0.9548 -0.2973 -0.0067 200 200 200
-60.8981 34.0815 30.0000 -0.9051 -0.4251 0.0068 200 200 200
-60.8981 63.8994 -30.0000 -0.7952 0.3895 -0.4647 200 200 200
-60.8981 63.8994 30.0000 -0.8423 0.2768 0.4624 200 200 200
-60.5081 33.4857 -30.0000 -0.7423 -0.6700 -0.0018 200 200 200
-60.5081 33.4857 30.0000 -0.6324 -0.7746 0.0018 200 200 200
-60.5081 64.4787 -30.0000 -0.5519 0.6880 -0.4712 200 200 200
-60.5081 64.4787 30.0000 -0.6430 0.5949 0.4824 200 200 200
-59.8606 33.0957 -30.0000 -0.3833 -0.9235 -0.0160 200 200 200
-59.8606 33.0957 30.0000 -0.2572 -0.9662 0.0150 200 200 200
-59.8543 64.8700 -30.0000 -0.2306 0.8821 -0.4109 200 200 200
-59.8543 64.8700 30.0000 -0.3416 0.8334 0.4344 200 200 200
-58.9632 32.9657 -30.0000 -0.0061 -0.8921 -0.4518 200 200 200
-58.9632 32.9657 30.0000 -0.0017 -0.9672 0.2538 200 200 200
-58.9354 65.0000 -30.0000 -0.0005 0.9385 -0.3452 200 200 200
-58.9354 65.0000 30.0000 -0.0018 0.8087 0.5882 200 200 200
-22.5253 32.9657 -30.0000 -0.0017 -0.9616 -0.2743 200 200 200
-22.5253 32.9657 30.0000 -0.0060 -0.8772 0.4800 200 200 200
-21.4740 32.8345 -30.0000 -0.0274 -0.1177 -0.9927 200 200 200
-21.4740 32.8345 30.0000 -0.0384 -0.1029 0.9939 200 200 200
-20.7773 32.4445 -30.0000 -0.5762 -0.7128 -0.4000 200 200 200
-20.7773 32.4445 30.0000 -0.6926 -0.5973 0.4044 200 200 200
-20.3860 31.7818 -30.0000 -0.6934 -0.2785 -0.6646 200 200 200
-20.3860 31.7818 30.0000 -0.7473 -0.1904 0.6366 200 200 200
-20.2560 -63.2015 -30.0000 -0.9998 -0.0007 -0.0187 200 200 200
-20.2560 -63.2015 30.0000 -0.9993 -0.0027 0.0369 200 200 200
-20.2560 30.8352 -30.0000 -0.5964 -0.0016 -0.8027 200 200 200
-20.2560 30.8352 30.0000 -0.8257 -0.0006 0.5640 200 200 200
-20.1260 -63.8994 -30.0000 -0.9499 -0.3126 -0.0070 200 200 200
-20.1260 -63.8994 30.0000 -0.8979 -0.4401 0.0070 200 200 200
-19.7360 -64.4787 -30.0000 -0.7264 -0.6873 -0.0019 200 200 200
-19.7360 -64.4787 30.0000 -0.6113 -0.7914 0.0018 200 200 200
-19.0494 -64.8700 -30.0000 -0.3566 -0.9341 -0.0157 200 200 200
-19.0494 -64.8700 30.0000 -0.2327 -0.9724 0.0144 200 200 200
-18.0321 -65.0000 -30.0000 -0.0036 -0.5290 -0.8486 200 200 200
-18.0321 -65.0000 30.0000 -0.0014 -0.7674 0.6412 200 200 200
17.9387 -65.0000 -30.0000 0.0014 -0.7773 -0.6292 200 200 200
17.9387 -65.0000 30.0000 0.0037 -0.5392 0.8422 200 200 200
18.8273 -64.8700 -30.0000 0.1740 -0.6463 -0.7430 200 200 200
18.8273 -64.8700 30.0000 0.2503 -0.5961 0.7629 200 200 200
19.4697 -64.4787 -30.0000 0.4335 -0.5331 -0.7266 200 200 200
19.4697 -64.4787 30.0000 0.4993 -0.4582 0.7354 200 200 200
19.8597 -63.8994 -30.0000 0.6973 -0.3422 -0.6298 200 200 200
19.8597 -63.8994 30.0000 0.7392 -0.2442 0.6276 200 200 200
19.9910 -63.2015 -30.0000 0.8315 -0.0023 -0.5555 200 200 200
19.9910 -63.2015 30.0000 0.9474 -0.0007 0.3200 200 200 200
19.9910 30.8352 -30.0000 0.9466 -0.0007 -0.3223 200 200 200
19.9910 30.8352 30.0000 0.8305 -0.0023 0.5571 200 200 200
20.1210 31.7818 -30.0000 0.8961 -0.2279 -0.3809 200 200 200
20.1210 31.7818 30.0000 0.8485 -0.3399 0.4057 200 200 200
20.5110 32.4445 -30.0000 0.6813 -0.5650 -0.4654 200 200 200
20.5110 32.4445 30.0000 0.5766 -0.6695 0.4683 200 200 200
21.1534 32.8345 -30.0000 0.0105 -0.0249 -0.9996 200 200 200
21.1534 32.8345 30.0000 0.0075 -0.0277 0.9996 200 200 200
22.0382 32.9657 -30.0000 0.0060 -0.8873 -0.4611 200 200 200
22.0382 32.9657 30.0000 0.0017 -0.9657 0.2598 200 200 200
59.1285 65.0000 -30.0000 0.0018 0.8173 -0.5761 200 200 200
59.1285 65.0000 30.0000 0.0005 0.9421 0.3353 200 200 200
59.1487 32.9657 -30.0000 0.0017 -0.9655 -0.2604 200 200 200
59.1487 32.9657 30.0000 0.0060 -0.8860 0.4637 200 200 200
59.9022 64.8700 -30.0000 0.3770 0.8203 -0.4301 200 200 200
59.9022 64.8700 30.0000 0.2627 0.8687 0.4199 200 200 200
59.9073 33.0957 -30.0000 0.2612 -0.8511 -0.4553 200 200 200
59.9073 33.0957 30.0000 0.3730 -0.8033 0.4643 200 200 200
60.5081 33.4857 -30.0000 0.6081 -0.7035 -0.3680 200 200 200
60.5081 33.4857 30.0000 0.7002 -0.6114 0.3686 200 200 200
60.5081 64.4787 -30.0000 0.7056 0.6309 -0.3224 200 200 200
60.5081 64.4787 30.0000 0.6139 0.7220 0.3192 200 200 200
60.8981 34.0815 -30.0000 0.8849 -0.4157 -0.2101 200 200 200
60.8981 34.0815 30.0000 0.9343 -0.2909 0.2058 200 200 200
60.8981 63.8994 -30.0000 0.9390 0.3086 -0.1519 200 200 200
60.8981 63.8994 30.0000 0.8875 0.4347 0.1528 200 200 200
61.0281 34.8274 -30.0000 1.0000 -0.0087 -0.0042 200 200 200
61.0281 34.8274 30.0000 1.0000 -0.0023 0.0022 200 200 200
61.0281 63.2002 -30.0000 1.0000 0.0023 -0.0011 200 200 200
61.0281 63.2002 30.0000 1.0000 0.0087 0.0021 200 200 200
3 36 34 32
3 36 32 28
3 38 36 28
3 38 28 30
3 40 38 30
3 42 40 30
3 44 42 30
3 46 44 30
3 48 46 30
3 50 48 30
3 50 30 26
3 52 50 26
3 54 52 26
3 54 26 24
3 56 54 24
3 56 24 22
3 12 8 4
3 12 4 0
3 16 12 0
3 16 0 2
3 20 16 2
3 20 2 6
3 20 6 10
3 20 10 14
3 20 14 18
3 22 20 18
3 56 22 18
3 56 18 60
3 58 56 60
3 62 58 60
3 66 62 60
3 66 60 64
3 68 66 64
3 68 64 70
3 72 68 70
3 72 70 74
3 76 72 74
3 78 76 74
3 33 35 37
3 29 33 37
3 29 37 39
3 31 29 39
3 31 39 41
3 31 41 43
3 31 43 45
3 31 45 47
3 31 47 49
3 31 49 51
3 27 31 51
3 27 51 53
3 27 53 55
3 25 27 55
3 25 55 57
3 23 25 57
3 5 9 13
3 1 5 13
3 1 13 17
3 3 1 17
3 3 17 21
3 7 3 21
3 11 7 21
3 15 11 21
3 19 15 21
3 19 21 23
3 19 23 57
3 61 19 57
3 61 57 59
3 61 59 63
3 61 63 67
3 65 61 67
3 65 67 69
3 71 65 69
3 71 69 73
3 75 71 73
3 75 73 77
3 75 77 79
3 41 39 40
3 40 39 38
3 43 41 42
3 42 41 40
3 45 43 44
3 44 43 42
3 47 45 46
3 46 45 44
3 49 47 48
3 48 47 46
3 51 49 50
3 50 49 48
3 53 51 52
3 52 51 50
3 55 53 54
3 54 53 52
3 57 55 56
3 56 55 54
3 59 57 58
3 58 57 56
3 63 59 62
3 62 59 58
3 67 63 66
3 66 63 62
3 69 67 68
3 68 67 66
3 73 69 72
3 72 69 68
3 77 73 76
3 76 73 72
3 79 77 78
3 78 77 76
3 75 79 74
3 74 79 78
3 71 75 70
3 70 75 74
3 65 71 64
3 64 71 70
3 61 65 60
3 60 65 64
3 19 61 18
3 18 61 60
3 15 19 14
3 14 19 18
3 11 15 10
3 10 15 14
3 7 11 6
3 6 11 10
3 3 7 2
3 2 7 6
3 1 3 0
3 0 3 2
3 5 1 4
3 4 1 0
3 9 5 8
3 8 5 4
3 13 9 12
3 12 9 8
3 17 13 16
3 16 13 12
3 21 17 20
3 20 17 16
3 23 21 22
3 22 21 20
3 25 23 24
3 24 23 22
3 27 25 26
3 26 25 24
3 31 27 30
3 30 27 26
3 29 31 28
3 28 31 30
3 33 29 32
3 32 29 28
3 35 33 34
3 34 33 32
3 39 37 38
3 38 37 36
3 37 35 36
3 36 35 34
