ply
format ascii 1.0
comment made by oim.objects.fit_print
element vertex 276
property float x
property float y
property float z
property float nx
property float ny
property float nz
property uchar red
property uchar green
property uchar blue
element face 548
property list uchar int vertex_indices
end_header
-75.0000 -1.7650 -37.5000 -0.8568 -0.0001 -0.5156 200 200 200
-75.0000 -1.7650 37.5000 -0.8577 -0.0121 0.5140 200 200 200
-74.8711 7.5398 -37.5000 -0.8503 0.0362 -0.5251 200 200 200
-74.8711 7.5398 37.5000 -0.8531 0.0239 0.5213 200 200 200
-74.7376 -11.1903 -37.5000 -0.8597 -0.0375 -0.5095 200 200 200
-74.7376 -11.1903 37.5000 -0.8572 -0.0511 0.5125 200 200 200
-74.3541 16.5534 -37.5000 -0.8389 0.0744 -0.5392 200 200 200
-74.3541 16.5534 37.5000 -0.8439 0.0614 0.5330 200 200 200
-74.0405 -20.3689 -37.5000 -0.7998 -0.0764 -0.5954 200 200 200
-74.0405 -20.3689 37.5000 -0.7921 -0.0919 0.6034 200 200 200
-73.4552 25.1049 -37.5000 -0.9044 0.1289 -0.4067 200 200 200
-73.4552 25.1049 37.5000 -0.9084 0.1122 0.4028 200 200 200
-72.8621 -28.9359 -37.5000 -0.9055 -0.1443 -0.3991 200 200 200
-72.8621 -28.9359 37.5000 -0.8992 -0.1638 0.4057 200 200 200
-72.1262 33.3068 -37.5000 -0.8221 0.1682 -0.5440 200 200 200
-72.1262 33.3068 37.5000 -0.8267 0.1514 0.5419 200 200 200
-71.2164 -36.9223 -37.5000 -0.8352 -0.1924 -0.5152 200 200 200
-71.2164 -36.9223 37.5000 -0.8264 -0.2113 0.5220 200 200 200
-70.3206 41.2757 -37.5000 -0.8134 0.2256 -0.5362 200 200 200
-70.3206 41.2757 37.5000 -0.8211 0.2066 0.5321 200 200 200
-69.1158 -44.3612 -37.5000 -0.8176 -0.2524 -0.5175 200 200 200
-69.1158 -44.3612 37.5000 -0.8084 -0.2717 0.5222 200 200 200
-68.0181 48.8466 -37.5000 -0.8571 0.3148 -0.4078 200 200 200
-68.0181 48.8466 37.5000 -0.8680 0.2907 0.4026 200 200 200
-66.5649 -51.3573 -37.5000 -0.8549 -0.3353 -0.3959 200 200 200
-66.5649 -51.3573 37.5000 -0.8456 -0.3557 0.3982 200 200 200
-65.2048 55.8544 -37.5000 -0.7662 0.3623 -0.5307 200 200 200
-65.2048 55.8544 37.5000 -0.7775 0.3394 0.5294 200 200 200
-63.5700 -58.0117 -37.5000 -0.7764 -0.3692 -0.5107 200 200 200
-63.5700 -58.0117 37.5000 -0.7656 -0.3845 0.5158 200 200 200
-61.8078 62.5107 -37.5000 -0.7901 0.4618 -0.4031 200 200 200
-61.8078 62.5107 37.5000 -0.8017 0.4386 0.4062 200 200 200
-60.2863 -64.2039 -37.5000 -0.7594 -0.4212 -0.4959 200 200 200
-60.2863 -64.2039 37.5000 -0.7468 -0.4337 0.5041 200 200 200
-57.7525 69.0272 -37.5000 -0.6985 0.4890 -0.5224 200 200 200
-57.7525 69.0272 37.5000 -0.7147 0.4716 0.5165 200 200 200
-56.8722 -69.8136 -37.5000 -0.7750 -0.4957 -0.3919 200 200 200
-56.8722 -69.8136 37.5000 -0.7619 -0.5123 0.3962 200 200 200
-53.3851 74.9049 -37.5000 -0.6940 0.5900 -0.4128 200 200 200
-53.3851 74.9049 37.5000 -0.7189 0.5700 0.3980 200 200 200
-53.2252 -74.9709 -37.5000 -0.6954 -0.5175 -0.4987 200 200 200
-53.2252 -74.9709 37.5000 -0.6819 -0.5339 0.4999 200 200 200
-49.2491 -79.8000 -37.5000 -0.6911 -0.6043 -0.3965 200 200 200
-49.2491 -79.8000 37.5000 -0.6725 -0.6243 0.3974 200 200 200
-49.0441 79.6408 -37.5000 -0.5832 0.6098 -0.5367 200 200 200
-49.0441 79.6408 37.5000 -0.6086 0.5946 0.5254 200 200 200
-44.8910 -84.2214 -37.5000 -0.6303 -0.6665 -0.3982 200 200 200
-44.8910 -84.2214 37.5000 -0.6064 -0.6882 0.3983 200 200 200
-44.6519 83.5495 -37.5000 -0.5689 0.7151 -0.4063 200 200 200
-44.6519 83.5495 37.5000 -0.5899 0.7004 0.4019 200 200 200
-40.1277 86.9417 -37.5000 -0.5064 0.7614 -0.4048 200 200 200
-40.1277 86.9417 37.5000 -0.5285 0.7475 0.4024 200 200 200
-40.0967 -88.1553 -37.5000 -0.5238 -0.6861 -0.5048 200 200 200
-40.0967 -88.1553 37.5000 -0.4977 -0.7028 0.5082 200 200 200
-35.4312 89.8738 -37.5000 -0.4088 0.7441 -0.5283 200 200 200
-35.4312 89.8738 37.5000 -0.4295 0.7326 0.5281 200 200 200
-35.0462 -91.4621 -37.5000 -0.4729 -0.7869 -0.3965 200 200 200
-35.0462 -91.4621 37.5000 -0.4398 -0.8029 0.4025 200 200 200
-30.5158 92.3981 -37.5000 -0.3807 0.8339 -0.3996 200 200 200
-30.5158 92.3981 37.5000 -0.3998 0.8248 0.3999 200 200 200
-29.9196 -94.0000 -37.5000 -0.3556 -0.7801 -0.5148 200 200 200
-29.9196 -94.0000 37.5000 -0.3278 -0.7872 0.5223 200 200 200
-25.4233 94.5825 -37.5000 -0.3084 0.7979 -0.5180 200 200 200
-25.4233 94.5825 37.5000 -0.3227 0.7918 0.5186 200 200 200
-25.2355 3.2874 -37.5000 0.8011 -0.0098 -0.5985 200 200 200
-25.2355 3.2874 37.5000 0.8065 -0.0222 0.5908 200 200 200
-25.2106 -3.4252 -37.5000 0.7939 0.0182 -0.6078 200 200 200
-25.2106 -3.4252 37.5000 0.7983 0.0105 0.6021 200 200 200
-24.9995 -9.8427 -37.5000 0.7923 0.0460 -0.6084 200 200 200
-24.9995 -9.8427 37.5000 0.7955 0.0361 0.6048 200 200 200
-24.9343 10.4117 -37.5000 0.8096 -0.0508 -0.5848 200 200 200
-24.9343 10.4117 37.5000 0.8153 -0.0671 0.5752 200 200 200
-24.8737 -95.8990 -37.5000 -0.3027 -0.8691 -0.3913 200 200 200
-24.8737 -95.8990 37.5000 -0.2788 -0.8732 0.3997 200 200 200
-24.5570 -16.0738 -37.5000 0.9100 0.0917 -0.4043 200 200 200
-24.5570 -16.0738 37.5000 0.9117 0.0782 0.4034 200 200 200
-24.1626 18.0563 -37.5000 0.7262 -0.0902 -0.6815 200 200 200
-24.1626 18.0563 37.5000 0.7224 -0.1067 0.6832 200 200 200
-23.8444 -22.2291 -37.5000 0.6837 0.1110 -0.7213 200 200 200
-23.8444 -22.2291 37.5000 0.6875 0.0955 0.7199 200 200 200
-22.8802 25.5282 -37.5000 0.8090 -0.1654 -0.5640 200 200 200
-22.8802 25.5282 37.5000 0.7941 -0.1907 0.5771 200 200 200
-22.7234 -28.2485 -37.5000 0.7886 0.1988 -0.5819 200 200 200
-22.7234 -28.2485 37.5000 0.7955 0.1740 0.5805 200 200 200
-21.0575 -34.0699 -37.5000 0.6662 0.2408 -0.7058 200 200 200
-21.0575 -34.0699 37.5000 0.6835 0.2203 0.6959 200 200 200
-21.0404 32.1243 -37.5000 0.6877 -0.2233 -0.6908 200 200 200
-21.0404 32.1243 37.5000 0.6654 -0.2497 0.7035 200 200 200
-20.1943 96.4951 -37.5000 -0.2752 0.8759 -0.3963 200 200 200
-20.1943 96.4951 37.5000 -0.2949 0.8684 0.3987 200 200 200
-20.0732 -97.2874 -37.5000 -0.2360 -0.8892 -0.3920 200 200 200
-20.0732 -97.2874 37.5000 -0.2154 -0.8926 0.3960 200 200 200
-18.9709 -39.2369 -37.5000 0.7125 0.3682 -0.5973 200 200 200
-18.9709 -39.2369 37.5000 0.7441 0.3393 0.5755 200 200 200
-18.5998 37.7806 -37.5000 0.6323 -0.3156 -0.7075 200 200 200
-18.5998 37.7806 37.5000 0.6023 -0.3467 0.7190 200 200 200
-16.5846 -43.2893 -37.5000 0.5422 0.4162 -0.7299 200 200 200
-16.5846 -43.2893 37.5000 0.5775 0.3878 0.7184 200 200 200
-15.5133 42.4350 -37.5000 0.5649 -0.4237 -0.7080 200 200 200
-15.5133 42.4350 37.5000 0.5289 -0.4505 0.7192 200 200 200
-15.3627 -98.3087 -37.5000 -0.1659 -0.8270 -0.5372 200 200 200
-15.3627 -98.3087 37.5000 -0.1530 -0.8298 0.5366 200 200 200
-14.7292 98.0777 -37.5000 -0.1954 0.8393 -0.5073 200 200 200
-14.7292 98.0777 37.5000 -0.2166 0.8310 0.5125 200 200 200
-13.7697 -46.4835 -37.5000 0.3852 0.4394 -0.8115 200 200 200
-13.7697 -46.4835 37.5000 0.4128 0.4137 0.8114 200 200 200
-11.9734 46.0757 -37.5000 0.4297 -0.4726 -0.7694 200 200 200
-11.9734 46.0757 37.5000 0.3901 -0.4902 0.7794 200 200 200
-10.5901 -99.1126 -37.5000 -0.1338 -0.9089 -0.3950 200 200 200
-10.5901 -99.1126 37.5000 -0.1164 -0.9151 0.3861 200 200 200
-10.3960 -49.0777 -37.5000 0.3448 0.6074 -0.7157 200 200 200
-10.3960 -49.0777 37.5000 0.3834 0.5786 0.7198 200 200 200
-8.9257 99.2738 -37.5000 -0.1283 0.9104 -0.3933 200 200 200
-8.9257 99.2738 37.5000 -0.1562 0.9037 0.3986 200 200 200
-8.1712 48.6893 -37.5000 0.3708 -0.6152 -0.6958 200 200 200
-8.1712 48.6893 37.5000 0.3291 -0.6316 0.7020 200 200 200
-6.4245 -50.9922 -37.5000 0.2016 0.6294 -0.7505 200 200 200
-6.4245 -50.9922 37.5000 0.2405 0.6056 0.7586 200 200 200
-5.3734 -99.6777 -37.5000 -0.0737 -0.8471 -0.5263 200 200 200
-5.3734 -99.6777 37.5000 -0.0582 -0.8591 0.5084 200 200 200
-4.1655 50.4602 -37.5000 0.2528 -0.6621 -0.7055 200 200 200
-4.1655 50.4602 37.5000 0.2171 -0.6723 0.7077 200 200 200
-2.7512 99.9553 -37.5000 -0.0347 0.8696 -0.4926 200 200 200
-2.7512 99.9553 37.5000 -0.0643 0.8638 0.4997 200 200 200
-1.8196 -52.1456 -37.5000 0.1048 0.7466 -0.6569 200 200 200
-1.8196 -52.1456 37.5000 0.1436 0.7380 0.6593 200 200 200
-0.0109 51.5631 -37.5000 0.1409 -0.6767 -0.7227 200 200 200
-0.0109 51.5631 37.5000 0.1032 -0.6813 0.7247 200 200 200
0.6645 -99.9806 -37.5000 -0.0316 -0.9206 -0.3893 200 200 200
0.6645 -99.9806 37.5000 -0.0172 -0.9215 0.3880 200 200 200
2.9996 -52.5689 -37.5000 -0.0065 0.7158 -0.6982 200 200 200
2.9996 -52.5689 37.5000 0.0289 0.7206 0.6928 200 200 200
3.8255 100.0000 -37.5000 0.0442 0.9203 -0.3887 200 200 200
3.8255 100.0000 37.5000 0.0194 0.9180 0.3961 200 200 200
4.1935 51.9631 -37.5000 0.0246 -0.6654 -0.7461 200 200 200
4.1935 51.9631 37.5000 -0.0144 -0.6643 0.7474 200 200 200
6.7847 -100.0000 -37.5000 0.0123 -0.8649 -0.5019 200 200 200
6.7847 -100.0000 37.5000 0.0283 -0.8561 0.5160 200 200 200
7.6138 -52.2932 -37.5000 -0.1252 0.7204 -0.6822 200 200 200
7.6138 -52.2932 37.5000 -0.0844 0.7321 0.6759 200 200 200
8.3544 51.6272 -37.5000 -0.0861 -0.6300 -0.7718 200 200 200
8.3544 51.6272 37.5000 -0.1209 -0.6234 0.7725 200 200 200
10.8354 99.4835 -37.5000 0.1003 0.8738 -0.4758 200 200 200
10.8354 99.4835 37.5000 0.0825 0.8709 0.4844 200 200 200
11.8896 -51.2874 -37.5000 -0.2280 0.5978 -0.7685 200 200 200
11.8896 -51.2874 37.5000 -0.1887 0.6176 0.7635 200 200 200
12.2467 -99.7087 -37.5000 0.0680 -0.9198 -0.3865 200 200 200
12.2467 -99.7087 37.5000 0.0873 -0.9152 0.3934 200 200 200
12.3740 50.6117 -37.5000 -0.2269 -0.7309 -0.6436 200 200 200
12.3740 50.6117 37.5000 -0.2657 -0.7171 0.6443 200 200 200
15.6934 -49.5243 -37.5000 -0.2969 0.4504 -0.8420 200 200 200
15.6934 -49.5243 37.5000 -0.2626 0.4715 0.8419 200 200 200
16.1576 48.9728 -37.5000 -0.2816 -0.5573 -0.7811 200 200 200
16.1576 48.9728 37.5000 -0.3139 -0.5390 0.7816 200 200 200
17.3515 -99.1068 -37.5000 0.1174 -0.8468 -0.5189 200 200 200
17.3515 -99.1068 37.5000 0.1347 -0.8441 0.5190 200 200 200
18.3048 98.4816 -37.5000 0.1747 0.9043 -0.3895 200 200 200
18.3048 98.4816 37.5000 0.1487 0.9072 0.3936 200 200 200
19.0081 -46.9670 -37.5000 -0.5127 0.4915 -0.7040 200 200 200
19.0081 -46.9670 37.5000 -0.4711 0.5234 0.7100 200 200 200
19.5733 46.7010 -37.5000 -0.3890 -0.5080 -0.7685 200 200 200
19.5733 46.7010 37.5000 -0.4224 -0.4814 0.7680 200 200 200
21.8229 -43.5806 -37.5000 -0.3093 0.1992 -0.9299 200 200 200
21.8229 -43.5806 37.5000 -0.2871 0.2095 0.9347 200 200 200
22.4051 -98.1942 -37.5000 0.1812 -0.9018 -0.3923 200 200 200
22.4051 -98.1942 37.5000 0.1989 -0.8976 0.3935 200 200 200
22.4859 43.7825 -37.5000 -0.5027 -0.4433 -0.7421 200 200 200
22.4859 43.7825 37.5000 -0.5321 -0.4149 0.7381 200 200 200
24.2791 -39.2738 -37.5000 -0.8537 0.3964 -0.3378 200 200 200
24.2791 -39.2738 37.5000 -0.8323 0.4273 0.3532 200 200 200
24.9110 40.2641 -37.5000 -0.6928 -0.4239 -0.5834 200 200 200
24.9110 40.2641 37.5000 -0.7185 -0.3893 0.5764 200 200 200
25.9403 96.7864 -37.5000 0.2560 0.8425 -0.4740 200 200 200
25.9403 96.7864 37.5000 0.2234 0.8506 0.4759 200 200 200
26.5194 -33.9573 -37.5000 -0.8763 0.3189 -0.3611 200 200 200
26.5194 -33.9573 37.5000 -0.8678 0.3405 0.3619 200 200 200
26.8579 36.1922 -37.5000 -0.6651 -0.2947 -0.6862 200 200 200
26.8579 36.1922 37.5000 -0.6633 -0.2698 0.6981 200 200 200
27.3454 -96.9961 -37.5000 0.2338 -0.8895 -0.3926 200 200 200
27.3454 -96.9961 37.5000 0.2508 -0.8840 0.3946 200 200 200
28.2723 32.3573 -37.5000 -0.8812 -0.3070 -0.3596 200 200 200
28.2723 32.3573 37.5000 -0.8739 -0.2829 0.3953 200 200 200
28.3717 -28.4485 -37.5000 -0.8898 0.2585 -0.3761 200 200 200
28.3717 -28.4485 37.5000 -0.8896 0.2796 0.3611 200 200 200
29.0952 29.5476 -37.5000 -0.6379 -0.1735 -0.7503 200 200 200
29.0952 29.5476 37.5000 -0.6378 -0.1602 0.7534 200 200 200
29.6634 -23.5689 -37.5000 -0.9058 0.2130 -0.3662 200 200 200
29.6634 -23.5689 37.5000 -0.8990 0.2242 0.3762 200 200 200
29.7333 26.7728 -37.5000 -0.9244 -0.2346 -0.3008 200 200 200
29.7333 26.7728 37.5000 -0.8546 -0.2621 0.4483 200 200 200
29.9879 26.2893 -37.5000 -0.7623 -0.5467 -0.3464 200 200 200
29.9879 26.2893 37.5000 -0.7041 -0.6358 0.3162 200 200 200
30.5313 25.7883 -37.5000 -0.5801 -0.7648 -0.2804 200 200 200
30.5313 25.7883 37.5000 -0.5050 -0.8170 0.2784 200 200 200
30.8635 -18.1592 -37.5000 -0.8120 0.2139 -0.5431 200 200 200
30.8635 -18.1592 37.5000 -0.9074 0.2126 0.3626 200 200 200
31.1741 -17.4078 -37.5000 -0.7978 0.6029 -0.0104 200 200 200
31.1741 -17.4078 37.5000 -0.8692 0.4943 0.0103 200 200 200
31.2082 25.4524 -37.5000 -0.3091 -0.9342 -0.1783 200 200 200
31.2082 25.4524 37.5000 -0.1557 -0.9698 0.1879 200 200 200
31.7268 -16.8466 -37.5000 -0.5099 0.8602 -0.0053 200 200 200
31.7268 -16.8466 37.5000 -0.6196 0.7849 0.0052 200 200 200
31.8556 25.4621 -37.5000 0.2683 -0.9633 -0.0022 200 200 200
31.8556 25.4621 37.5000 0.2740 -0.9617 0.0011 200 200 200
32.1196 -95.5398 -37.5000 0.2714 -0.8079 -0.5230 200 200 200
32.1196 -95.5398 37.5000 0.2942 -0.8010 0.5213 200 200 200
32.4021 -16.5631 -37.5000 -0.0669 0.9978 -0.0016 200 200 200
32.4021 -16.5631 37.5000 -0.2365 0.9716 0.0015 200 200 200
33.0775 -16.6369 -37.5000 0.3516 0.9360 -0.0149 200 200 200
33.0775 -16.6369 37.5000 0.3462 0.9377 0.0292 200 200 200
33.4517 94.1922 -37.5000 0.3534 0.8055 -0.4758 200 200 200
33.4517 94.1922 37.5000 0.3205 0.8193 0.4754 200 200 200
36.8176 -93.6660 -37.5000 0.3683 -0.8385 -0.4016 200 200 200
36.8176 -93.6660 37.5000 0.3971 -0.8279 0.3961 200 200 200
40.5702 90.7184 -37.5000 0.4765 0.7850 -0.3959 200 200 200
40.5702 90.7184 37.5000 0.4403 0.8069 0.3938 200 200 200
41.5312 -91.2155 -37.5000 0.4558 -0.7943 -0.4016 200 200 200
41.5312 -91.2155 37.5000 0.4886 -0.7767 0.3975 200 200 200
46.0725 -88.1010 -37.5000 0.5548 -0.7285 -0.4018 200 200 200
46.0725 -88.1010 37.5000 0.5906 -0.7020 0.3980 200 200 200
47.0211 86.3786 -37.5000 0.5506 0.6838 -0.4788 200 200 200
47.0211 86.3786 37.5000 0.5215 0.7083 0.4757 200 200 200
50.2520 -84.2311 -37.5000 0.6043 -0.6131 -0.5088 200 200 200
50.2520 -84.2311 37.5000 0.6236 -0.5946 0.5075 200 200 200
52.7098 81.3709 -37.5000 0.6629 0.6366 -0.3941 200 200 200
52.7098 81.3709 37.5000 0.6365 0.6654 0.3899 200 200 200
54.0931 -79.9456 -37.5000 0.6953 -0.6027 -0.3916 200 200 200
54.0931 -79.9456 37.5000 0.7044 -0.5901 0.3945 200 200 200
57.5320 75.8913 -37.5000 0.6999 0.5283 -0.4806 200 200 200
57.5320 75.8913 37.5000 0.6815 0.5563 0.4755 200 200 200
57.6190 -75.5864 -37.5000 0.6810 -0.5254 -0.5101 200 200 200
57.6190 -75.5864 37.5000 0.6927 -0.5092 0.5108 200 200 200
60.8157 -71.0194 -37.5000 0.7686 -0.5064 -0.3908 200 200 200
60.8157 -71.0194 37.5000 0.7832 -0.4852 0.3889 200 200 200
61.5284 70.1417 -37.5000 0.7906 0.4731 -0.3889 200 200 200
61.5284 70.1417 37.5000 0.7757 0.5015 0.3831 200 200 200
63.6709 -66.1146 -37.5000 0.8067 -0.4416 -0.3928 200 200 200
63.6709 -66.1146 37.5000 0.8203 -0.4225 0.3856 200 200 200
64.7329 64.3223 -37.5000 0.7873 0.3817 -0.4842 200 200 200
64.7329 64.3223 37.5000 0.7794 0.4036 0.4793 200 200 200
66.3134 -60.6641 -37.5000 0.8349 -0.3831 -0.3952 200 200 200
66.3134 -60.6641 37.5000 0.8466 -0.3684 0.3841 200 200 200
67.3614 58.5068 -37.5000 0.8063 0.3335 -0.4886 200 200 200
67.3614 58.5068 37.5000 0.8028 0.3475 0.4845 200 200 200
68.8736 -54.4680 -37.5000 0.8559 -0.3374 -0.3919 200 200 200
68.8736 -54.4680 37.5000 0.8618 -0.3237 0.3905 200 200 200
69.6250 52.7650 -37.5000 0.8676 0.3151 -0.3846 200 200 200
69.6250 52.7650 37.5000 0.8684 0.3294 0.3706 200 200 200
71.1589 -48.0718 -37.5000 0.8719 -0.2959 -0.3902 200 200 200
71.1589 -48.0718 37.5000 0.8734 -0.2802 0.3983 200 200 200
71.3965 47.6427 -37.5000 0.7675 0.2402 -0.5944 200 200 200
71.3965 47.6427 37.5000 0.7869 0.2602 0.5596 200 200 200
72.1076 37.0155 -37.5000 0.2777 -0.9601 -0.0337 200 200 200
72.1076 37.0155 37.5000 0.2828 -0.9570 0.0654 200 200 200
72.5516 43.6816 -37.5000 0.8965 0.2362 -0.3749 200 200 200
72.5516 43.6816 37.5000 0.8925 0.2476 0.3770 200 200 200
72.8714 37.4117 -37.5000 0.5744 -0.7956 -0.1926 200 200 200
72.8714 37.4117 37.5000 0.6885 -0.6988 0.1941 200 200 200
72.9817 -42.0252 -37.5000 0.8780 -0.2548 -0.4053 200 200 200
72.9817 -42.0252 37.5000 0.8865 -0.2483 0.3905 200 200 200
73.3745 38.0854 -37.5000 0.8242 -0.4801 -0.3003 200 200 200
73.3745 38.0854 37.5000 0.8740 -0.3800 0.3027 200 200 200
73.5716 39.5981 -37.5000 0.8666 0.1717 -0.4686 200 200 200
73.5716 39.5981 37.5000 0.9253 0.2162 0.3116 200 200 200
73.6105 38.8699 -37.5000 0.9205 -0.1736 -0.3500 200 200 200
73.6105 38.8699 37.5000 0.9297 -0.0657 0.3623 200 200 200
73.8728 -32.0505 -37.5000 0.3362 0.8702 -0.3601 200 200 200
73.8728 -32.0505 37.5000 0.3485 0.9171 0.1934 200 200 200
74.4007 -32.4291 -37.5000 0.7377 0.5633 -0.3722 200 200 200
74.4007 -32.4291 37.5000 0.6458 0.6523 0.3968 200 200 200
74.8121 -33.1243 -37.5000 0.8664 0.2710 -0.4194 200 200 200
74.8121 -33.1243 37.5000 0.8239 0.3619 0.4362 200 200 200
74.8665 -35.0660 -37.5000 0.9130 -0.2384 -0.3311 200 200 200
74.8665 -35.0660 37.5000 0.8397 -0.2003 0.5047 200 200 200
75.0000 -34.0350 -37.5000 0.9063 -0.0241 -0.4218 200 200 200
75.0000 -34.0350 37.5000 0.8971 0.0762 0.4352 200 200 200
3 200 206 208
3 196 200 208
3 194 196 208
3 194 208 266
3 186 194 266
3 182 186 266
3 174 182 266
3 168 174 266
3 162 168 266
3 162 266 268
3 162 268 270
3 162 270 274
3 162 274 272
3 162 272 258
3 162 258 248
3 162 248 244
3 162 244 240
3 162 240 236
3 162 236 232
3 162 232 230
3 158 162 230
3 158 230 226
3 158 226 222
3 150 158 222
3 150 222 218
3 150 218 216
3 150 216 212
3 150 212 204
3 144 150 204
3 144 204 178
3 144 178 164
3 144 164 154
3 138 144 154
3 138 154 146
3 138 146 136
3 130 138 136
3 130 136 128
3 130 128 118
3 124 130 118
3 124 118 108
3 124 108 100
3 116 124 100
3 116 100 90
3 116 90 72
3 116 72 60
3 110 116 60
3 110 60 56
3 110 56 52
3 104 110 52
3 104 52 46
3 104 46 42
3 104 42 40
3 96 104 40
3 96 40 36
3 96 36 32
3 92 96 32
3 92 32 28
3 84 92 28
3 84 28 24
3 84 24 20
3 82 84 20
3 82 20 16
3 78 82 16
3 78 16 12
3 78 12 8
3 74 78 8
3 68 74 8
3 68 8 4
3 66 68 4
3 66 4 0
3 64 66 0
3 64 0 2
3 70 64 2
3 70 2 6
3 76 70 6
3 76 6 10
3 76 10 14
3 80 76 14
3 80 14 18
3 86 80 18
3 86 18 22
3 86 22 26
3 94 86 26
3 94 26 30
3 94 30 34
3 98 94 34
3 98 34 38
3 98 38 44
3 106 98 44
3 106 44 48
3 106 48 50
3 106 50 54
3 114 106 54
3 114 54 58
3 114 58 62
3 120 114 62
3 120 62 88
3 120 88 102
3 126 120 102
3 126 102 112
3 126 112 122
3 134 126 122
3 134 122 132
3 134 132 142
3 140 134 142
3 140 142 156
3 140 156 172
3 148 140 172
3 148 172 210
3 152 148 210
3 152 210 214
3 152 214 220
3 160 152 220
3 160 220 224
3 160 224 228
3 166 160 228
3 166 228 234
3 166 234 238
3 170 166 238
3 170 238 242
3 176 170 242
3 176 242 246
3 176 246 250
3 180 176 250
3 184 180 250
3 184 250 254
3 184 254 262
3 184 262 264
3 184 264 260
3 184 260 256
3 184 256 252
3 188 184 252
3 190 188 252
3 192 190 252
3 198 192 252
3 198 252 202
3 209 207 201
3 209 201 197
3 209 197 195
3 267 209 195
3 267 195 187
3 267 187 183
3 267 183 175
3 267 175 169
3 267 169 163
3 269 267 163
3 271 269 163
3 275 271 163
3 273 275 163
3 259 273 163
3 249 259 163
3 245 249 163
3 241 245 163
3 237 241 163
3 233 237 163
3 231 233 163
3 231 163 159
3 227 231 159
3 223 227 159
3 223 159 151
3 219 223 151
3 217 219 151
3 213 217 151
3 205 213 151
3 205 151 145
3 179 205 145
3 165 179 145
3 155 165 145
3 155 145 139
3 147 155 139
3 137 147 139
3 137 139 131
3 129 137 131
3 119 129 131
3 119 131 125
3 109 119 125
3 101 109 125
3 101 125 117
3 91 101 117
3 73 91 117
3 61 73 117
3 61 117 111
3 57 61 111
3 53 57 111
3 53 111 105
3 47 53 105
3 43 47 105
3 41 43 105
3 41 105 97
3 37 41 97
3 33 37 97
3 33 97 93
3 29 33 93
3 29 93 85
3 25 29 85
3 21 25 85
3 21 85 83
3 17 21 83
3 17 83 79
3 13 17 79
3 9 13 79
3 9 79 75
3 9 75 69
3 5 9 69
3 5 69 67
3 1 5 67
3 1 67 65
3 3 1 65
3 3 65 71
3 7 3 71
3 7 71 77
3 11 7 77
3 15 11 77
3 15 77 81
3 19 15 81
3 19 81 87
3 23 19 87
3 27 23 87
3 27 87 95
3 31 27 95
3 35 31 95
3 35 95 99
3 39 35 99
3 45 39 99
3 45 99 107
3 49 45 107
3 51 49 107
3 55 51 107
3 55 107 115
3 59 55 115
3 63 59 115
3 63 115 121
3 89 63 121
3 103 89 121
3 103 121 127
3 113 103 127
3 123 113 127
3 123 127 135
3 133 123 135
3 143 133 135
3 143 135 141
3 157 143 141
3 173 157 141
3 173 141 149
3 211 173 149
3 211 149 153
3 215 211 153
3 221 215 153
3 221 153 161
3 225 221 161
3 229 225 161
3 229 161 167
3 235 229 167
3 239 235 167
3 239 167 171
3 243 239 171
3 243 171 177
3 247 243 177
3 251 247 177
3 251 177 181
3 251 181 185
3 255 251 185
3 263 255 185
3 265 263 185
3 261 265 185
3 257 261 185
3 253 257 185
3 253 185 189
3 253 189 191
3 253 191 193
3 253 193 199
3 203 253 199
3 147 137 146
3 146 137 136
3 155 147 154
3 154 147 146
3 165 155 164
3 164 155 154
3 179 165 178
3 178 165 164
3 205 179 204
3 204 179 178
3 213 205 212
3 212 205 204
3 217 213 216
3 216 213 212
3 219 217 218
3 218 217 216
3 223 219 222
3 222 219 218
3 227 223 226
3 226 223 222
3 231 227 230
3 230 227 226
3 233 231 232
3 232 231 230
3 237 233 236
3 236 233 232
3 241 237 240
3 240 237 236
3 245 241 244
3 244 241 240
3 249 245 248
3 248 245 244
3 259 249 258
3 258 249 248
3 273 259 272
3 272 259 258
3 275 273 274
3 274 273 272
3 271 275 270
3 270 275 274
3 269 271 268
3 268 271 270
3 267 269 266
3 266 269 268
3 209 267 208
3 208 267 266
3 207 209 206
3 206 209 208
3 201 207 200
3 200 207 206
3 197 201 196
3 196 201 200
3 195 197 194
3 194 197 196
3 187 195 186
3 186 195 194
3 183 187 182
3 182 187 186
3 175 183 174
3 174 183 182
3 169 175 168
3 168 175 174
3 163 169 162
3 162 169 168
3 159 163 158
3 158 163 162
3 151 159 150
3 150 159 158
3 145 151 144
3 144 151 150
3 139 145 138
3 138 145 144
3 131 139 130
3 130 139 138
3 125 131 124
3 124 131 130
3 117 125 116
3 116 125 124
3 111 117 110
3 110 117 116
3 105 111 104
3 104 111 110
3 97 105 96
3 96 105 104
3 93 97 92
3 92 97 96
3 85 93 84
3 84 93 92
3 83 85 82
3 82 85 84
3 79 83 78
3 78 83 82
3 75 79 74
3 74 79 78
3 69 75 68
3 68 75 74
3 67 69 66
3 66 69 68
3 65 67 64
3 64 67 66
3 71 65 70
3 70 65 64
3 77 71 76
3 76 71 70
3 81 77 80
3 80 77 76
3 87 81 86
3 86 81 80
3 95 87 94
3 94 87 86
3 99 95 98
3 98 95 94
3 107 99 106
3 106 99 98
3 115 107 114
3 114 107 106
3 121 115 120
3 120 115 114
3 127 121 126
3 126 121 120
3 135 127 134
3 134 127 126
3 141 135 140
3 140 135 134
3 149 141 148
3 148 141 140
3 153 149 152
3 152 149 148
3 161 153 160
3 160 153 152
3 167 161 166
3 166 161 160
3 171 167 170
3 170 167 166
3 177 171 176
3 176 171 170
3 181 177 180
3 180 177 176
3 185 181 184
3 184 181 180
3 189 185 188
3 188 185 184
3 191 189 190
3 190 189 188
3 193 191 192
3 192 191 190
3 199 193 198
3 198 193 192
3 203 199 202
3 202 199 198
3 253 203 252
3 252 203 202
3 257 253 256
3 256 253 252
3 261 257 260
3 260 257 256
3 265 261 264
3 264 261 260
3 263 265 262
3 262 265 264
3 255 263 254
3 254 263 262
3 251 255 250
3 250 255 254
3 247 251 246
3 246 251 250
3 243 247 242
3 242 247 246
3 239 243 238
3 238 243 242
3 235 239 234
3 234 239 238
3 229 235 228
3 228 235 234
3 225 229 224
3 224 229 228
3 221 225 220
3 220 225 224
3 215 221 214
3 214 221 220
3 211 215 210
3 210 215 214
3 173 211 172
3 172 211 210
3 157 173 156
3 156 173 172
3 143 157 142
3 142 157 156
3 133 143 132
3 132 143 142
3 123 133 122
3 122 133 132
3 113 123 112
3 112 123 122
3 103 113 102
3 102 113 112
3 89 103 88
3 88 103 102
3 63 89 62
3 62 89 88
3 59 63 58
3 58 63 62
3 55 59 54
3 54 59 58
3 51 55 50
3 50 55 54
3 49 51 48
3 48 51 50
3 45 49 44
3 44 49 48
3 39 45 38
3 38 45 44
3 35 39 34
3 34 39 38
3 31 35 30
3 30 35 34
3 27 31 26
3 26 31 30
3 23 27 22
3 22 27 26
3 19 23 18
3 18 23 22
3 15 19 14
3 14 19 18
3 11 15 10
3 10 15 14
3 7 11 6
3 6 11 10
3 3 7 2
3 2 7 6
3 1 3 0
3 0 3 2
3 5 1 4
3 4 1 0
3 9 5 8
3 8 5 4
3 13 9 12
3 12 9 8
3 17 13 16
3 16 13 12
3 21 17 20
3 20 17 16
3 25 21 24
3 24 21 20
3 29 25 28
3 28 25 24
3 33 29 32
3 32 29 28
3 37 33 36
3 36 33 32
3 41 37 40
3 40 37 36
3 43 41 42
3 42 41 40
3 47 43 46
3 46 43 42
3 53 47 52
3 52 47 46
3 57 53 56
3 56 53 52
3 61 57 60
3 60 57 56
3 73 61 72
3 72 61 60
3 91 73 90
3 90 73 72
3 101 91 100
3 100 91 90
3 109 101 108
3 108 101 100
3 119 109 118
3 118 109 108
3 137 129 136
3 136 129 128
3 129 119 128
3 128 119 118
