ply
format ascii 1.0
comment made by oim.objects.fit_print
element vertex 66
property float x
property float y
property float z
property float nx
property float ny
property float nz
property uchar red
property uchar green
property uchar blue
element face 132
property list uchar int vertex_indices
end_header
-75.0000 -96.9417 -37.5000 -0.9211 0.2391 -0.3074 200 200 200
-75.0000 -96.9417 37.5000 -0.8178 0.2084 0.5364 200 200 200
-74.9595 -99.2350 -37.5000 -0.9476 -0.3193 -0.0093 200 200 200
-74.9595 -99.2350 37.5000 -0.7391 -0.6736 0.0101 200 200 200
-73.2375 -100.0000 -37.5000 -0.0352 -0.9986 -0.0387 200 200 200
-73.2375 -100.0000 37.5000 -0.0094 -0.9997 0.0206 200 200 200
-33.2132 -100.0000 -37.5000 0.0093 -0.9991 -0.0425 200 200 200
-33.2132 -100.0000 37.5000 0.0353 -0.9961 0.0803 200 200 200
-31.6867 -99.2369 -37.5000 0.6923 -0.7216 -0.0067 200 200 200
-31.6867 -99.2369 37.5000 0.8453 -0.5343 0.0059 200 200 200
-30.7603 -96.9456 -37.5000 0.8539 -0.1991 -0.4809 200 200 200
-30.7603 -96.9456 37.5000 0.9347 -0.1989 0.2945 200 200 200
-25.0575 -69.1204 -37.5000 0.4034 -0.0868 -0.9109 200 200 200
-25.0575 -69.1204 37.5000 0.2313 -0.0561 0.9713 200 200 200
-24.2417 97.3709 -37.5000 -0.6906 0.1833 -0.6997 200 200 200
-24.2417 97.3709 37.5000 -0.8660 0.2272 0.4454 200 200 200
-24.1837 -67.6816 -37.5000 0.1354 -0.1445 -0.9802 200 200 200
-24.1837 -67.6816 37.5000 0.0965 -0.1830 0.9784 200 200 200
-23.3045 99.3437 -37.5000 -0.6523 0.7579 -0.0059 200 200 200
-23.3045 99.3437 37.5000 -0.8114 0.5844 0.0052 200 200 200
-22.3471 -67.2019 -37.5000 0.0172 -0.8661 -0.4995 200 200 200
-22.3471 -67.2019 37.5000 0.0050 -0.9563 0.2924 200 200 200
-21.8643 100.0000 -37.5000 -0.0074 0.9993 -0.0367 200 200 200
-21.8643 100.0000 37.5000 -0.0281 0.9972 0.0698 200 200 200
-14.6230 -22.6019 -37.5000 0.7393 0.4744 -0.4780 200 200 200
-14.6230 -22.6019 37.5000 0.8904 0.1955 0.4111 200 200 200
-14.5973 -20.8699 -37.5000 0.7820 -0.1632 -0.6016 200 200 200
-14.5973 -20.8699 37.5000 0.9102 -0.1971 0.3643 200 200 200
-13.6844 -23.1786 -37.5000 0.0082 0.7920 -0.6105 200 200 200
-13.6844 -23.1786 37.5000 0.0222 0.5630 0.8262 200 200 200
-0.7160 42.4311 -37.5000 0.9500 -0.2110 -0.2301 200 200 200
-0.7160 42.4311 37.5000 0.8871 -0.2041 0.4140 200 200 200
0.0000 44.0621 -37.5000 0.0445 -0.0586 -0.9973 200 200 200
0.0000 44.0621 37.5000 -0.0445 -0.0586 0.9973 200 200 200
0.7160 42.4311 -37.5000 -0.8871 -0.2041 -0.4140 200 200 200
0.7160 42.4311 37.5000 -0.9500 -0.2110 0.2301 200 200 200
13.6844 -23.1786 -37.5000 -0.0342 0.8681 -0.4952 200 200 200
13.6844 -23.1786 37.5000 -0.0099 0.9579 0.2870 200 200 200
14.5973 -20.8699 -37.5000 -0.6778 -0.1468 -0.7204 200 200 200
14.5973 -20.8699 37.5000 -0.4378 -0.0914 0.8944 200 200 200
14.6230 -22.6019 -37.5000 -0.1314 0.0288 -0.9909 200 200 200
14.6230 -22.6019 37.5000 -0.0941 0.0604 0.9937 200 200 200
21.8643 100.0000 -37.5000 0.0281 0.9990 -0.0335 200 200 200
21.8643 100.0000 37.5000 0.0074 0.9998 0.0176 200 200 200
22.3471 -67.2019 -37.5000 -0.0047 -0.9009 -0.4341 200 200 200
22.3471 -67.2019 37.5000 -0.0147 -0.7399 0.6725 200 200 200
23.3045 99.3437 -37.5000 0.8114 0.5844 -0.0052 200 200 200
23.3045 99.3437 37.5000 0.6523 0.7579 0.0059 200 200 200
24.1837 -67.6816 -37.5000 -0.4504 -0.8541 -0.2601 200 200 200
24.1837 -67.6816 37.5000 -0.6580 -0.7025 0.2714 200 200 200
24.2417 97.3709 -37.5000 0.8885 0.2330 -0.3953 200 200 200
24.2417 97.3709 37.5000 0.7374 0.1958 0.6464 200 200 200
25.0575 -69.1204 -37.5000 -0.5680 -0.1378 -0.8114 200 200 200
25.0575 -69.1204 37.5000 -0.7817 -0.1681 0.6006 200 200 200
30.7603 -96.9456 -37.5000 -0.9347 -0.1989 -0.2945 200 200 200
30.7603 -96.9456 37.5000 -0.8539 -0.1991 0.4809 200 200 200
31.6867 -99.2369 -37.5000 -0.8453 -0.5343 -0.0059 200 200 200
31.6867 -99.2369 37.5000 -0.6923 -0.7216 0.0067 200 200 200
33.2132 -100.0000 -37.5000 -0.0353 -0.9961 -0.0803 200 200 200
33.2132 -100.0000 37.5000 -0.0093 -0.9991 0.0425 200 200 200
73.2375 -100.0000 -37.5000 0.0094 -0.9997 -0.0206 200 200 200
73.2375 -100.0000 37.5000 0.0352 -0.9986 0.0387 200 200 200
74.9595 -99.2350 -37.5000 0.7391 -0.6736 -0.0101 200 200 200
74.9595 -99.2350 37.5000 0.9476 -0.3193 0.0093 200 200 200
75.0000 -96.9417 -37.5000 0.7762 0.1978 -0.5986 200 200 200
75.0000 -96.9417 37.5000 0.9049 0.2349 0.3550 200 200 200
3 64 62 60
3 4 2 0
3 64 60 58
3 6 4 0
3 58 56 54
3 64 58 54
3 64 54 52
3 40 64 52
3 40 52 48
3 40 48 44
3 36 40 44
3 28 36 44
3 28 44 20
3 24 28 20
3 24 20 16
3 10 8 6
3 10 6 0
3 12 10 0
3 42 46 50
3 22 42 50
3 14 18 22
3 14 22 50
3 64 40 38
3 12 0 14
3 16 12 14
3 50 64 38
3 50 38 34
3 50 34 32
3 14 50 32
3 14 32 30
3 14 30 26
3 16 14 26
3 24 16 26
3 61 63 65
3 1 3 5
3 59 61 65
3 1 5 7
3 55 57 59
3 55 59 65
3 53 55 65
3 53 65 41
3 49 53 41
3 45 49 41
3 45 41 37
3 45 37 29
3 21 45 29
3 21 29 25
3 17 21 25
3 7 9 11
3 1 7 11
3 1 11 13
3 51 47 43
3 51 43 23
3 23 19 15
3 51 23 15
3 39 41 65
3 15 1 13
3 15 13 17
3 39 65 51
3 35 39 51
3 33 35 51
3 33 51 15
3 31 33 15
3 27 31 15
3 27 15 17
3 27 17 25
3 7 5 6
3 6 5 4
3 9 7 8
3 8 7 6
3 11 9 10
3 10 9 8
3 13 11 12
3 12 11 10
3 17 13 16
3 16 13 12
3 21 17 20
3 20 17 16
3 45 21 44
3 44 21 20
3 49 45 48
3 48 45 44
3 53 49 52
3 52 49 48
3 55 53 54
3 54 53 52
3 57 55 56
3 56 55 54
3 59 57 58
3 58 57 56
3 61 59 60
3 60 59 58
3 63 61 62
3 62 61 60
3 65 63 64
3 64 63 62
3 51 65 50
3 50 65 64
3 47 51 46
3 46 51 50
3 43 47 42
3 42 47 46
3 23 43 22
3 22 43 42
3 19 23 18
3 18 23 22
3 15 19 14
3 14 19 18
3 1 15 0
3 0 15 14
3 5 3 4
3 4 3 2
3 3 1 2
3 2 1 0
3 25 29 24
3 24 29 28
3 27 25 26
3 26 25 24
3 31 27 30
3 30 27 26
3 33 31 32
3 32 31 30
3 35 33 34
3 34 33 32
3 39 35 38
3 38 35 34
3 41 39 40
3 40 39 38
3 29 37 28
3 28 37 36
3 37 41 36
3 36 41 40
